<?xml version="1.0" encoding="iso-8859-1"?>
<!-- Generator: Adobe Illustrator 19.0.0, SVG Export Plug-In . SVG Version: 6.00 Build 0)  -->
<svg version="1.1" id="Capa_1" xmlns="http://www.w3.org/2000/svg" xmlns:xlink="http://www.w3.org/1999/xlink" x="0px" y="0px"
	 viewBox="0 0 512 512" style="enable-background:new 0 0 512 512;" xml:space="preserve">
<g>
	<g>
		<path d="M437.02,74.981C388.667,26.628,324.38,0,256,0S123.333,26.628,74.98,74.981C26.629,123.333,0,187.62,0,256
			c0,57.523,18.636,111.863,53.893,157.145c3.393,4.358,9.677,5.14,14.034,1.747s5.14-9.676,1.747-14.034
			C37.177,359.121,20,309.03,20,256C20,125.869,125.869,20,256,20s236,105.869,236,236S386.131,492,256,492
			c-49.262,0-96.454-15.021-136.475-43.438c-4.506-3.198-10.747-2.138-13.943,2.364c-3.199,4.503-2.14,10.745,2.363,13.943
			C151.369,495.702,202.565,512,256,512c68.38,0,132.667-26.628,181.02-74.981C485.371,388.667,512,324.38,512,256
			S485.371,123.333,437.02,74.981z"/>
	</g>
</g>
<g>
	<g>
		<path d="M91.813,425.523l-0.301-0.292c-3.973-3.837-10.304-3.728-14.141,0.245c-3.837,3.972-3.728,10.303,0.244,14.14l0.301,0.292
			c1.941,1.875,4.445,2.808,6.947,2.808c2.617,0,5.232-1.021,7.194-3.053C95.894,435.691,95.785,429.36,91.813,425.523z"/>
	</g>
</g>
<g>
	<g>
		<path d="M408.788,277.541c-3.596-6.252-9.41-10.73-16.373-12.609c-6.96-1.877-14.235-0.932-20.489,2.661
			c-6.255,3.595-10.733,9.41-12.612,16.373C346.757,330.5,304.272,363,256,363c-48.266,0-90.746-32.5-103.304-79.035
			c-3.878-14.371-18.729-22.912-33.103-19.033c-6.963,1.88-12.777,6.357-16.372,12.61c-3.595,6.253-4.54,13.531-2.66,20.494
			C119.465,368.08,183.384,417,256,417c72.624,0,136.547-48.92,155.448-118.966C413.328,291.071,412.383,283.793,408.788,277.541z
			 M392.141,292.823C375.588,354.161,319.604,397,256,397c-63.597,0-119.576-42.839-136.131-104.175
			c-1.005-3.728,1.208-7.578,4.934-8.583c0.608-0.164,1.219-0.242,1.822-0.242c3.087,0,5.92,2.058,6.762,5.176
			C148.295,344.418,198.715,383,256,383c57.291,0,107.716-38.582,122.623-93.824c0.488-1.805,1.649-3.312,3.271-4.244
			c1.622-0.933,3.509-1.179,5.312-0.691c1.806,0.487,3.313,1.648,4.245,3.269C392.383,289.131,392.628,291.018,392.141,292.823z"/>
	</g>
</g>
<g>
	<g>
		<path d="M256.608,44.845L256,44.844c-5.522,0-10,4.477-10,10s4.478,10,10,10l0.558,0.001c0.008,0,0.017,0,0.026,0
			c5.511,0,9.985-4.461,9.999-9.975C266.596,49.347,262.13,44.859,256.608,44.845z"/>
	</g>
</g>
<g>
	<g>
		<path d="M390.745,93.417c-27.535-22.845-60.597-38.389-95.613-44.952c-5.423-1.017-10.653,2.558-11.671,7.986
			s2.558,10.654,7.987,11.671c31.68,5.939,61.601,20.008,86.527,40.688c1.866,1.549,4.13,2.304,6.379,2.304
			c2.873,0,5.724-1.232,7.703-3.615C395.583,103.248,394.996,96.943,390.745,93.417z"/>
	</g>
</g>
<g>
</g>
<g>
</g>
<g>
</g>
<g>
</g>
<g>
</g>
<g>
</g>
<g>
</g>
<g>
</g>
<g>
</g>
<g>
</g>
<g>
</g>
<g>
</g>
<g>
</g>
<g>
</g>
<g>
</g>
</svg>
