<?xml version="1.0" encoding="iso-8859-1"?>
<!-- Generator: Adobe Illustrator 19.0.0, SVG Export Plug-In . SVG Version: 6.00 Build 0)  -->
<svg version="1.1" id="Capa_1" xmlns="http://www.w3.org/2000/svg" xmlns:xlink="http://www.w3.org/1999/xlink" x="0px" y="0px"
	 viewBox="0 0 512.002 512.002" style="enable-background:new 0 0 512.002 512.002;" xml:space="preserve">
<g>
	<g>
		<path d="M35.059,249.109c-1.859-1.859-4.43-2.92-7.069-2.92c-2.631,0-5.211,1.061-7.07,2.92c-1.86,1.87-2.93,4.44-2.93,7.08
			c0,2.63,1.069,5.2,2.93,7.07c1.859,1.861,4.439,2.92,7.07,2.92c2.64,0,5.21-1.06,7.069-2.92c1.87-1.87,2.94-4.45,2.94-7.07
			C37.999,253.549,36.929,250.979,35.059,249.109z"/>
	</g>
</g>
<g>
	<g>
		<path d="M492.024,225.973c-3.657-3.868-7.719-7.211-12.173-10.021h0.987c4.995,0,9.225-3.687,9.906-8.635l7.497-54.398
			c0.395-2.863-0.469-5.757-2.368-7.936c-1.898-2.179-4.647-3.43-7.538-3.43H348.884c-4.812,0-8.94,3.426-9.828,8.154
			l-19.493,103.798c-0.502,2.671,0.105,5.431,1.682,7.645c1.263,1.774,3.061,3.075,5.107,3.729
			c-1.706,1.306-3.299,2.748-4.771,4.325c-7.646,8.195-11.688,19.651-11.688,33.131c0,0.275,0.023,0.554,0.028,0.83h-1.923V166.186
			c0-5.522-4.478-10-10-10h-53.912c-5.522,0-10,4.478-10,10v36h-21.906c-5.522,0-10,4.478-10,10v41c0,5.522,4.478,10,10,10h6.818v41
			H199.02v-54.331c0-6.279-1.023-18.459-7.88-29.482c-6.008-9.658-18.318-21.171-42.854-21.171
			c-18.667,0-32.533,6.419-42.308,13.802v-61.817c0-5.522-4.478-10-10-10H10c-5.522,0-10,4.478-10,10v42.021c0,5.522,4.478,10,10,10
			h7.994v15.979c0,5.522,4.478,10,10,10s10-4.478,10-10v-25.979c0-5.522-4.478-10-10-10H20v-22.021h65.979v78.006
			c0,4.639,3.189,8.668,7.704,9.732c4.52,1.069,9.169-1.115,11.241-5.263c0.122-0.244,12.579-24.46,43.362-24.46
			c25.401,0,30.733,16.669,30.733,30.653v64.331c0,5.522,4.478,10,10,10h9.002l0.001,10l0.001,9.973h-79.009l-0.003-20.992h4.949
			c5.522,0,10-4.478,10-10v-34.918c0-13.113-9.169-23.002-21.328-23.002c-12.256,0-24.663,10.497-24.663,30.562v27.358
			c0,5.522,4.478,10,10,10h1.042l0.003,20.992H20.005l-0.003-19.973h7.992c5.522,0,10-4.478,10-10v-23c0-5.522-4.478-10-10-10
			s-10,4.478-10,10v13H10c-2.652,0-5.196,1.054-7.071,2.93C1.053,308.989,0,311.533,0,314.186l0.006,39.973
			c0.001,5.521,4.478,9.998,10,9.998h303.998c2.652,0,5.196-1.054,7.071-2.93c1.876-1.875,2.929-4.419,2.929-7.071l-0.002-16.024
			c2.569,3.158,5.434,6.179,8.602,8.987c12.198,10.811,34.507,23.696,71.512,23.696c15.839,0,30.709-2.308,44.196-6.857
			c5.233-1.766,8.045-7.439,6.279-12.672c-1.766-5.233-7.438-8.045-12.672-6.279c-11.425,3.854-24.144,5.809-37.804,5.809
			c-30.734,0-48.639-10.149-58.247-18.664c-11.791-10.449-15.975-22.593-15.975-29.816c0-12.089,4.525-26.499,26.087-26.499
			c8.221,0,10.799,3.447,11.646,4.58c3.697,4.944,3.391,13.247,2.404,16.594c-2.377,8.069-1.353,15.634,2.886,21.301
			c3.077,4.115,9.297,9.02,21.452,9.02c21.181,0,33.054-20.507,35.424-40.831c2.623-22.492-7.167-39.351-24.943-42.949
			c-12.402-2.506-22.349,3.003-28.367,8.706l-35.347-5.265l16.045-85.438h119.683l-4.741,34.398h-76.588
			c-4.602,0-8.608,3.14-9.71,7.607l-4.331,17.577c-0.928,3.763,0.417,7.715,3.428,10.155c3.012,2.439,7.176,2.914,10.664,1.226
			c0.177-0.085,17.924-8.524,40.972-7.659c0.127,0.006,0.255,0.008,0.383,0.008c17.594,0,31.237,4.995,40.553,14.848
			c14.013,14.82,15.009,36.582,14.355,48.233c-0.211,3.766-0.854,7.561-1.908,11.279c-1.508,5.313,1.578,10.843,6.891,12.35
			c5.321,1.509,10.844-1.577,12.35-6.891c1.456-5.132,2.343-10.387,2.637-15.618C513.255,263.4,506.226,240.992,492.024,225.973z
			 M113.961,303.164h-5.991v-17.358c0-7.285,2.727-10.562,4.663-10.562c1.232,0,1.328,2.298,1.328,3.002V303.164z M254.086,176.185
			h33.912v26h-33.912V176.185z M218.024,344.156L218.024,344.156l-0.001-9.999l-0.001-9.973h10.977c5.522,0,10-4.478,10-10v-61
			c0-5.522-4.478-10-10-10h-6.818v-21h65.818v90.979c0,5.522,4.478,10,10,10h6.001l0.004,20.992H218.024z M388.599,268.636
			c0.508-0.683,5.353-6.882,12.283-5.484c10.424,2.11,9.559,16.63,9.046,21.03c-0.934,8.006-5.388,23.147-15.559,23.147
			c-3.634,0-5.19-0.751-5.423-0.979c-0.167-0.304-0.33-1.653,0.271-3.689c2.464-8.364,2.225-21.148-3.55-31.149
			C386.811,270.802,387.811,269.838,388.599,268.636z"/>
	</g>
</g>
<g>
	<g>
		<path d="M487.811,326.171c-3.862-3.945-10.194-4.015-14.142-0.154c-0.013,0.013-0.093,0.092-0.105,0.104l-0.028,0.028
			c-3.941,3.865-4.009,10.197-0.146,14.141c1.96,2.001,4.552,3.005,7.146,3.005c2.521,0,5.042-0.948,6.986-2.85l0.134-0.132
			C491.603,336.451,491.674,330.12,487.811,326.171z"/>
	</g>
</g>
<g>
</g>
<g>
</g>
<g>
</g>
<g>
</g>
<g>
</g>
<g>
</g>
<g>
</g>
<g>
</g>
<g>
</g>
<g>
</g>
<g>
</g>
<g>
</g>
<g>
</g>
<g>
</g>
<g>
</g>
</svg>
