<?xml version="1.0" encoding="iso-8859-1"?>
<!-- Generator: Adobe Illustrator 19.0.0, SVG Export Plug-In . SVG Version: 6.00 Build 0)  -->
<svg version="1.1" id="Capa_1" xmlns="http://www.w3.org/2000/svg" xmlns:xlink="http://www.w3.org/1999/xlink" x="0px" y="0px"
	 viewBox="0 0 512 512" style="enable-background:new 0 0 512 512;" xml:space="preserve">
<g>
	<g>
		<path d="M426.487,85.775c-3.907-3.905-10.237-3.905-14.143,0c-3.905,3.906-3.905,10.238,0,14.143
			c0.012,0.012,0.048,0.047,0.069,0.068c1.945,1.935,4.479,2.899,7.016,2.899c2.562,0,5.125-0.983,7.084-2.942
			C430.419,96.038,430.392,89.68,426.487,85.775z"/>
	</g>
</g>
<g>
	<g>
		<path d="M498.047,304.886c-2.56-5.39-3.511-11.325-2.75-17.164c1.535-11.775,2.207-23.792,1.996-35.717
			c-0.821-46.346-14.921-91.204-40.776-129.725c-3.077-4.585-9.29-5.808-13.876-2.73c-4.584,3.078-5.807,9.291-2.729,13.876
			c23.704,35.319,36.633,76.445,37.386,118.933c0.192,10.945-0.424,21.973-1.832,32.778c-1.258,9.662,0.303,19.458,4.516,28.329
			c8.099,17.054,12.142,35.35,12.016,54.38c-0.448,67.898-56.05,123.592-123.945,124.15c-19.197,0.15-37.555-3.903-54.704-12.068
			c-8.53-4.063-18.119-5.528-27.735-4.239c-9.773,1.311-19.736,1.976-29.612,1.976c-122.043,0-221.332-99.29-221.332-221.333
			c0-9.794,0.653-19.674,1.941-29.363c1.288-9.676-0.208-19.319-4.328-27.884c-8.258-17.17-12.388-35.612-12.279-54.813
			C20.393,76.024,76.236,20.276,144.487,20.001c19.112-0.12,37.482,4.052,54.581,12.272c8.831,4.245,18.609,5.828,28.268,4.575
			c10.779-1.397,21.774-2.008,32.684-1.812c42.619,0.763,83.85,13.77,119.236,37.617c4.58,3.086,10.794,1.877,13.882-2.704
			c3.086-4.58,1.875-10.794-2.704-13.881c-38.596-26.009-83.569-40.196-130.057-41.028c-11.889-0.213-23.866,0.452-35.613,1.975
			c-5.811,0.752-11.699-0.204-17.03-2.767C188.065,4.792,166.968,0,145.015,0c-0.202,0-0.406,0.001-0.607,0.001
			C65.235,0.32,0.456,64.989,0.004,144.156c-0.127,22.267,4.669,43.663,14.256,63.596c2.424,5.043,3.298,10.775,2.526,16.578
			c-1.404,10.561-2.116,21.328-2.116,32.001c0,64.462,25.103,125.066,70.685,170.648c45.581,45.582,106.185,70.685,170.647,70.685
			c10.762,0,21.62-0.725,32.272-2.154c5.762-0.772,11.456,0.083,16.477,2.474C324.288,507.287,345.217,512,366.975,512
			c0.414,0,0.829-0.002,1.24-0.004c78.76-0.647,143.26-65.253,143.781-144.018C512.142,345.911,507.448,324.684,498.047,304.886z"/>
	</g>
</g>
<g>
	<g>
		<path d="M387.665,289.448c-22.302-52.649-77.609-64.898-131.095-76.744c-8.46-1.874-17.208-3.811-25.723-5.886
			c-8.114-1.958-26.82-7.854-25.255-20.277c1.413-11.212,18.997-26.633,44.476-26.283c24.191,0.434,41.837,15.693,57.404,29.156
			c13.224,11.436,24.653,21.314,38.193,19.654c14.639-1.787,27.505-13.024,32.016-27.962c5.558-18.4-1.981-38.137-20.697-54.161
			c-34.901-29.775-76.851-41.314-132.037-36.319c-25.682,2.306-49.59,12.107-67.319,27.598
			c-20.243,17.688-32.339,42.347-34.979,71.28c-2.758,29.206,11.074,54.878,40,74.24c29.309,19.62,64.97,27.178,83.62,29.938
			c30.178,4.46,53.947,14.868,57.801,25.308c1.621,4.386-0.499,9.984-6.272,16.61c-22.672,25.832-68.879,10.003-82.292,1.616
			c-3.309-2.048-7.604-6.753-12.151-11.733c-11.428-12.517-27.051-29.665-49.687-28.2c-15.233,1.043-27.86,10.559-32.952,24.834
			c-6.735,18.882,0.66,40.871,19.793,58.828c27.211,25.48,56.873,41.557,115.624,41.557c6.039,0,12.394-0.17,19.074-0.518
			c0.002,0,0.003,0,0.005,0c42.801-2.241,84.014-25.33,104.994-58.822C395.063,339.444,397.715,313.27,387.665,289.448z
			 M363.258,352.545c-17.355,27.704-53.157,47.583-89.087,49.467c-64.899,3.371-93.141-10.523-119.983-35.657
			c-13.144-12.336-18.614-26.361-14.634-37.518c2.413-6.766,8.2-11.102,15.442-11.599c0.451-0.028,0.899-0.043,1.343-0.043
			c12.369,0,22.468,11.063,32.248,21.772c5.511,6.038,10.718,11.741,16.356,15.23c9.222,5.767,27.682,12.912,46.42,14.972
			c26.008,2.857,47.259-4.187,61.491-20.402c13.66-15.677,12.967-28.612,9.98-36.703c-9.616-26.046-54.701-35.368-73.638-38.167
			c-28.901-4.277-56.392-14.035-75.421-26.773c-22.765-15.238-33.267-33.991-31.21-55.771c4.967-54.452,46.739-77.445,84.181-80.808
			c50.146-4.539,86.308,5.21,117.246,31.604c12.586,10.776,17.752,22.558,14.546,33.175c-2.221,7.351-8.51,13.064-15.296,13.893
			c-4.79,0.557-14.279-7.659-22.686-14.929c-16.329-14.121-38.692-33.461-70.169-34.026c-15.526-0.218-30.854,4.202-43.034,12.437
			c-12.264,8.292-20.138,19.717-21.603,31.344c-0.93,7.392-0.768,32.281,40.386,42.213c8.697,2.119,17.549,4.08,26.111,5.976
			c50.769,11.244,98.724,21.865,116.997,65.004C378.778,319.833,371.251,339.786,363.258,352.545z"/>
	</g>
</g>
<g>
	<g>
		<path d="M58.602,134.065c-0.066-0.002-0.132-0.002-0.198-0.002c-5.431,0-9.889,4.351-9.994,9.806l-0.003,0.346
			c0,5.517,4.467,9.962,9.985,9.97c0.005,0,0.01,0,0.015,0c5.502,0,9.971-4.475,10-9.976
			C68.488,138.709,64.108,134.172,58.602,134.065z"/>
	</g>
</g>
<g>
	<g>
		<path d="M144.448,48.32c-0.014,0-0.027,0-0.041,0c-37.151,0.15-71.335,22.136-87.085,56.011
			c-2.329,5.008-0.156,10.955,4.852,13.284c1.364,0.635,2.798,0.935,4.209,0.935c3.771,0,7.381-2.143,9.074-5.787
			c12.498-26.88,39.593-44.325,69.03-44.443c5.523-0.022,9.982-4.518,9.96-10.04C154.425,52.77,149.952,48.32,144.448,48.32z"/>
	</g>
</g>
<g>
</g>
<g>
</g>
<g>
</g>
<g>
</g>
<g>
</g>
<g>
</g>
<g>
</g>
<g>
</g>
<g>
</g>
<g>
</g>
<g>
</g>
<g>
</g>
<g>
</g>
<g>
</g>
<g>
</g>
</svg>
