<?xml version="1.0" encoding="iso-8859-1"?>
<!-- Generator: Adobe Illustrator 19.0.0, SVG Export Plug-In . SVG Version: 6.00 Build 0)  -->
<svg version="1.1" id="Capa_1" xmlns="http://www.w3.org/2000/svg" xmlns:xlink="http://www.w3.org/1999/xlink" x="0px" y="0px"
	 viewBox="0 0 511.998 511.998" style="enable-background:new 0 0 511.998 511.998;" xml:space="preserve">
<g>
	<g>
		<g>
			<path d="M265.547,289.207c32.314,5.745,52.214,29.514,65.942,49.578c2.03,2.967,5.499,4.61,9.08,4.319
				c3.583-0.298,6.731-2.496,8.244-5.758c13.437-28.963,20.25-66.751,20.25-112.313c0-53.163-9.218-95.514-27.401-125.875
				c-21.805-36.412-55.696-54.874-100.73-54.874s-78.924,18.462-100.73,54.874c-18.181,30.36-27.4,72.711-27.4,125.875
				c0,53.163,9.218,95.514,27.4,125.875c21.805,36.411,55.696,54.873,100.73,54.873c13.107,0,25.459-1.613,36.713-4.795
				c2.909-0.822,5.289-2.916,6.476-5.696c1.188-2.779,1.054-5.946-0.364-8.616c-5.367-10.11-11.664-21.809-18.48-32.716
				c-18.536-29.657-40.186-38.481-55.084-40.662c-7.992-1.171-14.898-0.617-20.028,0.321l-5.703-12.223
				C195.922,294.334,223.448,281.725,265.547,289.207z M162.82,302.308l12.783,27.393c2.288,4.903,8.062,7.098,13.025,4.952
				c0.324-0.141,32.599-13.441,59.689,29.903c3.855,6.167,7.567,12.642,11.51,19.845c-6.006,0.917-12.325,1.38-18.895,1.38
				c-38.041,0-65.378-14.768-83.571-45.149c-16.297-27.212-24.56-66.106-24.56-115.599c0-49.495,8.263-88.388,24.56-115.6
				c18.193-30.38,45.53-45.149,83.571-45.149c38.042,0,65.378,14.769,83.574,45.148c16.297,27.213,24.56,66.107,24.56,115.6
				c0,34.408-4.031,63.817-12.003,87.713c-14.962-18.4-36.599-37.645-68.013-43.23c-65.613-11.663-102.242,19.711-103.768,21.052
				C161.944,293.498,160.941,298.282,162.82,302.308z"/>
			<path d="M78.266,89.914c2.683,0,5.362-1.069,7.336-3.176c0.001-0.002,0.046-0.049,0.047-0.05
				c3.773-4.033,3.562-10.362-0.471-14.135c-4.033-3.773-10.362-3.561-14.135,0.472l-0.086,0.091
				c-3.773,4.033-3.541,10.337,0.49,14.11C73.37,89.025,75.82,89.914,78.266,89.914z"/>
			<path d="M498.607,392.844c-1.88-1.923-4.457-3.006-7.146-3.006h-33.328c-5.023,0-9.268,3.727-9.916,8.709
				c-0.122,0.933-3.202,22.844-22.955,22.844c-13.204,0-24.223-11.615-34.114-25.734c51.078-42.866,80.181-104.536,80.181-170.624
				c0-60.155-23.997-116.697-67.569-159.209C360.254,23.377,302.427,0,240.932,0c-50.678,0-98.758,15.763-139.043,45.583
				c-4.439,3.286-5.373,9.548-2.087,13.987c3.285,4.439,9.549,5.372,13.987,2.087C150.604,34.405,194.569,20,240.932,20
				c116.014,0,210.398,91.978,210.398,205.03c0,62.933-29.052,121.498-79.707,160.679c-4.113,3.182-5.101,8.985-2.274,13.348
				c14.247,21.986,30.881,42.332,55.915,42.332c24.233,0,36.2-17.533,40.769-31.553h14.624c-1.024,8.951-3.318,22.313-8.405,33.995
				c-11.304,25.955-46.896,59.244-98.589,44.592c-26.06-7.386-46.214-25.549-67.393-60.732c-2.284-3.795-6.795-5.635-11.078-4.522
				c-17.639,4.576-35.894,6.895-54.259,6.895c-116.013,0-210.397-91.976-210.397-205.032c0-38.596,11.062-76.197,31.99-108.735
				c2.988-4.644,1.645-10.832-3.001-13.819c-4.646-2.99-10.832-1.644-13.819,3.001c-23.009,35.772-35.17,77.113-35.17,119.554
				c0,60.155,23.997,116.696,67.569,159.208c43.507,42.447,101.333,65.824,162.828,65.824c17.565,0,35.045-1.944,52.065-5.786
				c15.842,25.085,38.604,53.013,75.209,63.389c10.817,3.066,20.872,4.33,30.107,4.33c21.37-0.001,38.333-6.773,50.049-13.662
				c18.487-10.869,34.271-28.257,42.222-46.517c10.149-23.304,10.849-50.614,10.874-51.765
				C501.516,397.365,500.489,394.766,498.607,392.844z"/>
		</g>
	</g>
</g>
<g>
	<g>
		<path d="M420.986,164.834c-0.012-0.035-0.029-0.082-0.042-0.117c-1.823-5.212-7.527-7.96-12.742-6.135
			c-5.213,1.824-7.959,7.529-6.135,12.742c0.01,0.027,0.038,0.107,0.054,0.151c1.452,4.1,5.307,6.665,9.427,6.665
			c1.095,0,2.211-0.182,3.303-0.564C420.064,175.752,422.81,170.047,420.986,164.834z"/>
	</g>
</g>
<g>
	<g>
		<path d="M430.375,206.428c-0.567-5.493-5.474-9.491-10.974-8.921c-5.494,0.568-9.487,5.481-8.921,10.974
			c0.564,5.463,0.85,11.031,0.85,16.552c0,23.586-5.005,46.34-14.874,67.631c-2.323,5.01-0.145,10.956,4.866,13.278
			c1.362,0.632,2.792,0.93,4.199,0.93c3.775,0,7.388-2.147,9.08-5.797c11.1-23.946,16.729-49.531,16.729-76.043
			C431.33,218.829,431.009,212.57,430.375,206.428z"/>
	</g>
</g>
<g>
</g>
<g>
</g>
<g>
</g>
<g>
</g>
<g>
</g>
<g>
</g>
<g>
</g>
<g>
</g>
<g>
</g>
<g>
</g>
<g>
</g>
<g>
</g>
<g>
</g>
<g>
</g>
<g>
</g>
</svg>
