<?xml version="1.0" encoding="iso-8859-1"?>
<!-- Generator: Adobe Illustrator 19.0.0, SVG Export Plug-In . SVG Version: 6.00 Build 0)  -->
<svg version="1.1" id="Capa_1" xmlns="http://www.w3.org/2000/svg" xmlns:xlink="http://www.w3.org/1999/xlink" x="0px" y="0px"
	 viewBox="0 0 512 512" style="enable-background:new 0 0 512 512;" xml:space="preserve">
<g>
	<g>
		<path d="M446,0H66C29.607,0,0,29.607,0,66v380c0,36.393,29.607,66,66,66h380c36.393,0,66-29.607,66-66V66
			C512,29.607,482.393,0,446,0z M492,446c0,25.364-20.636,46-46,46H66c-25.364,0-46-20.636-46-46V66c0-25.364,20.636-46,46-46h380
			c25.364,0,46,20.636,46,46V446z"/>
	</g>
</g>
<g>
	<g>
		<g>
			<path d="M445,228c5.522,0,10-4.478,10-10V67c0-3.026-1.371-5.889-3.728-7.789c-2.357-1.898-5.445-2.628-8.404-1.982
				l-78.667,17.166c-4.594,1.003-7.868,5.07-7.868,9.771v96.202C336.073,164.678,311.977,157,283.287,157
				c-77.773,0-141.047,66.99-141.047,149.333s63.274,149.333,141.047,149.333c25.824,0,51.143-7.563,73.046-21.584V443
				c0,5.522,4.478,10,10,10H445c5.522,0,10-4.478,10-10V304.738c0-5.522-4.478-10-10-10c-5.522,0-10,4.478-10,10V433h-58.667
				v-18.883c0-3.921-2.291-7.48-5.86-9.103c-3.568-1.626-7.757-1.01-10.712,1.565c-21.509,18.757-48.668,29.087-76.474,29.087
				c-66.745,0-121.047-58.019-121.047-129.333S216.542,177,283.287,177c31.347,0,56.046,10.85,75.509,33.17
				c2.741,3.144,7.143,4.256,11.047,2.792c3.903-1.463,6.49-5.195,6.49-9.364V92.219L435,79.417V218
				C435,223.522,439.478,228,445,228z"/>
			<path d="M299.083,227.5c-42.596,0-77.25,34.654-77.25,77.25S256.487,382,299.083,382s77.25-34.654,77.25-77.25
				S341.679,227.5,299.083,227.5z M299.083,362c-31.567,0-57.25-25.683-57.25-57.25c0-31.567,25.683-57.25,57.25-57.25
				c31.567,0,57.25,25.683,57.25,57.25C356.333,336.317,330.65,362,299.083,362z"/>
		</g>
	</g>
</g>
<g>
	<g>
		<path d="M58,228c-5.522,0-10,4.478-10,10v81.5c0,5.522,4.478,10,10,10s10-4.477,10-10V238C68,232.478,63.522,228,58,228z"/>
	</g>
</g>
<g>
	<g>
		<path d="M58,182.5c-5.522,0-10,4.478-10,10v0.118c0,5.522,4.478,10,10,10s10-4.477,10-10V192.5C68,186.978,63.522,182.5,58,182.5z
			"/>
	</g>
</g>
<g>
	<g>
		<path d="M445,251.999c-5.522,0-10,4.478-10,10v0.254c0,5.522,4.478,10,10,10c5.522,0,10-4.477,10-10v-0.254
			C455,256.477,450.522,251.999,445,251.999z"/>
	</g>
</g>
<g>
</g>
<g>
</g>
<g>
</g>
<g>
</g>
<g>
</g>
<g>
</g>
<g>
</g>
<g>
</g>
<g>
</g>
<g>
</g>
<g>
</g>
<g>
</g>
<g>
</g>
<g>
</g>
<g>
</g>
</svg>
