<?xml version="1.0" encoding="iso-8859-1"?>
<!-- Generator: Adobe Illustrator 19.0.0, SVG Export Plug-In . SVG Version: 6.00 Build 0)  -->
<svg version="1.1" id="Capa_1" xmlns="http://www.w3.org/2000/svg" xmlns:xlink="http://www.w3.org/1999/xlink" x="0px" y="0px"
	 viewBox="0 0 512.001 512.001" style="enable-background:new 0 0 512.001 512.001;" xml:space="preserve">
<g>
	<g>
		<path d="M147.14,132.745c-1.87-1.861-4.439-2.93-7.08-2.93c-2.63,0-5.21,1.07-7.069,2.93c-1.861,1.86-2.931,4.44-2.931,7.07
			s1.071,5.21,2.931,7.069c1.859,1.861,4.439,2.931,7.069,2.931s5.21-1.07,7.08-2.931c1.86-1.859,2.92-4.439,2.92-7.069
			S149,134.605,147.14,132.745z"/>
	</g>
</g>
<g>
	<g>
		<path d="M368.101,5.853C366.476,2.288,362.919,0,359.001,0h-196c-4.852,0-9.003,3.483-9.848,8.26l-15.435,87.362
			c-0.961,5.439,2.669,10.627,8.107,11.588c5.444,0.955,10.626-2.67,11.588-8.107L171.389,20h165.67L129.126,259.206l12.524-70.885
			c0.961-5.44-2.669-10.627-8.107-11.588c-5.449-0.96-10.627,2.669-11.588,8.107l-18.802,106.419
			c-0.782,4.426,1.485,8.83,5.541,10.766c1.378,0.658,2.848,0.976,4.303,0.976c2.829-0.001,5.604-1.201,7.551-3.44l246-283
			C369.119,13.604,369.726,9.418,368.101,5.853z"/>
	</g>
</g>
<g>
	<g>
		<path d="M408.006,196.607c-1.669-3.455-5.168-5.651-9.005-5.651H264.334c-2.772,0-5.419,1.151-7.31,3.176L148.691,310.175
			c-2.717,2.912-3.449,7.157-1.862,10.81c1.587,3.653,5.19,6.015,9.172,6.015h56.743l-62.145,171.594
			c-1.669,4.609,0.248,9.747,4.527,12.137c1.534,0.857,3.21,1.27,4.869,1.27c2.969,0,5.883-1.321,7.838-3.783l112.043-141.129
			c3.434-4.325,2.711-10.616-1.614-14.05c-4.326-3.435-10.616-2.711-14.05,1.614l-73.943,93.139l46.135-127.387
			c1.11-3.065,0.656-6.478-1.216-9.147c-1.872-2.669-4.927-4.258-8.187-4.258h-47.984l89.662-96.043h109.615l-62.804,79.107
			c-3.434,4.325-2.711,10.616,1.614,14.05c4.325,3.434,10.617,2.711,14.05-1.614l75.679-95.327
			C409.219,204.169,409.675,200.062,408.006,196.607z"/>
	</g>
</g>
<g>
	<g>
		<path d="M305.291,320.835c-1.86-1.86-4.44-2.93-7.07-2.93c-2.64,0-5.21,1.071-7.08,2.93c-1.859,1.86-2.92,4.44-2.92,7.07
			s1.061,5.2,2.92,7.07c1.87,1.86,4.44,2.93,7.08,2.93c2.629,0,5.21-1.07,7.07-2.93c1.86-1.87,2.93-4.44,2.93-7.07
			S307.15,322.695,305.291,320.835z"/>
	</g>
</g>
<g>
</g>
<g>
</g>
<g>
</g>
<g>
</g>
<g>
</g>
<g>
</g>
<g>
</g>
<g>
</g>
<g>
</g>
<g>
</g>
<g>
</g>
<g>
</g>
<g>
</g>
<g>
</g>
<g>
</g>
</svg>
