<?xml version="1.0" encoding="iso-8859-1"?>
<!-- Generator: Adobe Illustrator 19.0.0, SVG Export Plug-In . SVG Version: 6.00 Build 0)  -->
<svg version="1.1" id="Capa_1" xmlns="http://www.w3.org/2000/svg" xmlns:xlink="http://www.w3.org/1999/xlink" x="0px" y="0px"
	 viewBox="0 0 512 512" style="enable-background:new 0 0 512 512;" xml:space="preserve">
<g>
	<g>
		<path d="M419.064,243.323l-24.31-74.816c-0.82-2.522-2.608-4.616-4.971-5.82c-2.362-1.203-5.107-1.419-7.63-0.601l-77.82,25.286
			V107c0-5.522-4.477-10-10-10h-78.667c-5.523,0-10,4.478-10,10v81.826l-76.438-24.837c-2.523-0.819-5.267-0.602-7.63,0.601
			c-2.363,1.204-4.151,3.298-4.971,5.82l-24.309,74.816c-0.819,2.523-0.603,5.266,0.601,7.63c1.204,2.364,3.298,4.152,5.82,4.971
			l77.82,25.285l-47.242,65.022c-3.246,4.468-2.256,10.722,2.212,13.968l63.643,46.239c1.775,1.29,3.832,1.911,5.87,1.911
			c3.092,0,6.142-1.43,8.098-4.124l48.096-66.198l47.241,65.022c1.559,2.145,3.906,3.584,6.526,3.999
			c2.621,0.415,5.296-0.228,7.442-1.787l63.643-46.239c2.145-1.558,3.584-3.906,3.999-6.525c0.415-2.62-0.228-5.296-1.787-7.442
			l-48.096-66.198l76.439-24.836c2.523-0.82,4.615-2.608,5.82-4.971C419.668,248.59,419.883,245.845,419.064,243.323z
			 M316.933,265.992c-3.044,0.989-5.431,3.376-6.42,6.421c-0.99,3.044-0.461,6.378,1.42,8.968l50.308,69.243l-47.462,34.483
			l-49.454-68.067c-1.882-2.59-4.889-4.122-8.09-4.122c-3.201,0-6.208,1.532-8.09,4.122l-50.308,69.243L151.375,351.8l49.455-68.068
			c1.881-2.59,2.409-5.924,1.42-8.968c-0.989-3.045-3.376-5.432-6.42-6.421l-81.4-26.448l18.129-55.795l80.018,26
			c3.045,0.988,6.379,0.46,8.968-1.421c2.589-1.881,4.122-4.889,4.122-8.09V117h58.667v84.135c0,3.201,1.533,6.209,4.122,8.09
			c2.59,1.883,5.923,2.408,8.968,1.421l81.399-26.449l18.129,55.796L316.933,265.992z"/>
	</g>
</g>
<g>
	<g>
		<path d="M437.525,422.638c-3.832-3.979-10.162-4.098-14.14-0.267c-0.046,0.044-0.101,0.098-0.152,0.15
			c-3.866,3.84-3.947,10.088-0.153,14.028c1.963,2.038,4.581,3.063,7.204,3.063c2.496,0,4.996-0.928,6.936-2.796
			c0.046-0.044,0.101-0.098,0.152-0.15C441.238,432.826,441.319,426.578,437.525,422.638z"/>
	</g>
</g>
<g>
	<g>
		<path d="M437.019,74.98C388.667,26.629,324.38,0,256,0S123.333,26.629,74.981,74.98C26.628,123.333,0,187.62,0,256
			s26.628,132.667,74.981,181.02C123.333,485.371,187.62,512,256,512c50.21,0,98.824-14.532,140.587-42.024
			c4.613-3.038,5.891-9.239,2.854-13.852c-3.037-4.613-9.237-5.891-13.851-2.854C347.102,478.607,302.29,492,256,492
			C125.869,492,20,386.131,20,256S125.869,20,256,20s236,105.869,236,236c0,48.187-14.424,94.527-41.713,134.012
			c-3.14,4.543-2.002,10.771,2.541,13.912c4.542,3.141,10.772,2.003,13.912-2.541C496.349,358.541,512,308.269,512,256
			C512,187.62,485.372,123.333,437.019,74.98z"/>
	</g>
</g>
<g>
	<g>
		<path d="M201.663,60.863c-1.747-5.239-7.41-8.069-12.649-6.325c-0.016,0.006-0.12,0.04-0.136,0.046
			c-5.222,1.77-7.982,7.417-6.225,12.643c1.403,4.175,5.321,6.803,9.507,6.803c1.054,0,2.126-0.166,3.178-0.518
			C200.578,71.765,203.41,66.102,201.663,60.863z"/>
	</g>
</g>
<g>
	<g>
		<path d="M166.877,74.118c-2.676-4.832-8.763-6.578-13.593-3.901c-28.003,15.513-52.556,37.575-71.004,63.804
			c-3.177,4.517-2.091,10.755,2.426,13.933c1.75,1.23,3.757,1.821,5.745,1.821c3.145,0,6.241-1.479,8.187-4.249
			c16.718-23.767,38.965-43.759,64.337-57.815C167.806,85.035,169.553,78.949,166.877,74.118z"/>
	</g>
</g>
<g>
</g>
<g>
</g>
<g>
</g>
<g>
</g>
<g>
</g>
<g>
</g>
<g>
</g>
<g>
</g>
<g>
</g>
<g>
</g>
<g>
</g>
<g>
</g>
<g>
</g>
<g>
</g>
<g>
</g>
</svg>
