<?xml version="1.0" encoding="iso-8859-1"?>
<!-- Generator: Adobe Illustrator 19.0.0, SVG Export Plug-In . SVG Version: 6.00 Build 0)  -->
<svg version="1.1" id="Capa_1" xmlns="http://www.w3.org/2000/svg" xmlns:xlink="http://www.w3.org/1999/xlink" x="0px" y="0px"
	 viewBox="0 0 512 512" style="enable-background:new 0 0 512 512;" xml:space="preserve">
<g>
	<g>
		<path d="M506.882,61.741c-0.006-0.019-0.014-0.036-0.019-0.055c-5.816-16.617-16.27-31.072-29.806-41.805
			c-0.26-0.225-0.528-0.434-0.805-0.628C460.688,7.191,441.169,0,420,0H92C41.271,0,0,41.271,0,92v328c0,50.729,41.271,92,92,92h328
			c50.729,0,92-41.271,92-92V92C512,81.404,510.193,71.223,506.882,61.741z M415.895,19.999H420
			c12.212,0.001,23.718,3.067,33.805,8.454l-66.6,56.151c-2.255,1.901-3.556,4.701-3.554,7.65c0.001,2.95,1.305,5.748,3.563,7.647
			L458.647,160h-47.334l-80.54-67.758l83.339-70.264C414.811,21.388,415.4,20.718,415.895,19.999z M348.295,19.999h37.135
			l-76.627,64.604c-2.255,1.901-3.556,4.701-3.554,7.65c0.001,2.95,1.305,5.748,3.562,7.647l71.435,60.1h-36.532l-80.541-67.758
			l83.339-70.264C347.211,21.388,347.8,20.718,348.295,19.999z M269.895,19.999h47.937l-76.627,64.604
			c-2.255,1.901-3.556,4.701-3.554,7.65c0.001,2.95,1.305,5.748,3.563,7.647l71.434,60.1h-47.335l-80.54-67.758l83.339-70.264
			C268.811,21.388,269.4,20.718,269.895,19.999z M150,20h19.51L150,36.449V20z M150,62.609l48.192-40.63
			c0.699-0.59,1.288-1.26,1.783-1.979h39.456l-76.627,64.604c-2.255,1.901-3.556,4.701-3.554,7.65
			c0.001,2.95,1.305,5.748,3.562,7.647L234.246,160h-38.852L150,121.81V62.609z M150,147.947L164.326,160H150V147.947z M20,92
			c0-39.701,32.299-72,72-72h38v140H20V92z M492,420c0,39.701-32.299,72-72,72H92c-39.701,0-72-32.299-72-72V180h472V420z M492,160
			h-2.286l-80.541-67.758l61.212-51.608c6.166,6.048,11.243,13.192,14.928,21.114l-27.11,22.856
			c-2.255,1.901-3.556,4.701-3.554,7.65c0.001,2.95,1.305,5.748,3.563,7.647L492,128.328V160z M492,102.192l-11.827-9.95
			l11.217-9.458C491.778,85.805,492,88.876,492,92V102.192z"/>
	</g>
</g>
<g>
	<g>
		<path d="M84,59h-0.094c-5.523,0-9.953,4.478-9.953,10S78.477,79,84,79s10-4.478,10-10C94,63.478,89.523,59,84,59z"/>
	</g>
</g>
<g>
	<g>
		<path d="M84,117h-0.094c-5.523,0-9.953,4.478-9.953,10c0,5.522,4.524,10,10.047,10s10-4.478,10-10C94,121.478,89.523,117,84,117z"
			/>
	</g>
</g>
<g>
	<g>
		<path d="M249,229.5H124c-5.523,0-10,4.478-10,10v163.75c0,5.522,4.477,10,10,10h51.25c5.523,0,10-4.478,10-10V353.5h53.5
			c5.523,0,10-4.478,10-10v-36c0-5.522-4.477-10-10-10H185v-12h64c5.523,0,10-4.478,10-10v-36C259,233.978,254.523,229.5,249,229.5z
			 M239,265.5h-64c-5.523,0-10,4.478-10,10v32c0,5.522,4.477,10,10,10h53.75v16h-53.5c-5.523,0-10,4.478-10,10v49.75H134V249.5h105
			V265.5z"/>
	</g>
</g>
<g>
	<g>
		<path d="M426.017,399.703l-20.095-52.93c-1.96-5.163-7.732-7.76-12.898-5.8c-5.163,1.96-7.76,7.734-5.8,12.897l14.95,39.379
			h-31.236l-6.194-20.626c-1.27-4.229-5.163-7.124-9.578-7.124h-57.083c-4.395,0-8.274,2.869-9.562,7.071l-6.334,20.679h-29.403
			L306.92,249.5h40.68l13.781,36.299c1.96,5.163,7.733,7.76,12.898,5.8c5.163-1.96,7.76-7.734,5.8-12.897l-16.23-42.75
			c-1.475-3.884-5.196-6.451-9.349-6.451H300c-4.164,0-7.891,2.579-9.358,6.476l-61.667,163.75
			c-1.157,3.072-0.732,6.516,1.135,9.215c1.867,2.699,4.941,4.31,8.223,4.31h51.25c4.395,0,8.274-2.869,9.562-7.071l6.334-20.679
			h42.25l6.194,20.626c1.27,4.229,5.163,7.124,9.578,7.124h53.167c3.287,0,6.364-1.615,8.231-4.32
			C426.766,406.226,427.184,402.776,426.017,399.703z"/>
	</g>
</g>
<g>
	<g>
		<path d="M390.82,309.476c-1.86-1.87-4.44-2.931-7.07-2.931s-5.21,1.061-7.07,2.931c-1.86,1.859-2.93,4.429-2.93,7.069
			c0,2.63,1.07,5.2,2.93,7.07c1.86,1.86,4.44,2.93,7.07,2.93s5.21-1.069,7.07-2.93c1.86-1.861,2.93-4.44,2.93-7.07
			C393.75,313.905,392.68,311.335,390.82,309.476z"/>
	</g>
</g>
<g>
	<g>
		<path d="M354.307,337.184l-17.813-57.875c-1.29-4.196-5.167-7.059-9.557-7.059s-8.266,2.863-9.558,7.059l-17.813,57.875
			c-0.934,3.033-0.372,6.329,1.514,8.882c1.885,2.553,4.87,4.06,8.044,4.06h35.625c3.174,0,6.159-1.507,8.044-4.06
			C354.679,343.513,355.24,340.217,354.307,337.184z M322.666,330.125l4.272-13.88l4.272,13.88H322.666z"/>
	</g>
</g>
<g>
	<g>
		<path d="M54,309.736c-5.523,0-10,4.478-10,10v83.5c0,5.522,4.477,10,10,10s10-4.478,10-10v-83.5
			C64,314.214,59.523,309.736,54,309.736z"/>
	</g>
</g>
<g>
	<g>
		<path d="M54,266.236c-5.523,0-10,4.478-10,10v0.118c0,5.522,4.477,10,10,10s10-4.478,10-10v-0.118
			C64,270.714,59.523,266.236,54,266.236z"/>
	</g>
</g>
<g>
</g>
<g>
</g>
<g>
</g>
<g>
</g>
<g>
</g>
<g>
</g>
<g>
</g>
<g>
</g>
<g>
</g>
<g>
</g>
<g>
</g>
<g>
</g>
<g>
</g>
<g>
</g>
<g>
</g>
</svg>
