<?xml version="1.0" encoding="iso-8859-1"?>
<!-- Generator: Adobe Illustrator 19.0.0, SVG Export Plug-In . SVG Version: 6.00 Build 0)  -->
<svg version="1.1" id="Capa_1" xmlns="http://www.w3.org/2000/svg" xmlns:xlink="http://www.w3.org/1999/xlink" x="0px" y="0px"
	 viewBox="0 0 512 512" style="enable-background:new 0 0 512 512;" xml:space="preserve">
<g>
	<g>
		<path d="M380.605,75.317l-0.078-0.079c-3.869-3.941-10.2-3.999-14.142-0.132c-3.942,3.869-4.001,10.201-0.132,14.142
			c0.006,0.007,0.076,0.077,0.083,0.085c1.958,1.991,4.544,2.989,7.132,2.989c2.528,0,5.058-0.953,7.005-2.863
			C384.415,85.59,384.474,79.258,380.605,75.317z"/>
	</g>
</g>
<g>
	<g>
		<path d="M410.648,109.88c-3.348-4.392-9.622-5.24-14.015-1.892c-4.392,3.348-5.24,9.622-1.892,14.015
			C434.245,173.836,456,234.208,456,292c0,110.28-89.72,200-200,200S56,402.28,56,292c0-50.047,23.517-88.298,43.245-111.574
			c14.158-16.704,28.898-28.82,38.866-35.845c1.66,22.6,5.472,50.699,26.502,70.67c2.132,2.025,5.045,3.009,7.972,2.689
			c34.712-3.792,61.638-30.475,74.599-46.042c31.057-37.303,36.635-70.827,33.306-145.617c19.744,10.097,38.616,22.31,56.271,36.427
			c4.313,3.451,10.605,2.749,14.055-1.564c3.449-4.314,2.748-10.607-1.565-14.056c-23.378-18.693-48.783-34.242-75.51-46.214
			c-3.185-1.427-6.883-1.09-9.757,0.888c-2.875,1.979-4.51,5.313-4.315,8.797c4.902,87.687-0.304,115.452-27.854,148.543
			c-10.399,12.491-31.123,33.363-56.692,38.25c-14.667-16.742-16.196-40.419-17.554-61.469c-0.193-2.991-0.381-5.892-0.6-8.67
			c-0.41-5.201-4.751-9.213-9.969-9.213c-1.634,0-6.606,0-23.969,12.814c-8.823,6.51-22.236,17.554-36.031,33.197
			C63.734,190.392,36,234.012,36,292c0,58.764,22.884,114.011,64.437,155.563C141.989,489.116,197.236,512,256,512
			c58.764,0,114.011-22.883,155.563-64.437C453.116,406.011,476,350.764,476,292C476,229.854,452.791,165.176,410.648,109.88z"/>
	</g>
</g>
<g>
	<g>
		<path d="M173.713,425.882c-27.845-17.153-50.117-43.164-62.711-73.241c-2.133-5.094-7.992-7.494-13.086-5.361
			s-7.495,7.992-5.362,13.086c14.195,33.902,39.294,63.217,70.67,82.546c1.634,1.007,3.446,1.486,5.235,1.486
			c3.356,0,6.634-1.689,8.524-4.756C179.879,434.94,178.416,428.779,173.713,425.882z"/>
	</g>
</g>
<g>
	<g>
		<path d="M101.021,318.046c-0.008-0.053-0.021-0.135-0.03-0.188c-0.908-5.448-6.063-9.128-11.508-8.221
			c-5.417,0.903-9.087,6.003-8.235,11.417c0.762,4.938,5.017,8.477,9.871,8.477c0.493,0,0.993-0.036,1.496-0.112
			C98.077,328.6,101.84,323.508,101.021,318.046z"/>
	</g>
</g>
<g>
</g>
<g>
</g>
<g>
</g>
<g>
</g>
<g>
</g>
<g>
</g>
<g>
</g>
<g>
</g>
<g>
</g>
<g>
</g>
<g>
</g>
<g>
</g>
<g>
</g>
<g>
</g>
<g>
</g>
</svg>
