<?xml version="1.0" encoding="iso-8859-1"?>
<!-- Generator: Adobe Illustrator 19.0.0, SVG Export Plug-In . SVG Version: 6.00 Build 0)  -->
<svg version="1.1" id="Capa_1" xmlns="http://www.w3.org/2000/svg" xmlns:xlink="http://www.w3.org/1999/xlink" x="0px" y="0px"
	 viewBox="0 0 512 512" style="enable-background:new 0 0 512 512;" xml:space="preserve">
<g>
	<g>
		<g>
			<path d="M131.482,423.988c-0.034,0-0.069,0-0.104,0.001l-1.097,0.008c-5.522,0.029-9.977,4.529-9.949,10.051
				c0.028,5.506,4.5,9.949,9.999,9.949c0.018,0,0.034,0,0.052,0l1.2-0.01c5.522-0.056,9.953-4.58,9.896-10.102
				C141.423,428.398,136.958,423.988,131.482,423.988z"/>
			<path d="M136.843,241.403c-15.912-3.72-30.94-7.233-41.154-11.969c-12.335-5.72-12.335-10.705-12.335-13.101
				c0-19.683,19.372-26.666,35.961-26.666c26.525,0,37.483,5.954,48.854,26.543c5.72,10.356,16.694,16.79,28.641,16.79h39.21
				c2.665,0,5.22-1.063,7.097-2.955c1.878-1.89,2.923-4.453,2.903-7.118c-0.008-1.043-0.356-25.829-15.155-50.706
				c-13.72-23.063-42.699-50.554-102.845-50.554c-46.026,0-80.019,12.046-101.035,35.804C3.542,183.969,4.567,215.776,6.095,228.22
				c7.355,59.875,66.569,75.817,114.149,88.628c37.193,10.013,59.776,17.219,59.776,32.82c0,23.09-31.994,25.583-45.75,25.583
				c-21.381,0-37.122-6.355-46.787-18.887c-7.31-9.48-8.508-19.323-8.512-19.347C78.466,331.899,74.163,328,69.02,328h-55
				c-5.522,0-10,4.478-10,10c0,47.811,25.338,82.566,71.347,97.867c5.238,1.739,10.902-1.093,12.645-6.334
				c1.742-5.241-1.093-10.902-6.334-12.645C57.226,408.757,28.408,390.22,24.473,348h36.55c1.634,5.349,4.584,12.436,9.863,19.572
				c9.342,12.627,27.921,27.678,63.383,27.678c17.475,0,32.593-3.257,43.72-9.419c14.412-7.98,22.03-20.486,22.03-36.164
				c0-14.895-8.577-26.883-25.492-35.632c-13.249-6.853-30.655-11.539-49.085-16.501c-43.96-11.836-93.785-25.251-99.497-71.753
				c-1.199-9.757-2.037-34.652,16.018-55.06c17.056-19.28,46.01-29.055,86.057-29.055c76.217,0,93.161,49.472,96.926,71.333H196.81
				c-4.667,0-8.933-2.475-11.133-6.458c-14.844-26.881-32.831-36.875-66.362-36.875c-32.949,0-55.961,19.189-55.961,46.666
				c0,28.429,33.486,36.257,68.936,44.545c47.709,11.154,101.783,23.794,101.783,81.227c0,41.841-21.533,67.986-64.002,77.711
				c-5.383,1.233-8.748,6.596-7.516,11.98c1.061,4.632,5.179,7.771,9.739,7.77c0.738,0,1.49-0.082,2.241-0.253
				c25.901-5.931,45.907-17.462,59.46-34.274c13.322-16.527,20.077-37.7,20.077-62.933
				C254.072,268.809,186.316,252.969,136.843,241.403z"/>
		</g>
	</g>
</g>
<g>
	<g>
		<path d="M507.48,195.862c-1.35-4.103-5.181-6.876-9.5-6.876h-74.335c-5.522,0-10,4.478-10,10c0,5.522,4.478,10,10,10h43.926
			l-133.526,98.468c-3.434,2.533-4.883,6.968-3.606,11.041l49.419,157.548l-101.253-73.847c3.627-7.099,6.053-13.956,7.671-19.806
			l31.091,24.024c3.459,2.673,8.255,2.789,11.84,0.285c3.585-2.503,5.128-7.046,3.809-11.214l-28.84-91.171l79.229-58.257
			c3.481-2.561,4.925-7.068,3.578-11.174c-1.348-4.107-5.181-6.883-9.502-6.883h-95.244c-2.293-46.447-20.338-75.706-35.637-92.385
			c-10.558-11.511-21.207-18.691-28.376-22.724l23.905-71.714l55.395,161.06c1.389,4.037,5.186,6.747,9.456,6.747h40.665
			c5.522,0,10-4.478,10-10c0-5.522-4.478-10-10-10h-33.529L251.436,6.747C250.047,2.709,246.248,0,241.98,0
			c-0.016,0-0.031,0-0.048,0c-4.286,0.021-8.083,2.771-9.439,6.838l-36,108c-1.687,5.065,0.945,10.579,5.924,12.506
			c0.152,0.059,15.292,6.042,30.136,22.552c19.859,22.088,29.928,51.731,29.928,88.104c0,5.522,4.478,10,10,10h74.52l-60.443,44.445
			c-3.45,2.537-4.902,6.989-3.61,11.072l21.361,67.531l-18.713-14.46c-2.926-2.262-6.865-2.704-10.234-1.182
			c-3.371,1.523-5.626,4.801-5.861,8.492c-0.012,0.181-1.287,18.327-12.435,35.702c-2.858,4.453-1.752,10.362,2.523,13.479l133,97
			c1.755,1.28,3.824,1.921,5.893,1.921c2.043,0,4.086-0.625,5.828-1.876c3.508-2.515,5.005-6.999,3.713-11.118l-56.365-179.692
			l152.258-112.28C507.391,204.47,508.829,199.966,507.48,195.862z"/>
	</g>
</g>
<g>
	<g>
		<path d="M393.051,191.91c-1.859-1.861-4.439-2.931-7.069-2.931s-5.21,1.071-7.07,2.931c-1.861,1.859-2.93,4.439-2.93,7.069
			s1.07,5.21,2.93,7.08c1.86,1.86,4.44,2.92,7.07,2.92c2.629,0,5.21-1.059,7.069-2.92c1.861-1.87,2.931-4.439,2.931-7.08
			C395.982,196.349,394.911,193.769,393.051,191.91z"/>
	</g>
</g>
<g>
</g>
<g>
</g>
<g>
</g>
<g>
</g>
<g>
</g>
<g>
</g>
<g>
</g>
<g>
</g>
<g>
</g>
<g>
</g>
<g>
</g>
<g>
</g>
<g>
</g>
<g>
</g>
<g>
</g>
</svg>
