<?xml version="1.0" encoding="iso-8859-1"?>
<!-- Generator: Adobe Illustrator 19.0.0, SVG Export Plug-In . SVG Version: 6.00 Build 0)  -->
<svg version="1.1" id="Capa_1" xmlns="http://www.w3.org/2000/svg" xmlns:xlink="http://www.w3.org/1999/xlink" x="0px" y="0px"
	 viewBox="0 0 512.002 512.002" style="enable-background:new 0 0 512.002 512.002;" xml:space="preserve">
<g>
	<g>
		<path d="M356.217,54.28l-0.121-0.123c-3.882-3.929-10.184-3.935-14.111-0.054c-3.929,3.882-3.937,10.244-0.055,14.173l0.061,0.062
			c1.956,1.979,4.534,2.971,7.114,2.971c2.54,0,5.08-0.962,7.028-2.887C360.061,64.54,360.099,58.209,356.217,54.28z"/>
	</g>
</g>
<g>
	<g>
		<path d="M511.859,380.669c-0.782-5.717-4.649-10.458-10.091-12.373l-5.365-1.888c-41.95-14.765-75.763-44.924-95.209-84.921
			c-0.736-1.516-1.126-3.208-1.126-4.894c0-4.495,2.673-8.538,6.81-10.298l37.628-16.012c13.935-5.93,20.643-22.172,14.953-36.207
			c-5.418-13.363-20.297-20.028-33.875-15.174c-10.404,3.719-23.684,8.472-31.495,11.281c-0.713,0.257-1.491,0.109-2.079-0.391
			l-0.127-0.108c-0.392-0.333-0.616-0.819-0.616-1.334l0.019-68.437c0.005-18.458-4.011-36.197-11.936-52.725
			c-2.388-4.979-8.362-7.08-13.341-4.693c-4.98,2.388-7.081,8.361-4.693,13.341c6.62,13.805,9.974,28.633,9.97,44.071l-0.019,68.437
			c-0.001,6.387,2.787,12.425,7.645,16.563l0.126,0.108c6.027,5.133,14.387,6.662,21.819,3.988
			c7.802-2.807,21.067-7.553,31.459-11.269c3.449-1.235,7.231,0.461,8.607,3.856c1.617,3.989-0.29,8.605-4.25,10.29l-37.628,16.012
			c-11.529,4.907-18.979,16.172-18.979,28.702c0,4.699,1.085,9.415,3.139,13.639c21.149,43.499,57.48,76.6,102.598,93.6
			c-8.526,4.46-21.572,9.491-39.688,11.811c-9.341,1.196-17.202,7.765-20.028,16.734l-5.643,17.914
			c-0.014,0.042-0.058,0.07-0.1,0.06l-31.509-5.77c-15.827-2.898-31.982,0.327-45.485,9.085l-50.425,32.707
			c-7.828,5.076-16.897,7.76-26.226,7.76h-21.4c-9.329,0-18.398-2.683-26.225-7.76l-50.426-32.707
			c-13.503-8.758-29.656-11.984-45.484-9.085l-31.508,5.77c-0.043,0.009-0.086-0.018-0.1-0.061l-5.643-17.913
			c-2.825-8.969-10.687-15.538-20.028-16.734c-18.116-2.32-31.163-7.351-39.688-11.812c45.118-16.999,81.449-50.1,102.597-93.599
			c2.055-4.224,3.14-8.941,3.14-13.639c0-12.53-7.45-23.796-18.979-28.702L75.327,231.88c-3.961-1.685-5.867-6.301-4.25-10.289
			c1.377-3.396,5.157-5.088,8.607-3.857c10.392,3.716,23.656,8.463,31.459,11.27c7.431,2.673,15.792,1.143,21.823-3.992l0.118-0.101
			c4.863-4.141,7.651-10.179,7.649-16.567l-0.019-68.437c-0.007-27.253,10.6-52.877,29.868-72.15
			c19.268-19.274,44.889-29.888,72.142-29.888h26.549c15.981,0,31.277,3.588,45.464,10.664c4.941,2.464,10.947,0.457,13.412-4.485
			c2.465-4.942,0.457-10.947-4.485-13.412c-16.985-8.472-35.285-12.767-54.391-12.767h-26.549c-32.596,0-63.24,12.695-86.286,35.748
			c-23.046,23.052-35.733,53.699-35.724,86.296l0.019,68.437c0,0.515-0.224,1.001-0.62,1.338l-0.119,0.101
			c-0.591,0.504-1.37,0.651-2.082,0.395c-7.811-2.81-21.091-7.562-31.495-11.282c-13.579-4.855-28.457,1.811-33.875,15.175
			c-5.689,14.035,1.019,30.277,14.954,36.207l37.628,16.012c4.137,1.76,6.81,5.802,6.81,10.298c0,1.686-0.389,3.379-1.126,4.894
			c-19.445,39.997-53.258,70.156-95.209,84.921l-5.363,1.888c-5.443,1.915-9.309,6.656-10.092,12.373
			c-0.781,5.707,1.665,11.303,6.382,14.603c10.322,7.221,28.558,16.589,56.82,20.208c1.631,0.209,3.002,1.35,3.492,2.906
			l5.643,17.913c3.038,9.645,12.828,15.545,22.778,13.724l31.509-5.77c10.788-1.978,21.797,0.223,30.999,6.191l50.426,32.707
			c11.075,7.184,23.907,10.981,37.108,10.981h21.4c13.201,0,26.033-3.797,37.11-10.981l50.425-32.706
			c9.203-5.968,20.213-8.166,30.999-6.192l31.509,5.77c9.946,1.82,19.739-4.079,22.778-13.724l5.643-17.914
			c0.49-1.555,1.861-2.696,3.492-2.905c28.261-3.619,46.498-12.987,56.819-20.208C510.194,391.972,512.64,386.376,511.859,380.669z"
			/>
	</g>
</g>
<g>
	<g>
		<path d="M151.195,328.529c-4.541-3.144-10.771-2.012-13.915,2.528c-9.635,13.914-20.987,26.737-33.74,38.112
			c-2.79,2.489-5.675,4.931-8.574,7.262c-4.305,3.46-4.99,9.754-1.53,14.059c1.976,2.458,4.875,3.736,7.801,3.736
			c2.198,0,4.411-0.722,6.259-2.206c3.165-2.544,6.313-5.21,9.357-7.925c13.932-12.427,26.337-26.441,36.87-41.651
			C156.867,337.903,155.735,331.673,151.195,328.529z"/>
	</g>
</g>
<g>
	<g>
		<path d="M167.326,297.867c-4.955-2.4-10.93-0.329-13.353,4.616c-0.012,0.025-0.041,0.086-0.053,0.11
			c-2.383,4.965-0.295,10.904,4.66,13.307c1.401,0.679,2.883,1.001,4.344,1.001c3.705,0,7.271-2.07,9.009-5.617
			c0.012-0.025,0.041-0.086,0.053-0.11C174.369,306.209,172.281,300.27,167.326,297.867z"/>
	</g>
</g>
<g>
</g>
<g>
</g>
<g>
</g>
<g>
</g>
<g>
</g>
<g>
</g>
<g>
</g>
<g>
</g>
<g>
</g>
<g>
</g>
<g>
</g>
<g>
</g>
<g>
</g>
<g>
</g>
<g>
</g>
</svg>
