<?xml version="1.0" encoding="iso-8859-1"?>
<!-- Generator: Adobe Illustrator 19.0.0, SVG Export Plug-In . SVG Version: 6.00 Build 0)  -->
<svg version="1.1" id="Capa_1" xmlns="http://www.w3.org/2000/svg" xmlns:xlink="http://www.w3.org/1999/xlink" x="0px" y="0px"
	 viewBox="0 0 512.003 512.003" style="enable-background:new 0 0 512.003 512.003;" xml:space="preserve">
<g>
	<g>
		<path d="M375.882,119.676l-0.794-0.487c-4.709-2.892-10.865-1.415-13.754,3.291c-2.89,4.707-1.416,10.865,3.291,13.754
			l0.794,0.487c1.632,1.002,3.439,1.479,5.222,1.479c3.362,0,6.644-1.694,8.532-4.77
			C382.063,128.723,380.589,122.565,375.882,119.676z"/>
	</g>
</g>
<g>
	<g>
		<path d="M511.743,206.631c-0.606-2.604-2.229-4.857-4.506-6.256l-97.618-59.973c-4.706-2.891-10.864-1.419-13.755,3.286
			s-1.42,10.864,3.286,13.755l88.994,54.675l-31.768,50.34l-27.516-17.51c-3.08-1.96-6.982-2.085-10.182-0.329
			c-3.2,1.756-5.188,5.117-5.188,8.766v190.857H102.437V250.888c0-3.65-1.989-7.01-5.188-8.766c-3.199-1.757-7.1-1.631-10.182,0.329
			l-31.441,20.008l-31.768-50.34l73.813-45.348c2.961-1.82,4.766-5.045,4.766-8.521V67.763h54.585v44.664
			c0,3.622,1.958,6.96,5.119,8.728c3.159,1.768,7.03,1.69,10.115-0.207L256,69.499l63.363,38.928
			c4.708,2.892,10.865,1.42,13.755-3.286c2.891-4.705,1.42-10.863-3.286-13.755l-68.597-42.144c-3.211-1.973-7.258-1.973-10.469,0
			l-73.744,45.306V57.763c0-5.522-4.478-10-10-10H92.437c-5.522,0-10,4.478-10,10v94.894L4.766,200.375
			c-2.277,1.4-3.9,3.652-4.506,6.256s-0.144,5.341,1.283,7.602l42.526,67.388c1.419,2.248,3.675,3.839,6.27,4.421
			c2.592,0.579,5.313,0.107,7.557-1.321l24.541-15.617v185.137c0,5.522,4.478,10,10,10h331.052c5.523,0,10-4.477,10-9.999v-182.64
			l20.618,13.12c2.244,1.427,4.964,1.901,7.557,1.321c2.595-0.582,4.851-2.173,6.27-4.421l42.526-67.389
			C511.887,211.972,512.348,209.235,511.743,206.631z"/>
	</g>
</g>
<g>
	<g>
		<path d="M140.438,309.252c-5.522,0-10,4.478-10,10v73.279c0,5.522,4.478,10,10,10c5.522,0,10-4.478,10-10.001v-73.278
			C150.438,313.73,145.96,309.252,140.438,309.252z"/>
	</g>
</g>
<g>
	<g>
		<path d="M140.438,265.752c-5.522,0-10,4.478-10,10v0.118c0,5.522,4.478,10,10,10c5.522,0,10-4.477,10-10v-0.118
			C150.438,270.23,145.96,265.752,140.438,265.752z"/>
	</g>
</g>
<g>
</g>
<g>
</g>
<g>
</g>
<g>
</g>
<g>
</g>
<g>
</g>
<g>
</g>
<g>
</g>
<g>
</g>
<g>
</g>
<g>
</g>
<g>
</g>
<g>
</g>
<g>
</g>
<g>
</g>
</svg>
