<?xml version="1.0" encoding="iso-8859-1"?>
<!-- Generator: Adobe Illustrator 19.0.0, SVG Export Plug-In . SVG Version: 6.00 Build 0)  -->
<svg version="1.1" id="Capa_1" xmlns="http://www.w3.org/2000/svg" xmlns:xlink="http://www.w3.org/1999/xlink" x="0px" y="0px"
	 viewBox="0 0 512.003 512.003" style="enable-background:new 0 0 512.003 512.003;" xml:space="preserve">
<g>
	<g>
		<path d="M145.09,376.492c-1.87-1.861-4.44-2.931-7.07-2.931c-2.64,0-5.22,1.071-7.08,2.931c-1.86,1.859-2.93,4.439-2.93,7.069
			s1.071,5.21,2.93,7.07c1.87,1.87,4.44,2.93,7.08,2.93c2.63,0,5.201-1.06,7.07-2.93c1.86-1.86,2.92-4.44,2.92-7.07
			S146.95,378.351,145.09,376.492z"/>
	</g>
</g>
<g>
	<g>
		<path d="M346.001,190.597h-24.316L265.51,18.034c-1.34-4.117-5.179-6.904-9.509-6.904c-4.33,0-8.169,2.787-9.509,6.904
			l-56.175,172.563H10.001c-4.329,0-8.166,2.785-9.508,6.9c-1.342,4.116,0.117,8.628,3.614,11.179l145.722,106.295l-8.676,26.65
			c-1.71,5.251,1.162,10.894,6.413,12.604c1.029,0.335,2.072,0.494,3.098,0.494c4.213-0.001,8.132-2.685,9.507-6.907l10.922-33.55
			c1.34-4.115-0.119-8.625-3.615-11.175l-126.799-92.49h156.899c4.33,0,8.168-2.787,9.509-6.904l48.914-150.257l48.914,150.257
			c1.341,4.117,5.179,6.904,9.509,6.904h31.577c5.522,0,10-4.478,10-10C356.001,195.075,351.523,190.597,346.001,190.597z"/>
	</g>
</g>
<g>
	<g>
		<path d="M401.07,193.532c-1.859-1.87-4.439-2.931-7.069-2.931s-5.21,1.061-7.07,2.931c-1.861,1.859-2.93,4.429-2.93,7.069
			c0,2.63,1.07,5.2,2.93,7.07c1.86,1.861,4.44,2.93,7.07,2.93s5.21-1.07,7.069-2.93c1.861-1.87,2.931-4.44,2.931-7.07
			C404.001,197.962,402.93,195.391,401.07,193.532z"/>
	</g>
</g>
<g>
	<g>
		<path d="M511.512,197.506c-1.339-4.12-5.179-6.909-9.511-6.909h-67.333c-5.522,0-10,4.478-10,10c0,5.522,4.478,10,10,10h36.563
			l-126.799,92.147c-3.506,2.548-4.972,7.065-3.63,11.186l49.045,150.664l-127.13-92.675c-3.495-2.547-8.231-2.558-11.74-0.03
			L122.069,464.85l13.806-42.41c1.71-5.251-1.162-10.895-6.413-12.604c-5.251-1.711-10.895,1.162-12.604,6.413l-23.284,71.527
			c-1.34,4.114,0.119,8.623,3.614,11.174c1.756,1.281,3.826,1.922,5.895,1.922c2.051,0,4.103-0.63,5.85-1.889l147.863-106.63
			l146.231,106.599c3.502,2.553,8.253,2.559,11.765,0.012c3.509-2.546,4.978-7.065,3.635-11.188L362.069,314.65L507.88,208.687
			C511.384,206.14,512.851,201.626,511.512,197.506z"/>
	</g>
</g>
<g>
</g>
<g>
</g>
<g>
</g>
<g>
</g>
<g>
</g>
<g>
</g>
<g>
</g>
<g>
</g>
<g>
</g>
<g>
</g>
<g>
</g>
<g>
</g>
<g>
</g>
<g>
</g>
<g>
</g>
</svg>
