<?xml version="1.0" encoding="iso-8859-1"?>
<!-- Generator: Adobe Illustrator 19.0.0, SVG Export Plug-In . SVG Version: 6.00 Build 0)  -->
<svg version="1.1" id="Capa_1" xmlns="http://www.w3.org/2000/svg" xmlns:xlink="http://www.w3.org/1999/xlink" x="0px" y="0px"
	 viewBox="0 0 512 512" style="enable-background:new 0 0 512 512;" xml:space="preserve">
<g>
	<g>
		<path d="M132.995,249.023c-16.541,0-29.999,13.457-29.999,29.999c0,16.541,13.457,29.999,29.999,29.999
			c16.541,0,29.999-13.458,29.999-29.999C162.994,262.481,149.536,249.023,132.995,249.023z M132.995,289.022
			c-5.514,0-10-4.486-10-10s4.486-10,10-10s10,4.486,10,10S138.509,289.022,132.995,289.022z"/>
	</g>
</g>
<g>
	<g>
		<path d="M132.995,213.025c-36.392,0-65.997,29.606-65.997,65.997c0,36.392,29.606,65.997,65.997,65.997
			c36.392,0,65.997-29.606,65.997-65.997C198.992,242.631,169.386,213.025,132.995,213.025z M132.995,325.021
			c-25.363,0-45.998-20.635-45.998-45.998s20.635-45.998,45.998-45.998c25.363,0,45.998,20.635,45.998,45.998
			S158.358,325.021,132.995,325.021z"/>
	</g>
</g>
<g>
	<g>
		<path d="M378.985,249.023c-16.541,0-29.999,13.457-29.999,29.999c0,16.541,13.458,29.999,29.999,29.999
			c16.541,0,29.999-13.458,29.999-29.999C408.984,262.481,395.527,249.023,378.985,249.023z M378.985,289.022
			c-5.514,0-10-4.486-10-10s4.486-10,10-10s10,4.486,10,10S384.499,289.022,378.985,289.022z"/>
	</g>
</g>
<g>
	<g>
		<path d="M378.985,213.025c-36.392,0-65.997,29.606-65.997,65.997c0,36.392,29.606,65.997,65.997,65.997
			c36.392,0,65.997-29.606,65.997-65.997C444.983,242.631,415.377,213.025,378.985,213.025z M378.985,325.021
			c-25.363,0-45.998-20.635-45.998-45.998s20.635-45.998,45.998-45.998s45.998,20.635,45.998,45.998
			S404.348,325.021,378.985,325.021z"/>
	</g>
</g>
<g>
	<g>
		<path d="M473.836,357.963c-3.945-3.865-10.276-3.801-14.141,0.142c-0.268,0.273-0.538,0.546-0.809,0.817
			c-3.905,3.906-3.905,10.238,0,14.142c1.953,1.952,4.511,2.929,7.071,2.929c2.559,0,5.118-0.977,7.073-2.929
			c0.318-0.318,0.635-0.64,0.949-0.96C477.843,368.161,477.78,361.829,473.836,357.963z"/>
	</g>
</g>
<g>
	<g>
		<path d="M509.85,255.254c-3.52-19.469-11.257-37.647-22.641-53.536l23.263-37.412c1.917-3.083,2.013-6.964,0.249-10.138
			c-1.765-3.174-5.11-5.143-8.741-5.143h-91.627c-31.172-23.613-69.852-39.452-112.114-45.868
			c-5.456-0.828-10.559,2.925-11.388,8.386c-0.829,5.46,2.926,10.559,8.386,11.388c26.455,4.017,51.316,12.018,73.489,23.487
			c-31.658,2.399-61.097,15.877-83.783,38.563c-12.624,12.625-22.395,27.341-28.995,43.366
			c-18.723-45.261-61.733-78.022-112.697-81.928c22.169-11.467,47.026-19.468,73.476-23.486c5.46-0.829,9.214-5.928,8.385-11.389
			c-0.83-5.46-5.939-9.216-11.389-8.385c-42.255,6.419-80.931,22.256-112.098,45.866H10c-3.631,0-6.977,1.969-8.741,5.143
			c-1.764,3.174-1.668,7.055,0.249,10.138l23.293,37.461C9.197,223.559,0,250.236,0,279.022
			c0,73.334,59.661,132.995,132.995,132.995c37.458,0,71.343-15.571,95.537-40.574l19.302,28.524
			c1.86,2.749,4.963,4.396,8.282,4.396c3.319,0,6.422-1.646,8.282-4.396l19.163-28.318c0.459,0.473,0.915,0.948,1.382,1.416
			c25.437,25.437,59.652,38.896,94.295,38.894c18.897,0,37.927-4.006,55.722-12.259c5.011-2.324,7.188-8.27,4.865-13.278
			c-2.323-5.009-8.269-7.188-13.279-4.865c-42.835,19.863-94.058,10.77-127.461-22.635c-2.947-2.947-5.703-6.031-8.279-9.232
			c-0.291-0.427-0.616-0.835-0.976-1.218c-15.459-19.763-23.841-43.962-23.841-69.45c0-30.183,11.754-58.558,33.097-79.899
			c21.342-21.343,49.717-33.097,79.899-33.097s58.559,11.754,79.9,33.097c2.953,2.953,5.708,6.039,8.28,9.232
			c0.15,0.195,0.303,0.388,0.469,0.573c25.841,32.511,31.875,76.416,14.972,115.24c-2.204,5.063,0.113,10.955,5.178,13.159
			c5.063,2.203,10.955-0.112,13.159-5.178C511.487,307.932,514.567,281.342,509.85,255.254z M58.32,169.027
			c-7.192,4.898-13.878,10.484-19.969,16.659l-10.359-16.659H58.32z M132.995,392.018c-62.307,0-112.996-50.689-112.996-112.996
			s50.689-112.996,112.996-112.996S245.99,216.716,245.99,279.022S195.301,392.018,132.995,392.018z M270.243,355.645
			l-14.126,20.875l-14.3-21.132c5.608-7.968,10.361-16.575,14.131-25.691C259.705,338.82,264.49,347.517,270.243,355.645z
			 M473.659,185.636c-0.213-0.216-0.417-0.44-0.631-0.655c-5.97-5.97-12.412-11.294-19.234-15.954h30.194L473.659,185.636z"/>
	</g>
</g>
<g>
	<g>
		<path d="M256.623,99.983l-0.633-0.001c-5.522,0-10,4.478-10,10s4.478,10,10,10l0.533,0.001c0.017,0,0.034,0,0.051,0
			c5.499,0,9.972-4.444,9.999-9.95C266.6,104.511,262.146,100.012,256.623,99.983z"/>
	</g>
</g>
<g>
</g>
<g>
</g>
<g>
</g>
<g>
</g>
<g>
</g>
<g>
</g>
<g>
</g>
<g>
</g>
<g>
</g>
<g>
</g>
<g>
</g>
<g>
</g>
<g>
</g>
<g>
</g>
<g>
</g>
</svg>
