<?xml version="1.0" encoding="iso-8859-1"?>
<!-- Generator: Adobe Illustrator 19.0.0, SVG Export Plug-In . SVG Version: 6.00 Build 0)  -->
<svg version="1.1" id="Capa_1" xmlns="http://www.w3.org/2000/svg" xmlns:xlink="http://www.w3.org/1999/xlink" x="0px" y="0px"
	 viewBox="0 0 512.001 512.001" style="enable-background:new 0 0 512.001 512.001;" xml:space="preserve">
<g>
	<g>
		<path d="M358.404,244.866c-23.71,0-43.001,19.29-43.001,43.001s19.29,43.001,43.001,43.001c23.71,0,43.001-19.29,43.001-43.001
			S382.114,244.866,358.404,244.866z M358.404,310.867c-12.683,0-23-10.317-23-23c0-12.683,10.317-23,23-23
			c12.682,0,23,10.317,23,23C381.404,300.55,371.087,310.867,358.404,310.867z"/>
	</g>
</g>
<g>
	<g>
		<path d="M358.404,349.867l-0.641-0.003c-0.027,0-0.055,0-0.083,0c-5.484,0-9.953,4.424-9.998,9.919
			c-0.045,5.522,4.397,10.036,9.919,10.081l0.803,0.003c5.522,0,10-4.478,10-10C368.404,354.345,363.926,349.867,358.404,349.867z"
			/>
	</g>
</g>
<g>
	<g>
		<path d="M358.403,205.864c-45.216,0-82.001,36.786-82.001,82.001c0,27.09,13.364,52.408,35.75,67.722
			c1.727,1.182,3.693,1.748,5.638,1.748c3.19,0,6.326-1.523,8.26-4.354c3.12-4.558,1.953-10.781-2.606-13.899
			c-16.934-11.585-27.043-30.732-27.043-51.216c0-34.188,27.813-62.001,62.001-62.001s62.001,27.813,62.001,62.001
			c0,18.302-8.029,35.578-22.03,47.399c-4.219,3.563-4.752,9.871-1.189,14.092c3.563,4.22,9.872,4.752,14.092,1.189
			c18.511-15.628,29.128-38.475,29.128-62.681C440.404,242.65,403.618,205.864,358.403,205.864z"/>
	</g>
</g>
<g>
	<g>
		<path d="M208.701,196.788c-2.693-4.821-8.786-6.548-13.606-3.854l-0.089,0.049c-0.006,0.003-0.091,0.05-0.097,0.054
			c-4.83,2.669-6.545,8.726-3.881,13.559c1.819,3.3,5.247,5.156,8.778,5.156c1.641,0,3.305-0.4,4.84-1.247l0.201-0.111
			C209.668,207.702,211.394,201.61,208.701,196.788z"/>
	</g>
</g>
<g>
	<g>
		<path d="M452.159,208.089c-16.503-11.79-45.371-29.076-83.289-38.716c-0.888-4.424-12.905-57.019-84.601-76.396
			c-5.305-1.438-10.896,0.203-14.597,4.271c-3.699,4.064-4.802,9.782-2.878,14.921c4.008,10.707,8.371,27.855,0.969,54.317
			c-13.549,2.627-26.998,6.448-40.258,11.47c-5.165,1.956-7.766,7.729-5.81,12.894c1.956,5.164,7.728,7.766,12.894,5.81
			c25.333-9.596,51.373-14.461,77.396-14.461c60.493,0,106.505,26.417,128.549,42.165c35.36,25.262,51.467,52.182,51.467,66.503
			s-16.105,41.242-51.467,66.503c-22.043,15.747-68.056,42.166-128.549,42.166c-60.791,0-106.65-26.075-128.577-41.62
			c-35.341-25.053-51.438-52.318-51.438-67.049c0-15.251,15.313-37.828,39.012-57.518c4.248-3.529,4.83-9.834,1.301-14.082
			s-9.833-4.831-14.082-1.301c-14.454,12.009-25.999,24.816-33.937,37.32c-5.643-12.56-14.325-24.357-25.875-35.005
			c-20.835-19.209-49.049-32.908-81.59-39.618c-5.671-1.171-11.372,1.221-14.528,6.088c-3.154,4.862-3.011,11.037,0.366,15.731
			c18.429,25.616,28.17,56.181,28.17,88.385c0,32.205-9.741,62.77-28.171,88.387c-3.375,4.692-3.519,10.866-0.367,15.728
			c2.625,4.049,7.01,6.384,11.674,6.384c0.944,0,1.901-0.097,2.856-0.293c32.541-6.71,60.755-20.409,81.59-39.619
			c11.555-10.653,20.24-22.456,25.883-35.023c28.453,44.8,102.905,93.105,187.714,93.105c66.071,0,116.184-28.752,140.174-45.892
			c36.353-25.97,59.842-58.462,59.842-82.777C512.001,266.552,488.512,234.059,452.159,208.089z M311.985,162.199
			c-7.623,0-15.244,0.393-22.847,1.152c4.435-20.668,2.703-36.388-0.369-48.074c37.681,13.111,52.347,36.854,57.691,49.553
			C335.536,163.163,324.029,162.199,311.985,162.199z M27.408,377.835c15.352-26.111,23.398-55.877,23.398-86.969
			c0-31.091-8.048-60.857-23.398-86.968c50.476,14.826,84.563,49.206,84.563,86.968C111.971,328.628,77.882,363.009,27.408,377.835z
			"/>
	</g>
</g>
<g>
</g>
<g>
</g>
<g>
</g>
<g>
</g>
<g>
</g>
<g>
</g>
<g>
</g>
<g>
</g>
<g>
</g>
<g>
</g>
<g>
</g>
<g>
</g>
<g>
</g>
<g>
</g>
<g>
</g>
</svg>
