<?xml version="1.0" encoding="iso-8859-1"?>
<!-- Generator: Adobe Illustrator 19.0.0, SVG Export Plug-In . SVG Version: 6.00 Build 0)  -->
<svg version="1.1" id="Capa_1" xmlns="http://www.w3.org/2000/svg" xmlns:xlink="http://www.w3.org/1999/xlink" x="0px" y="0px"
	 viewBox="0 0 512 512" style="enable-background:new 0 0 512 512;" xml:space="preserve">
<g>
	<g>
		<path d="M409.684,48.38l-0.453-0.31c-4.574-3.095-10.79-1.897-13.886,2.676c-3.095,4.574-1.898,10.79,2.676,13.886l0.306,0.21
			c1.734,1.197,3.712,1.77,5.67,1.77c3.176,0,6.299-1.51,8.24-4.323C415.372,57.744,414.229,51.517,409.684,48.38z"/>
	</g>
</g>
<g>
	<g>
		<path d="M442.059,75.235c-3.897-3.913-10.227-3.923-14.141-0.026c-3.912,3.898-3.923,10.229-0.026,14.141
			c32.964,33.087,50.388,74.607,50.388,120.073c0,53.069-22.624,99.018-63.705,129.385c-31.032,22.938-70.995,35.572-112.528,35.574
			c-0.006,0-0.011,0-0.017,0c-11.022,0-22.109-0.906-32.948-2.693c-2.895-0.477-5.858,0.343-8.097,2.243
			c-2.238,1.899-3.529,4.687-3.529,7.624v41.126l-0.276,2.411c-2.682,23.469-16.452,44.605-36.836,56.54
			c-19.447,11.388-42.746,13.499-63.923,5.791l-32.396-11.789v-57.413l20.592,11.473c10.036,5.59,22.62,4.972,32.057-1.581
			c8.162-5.665,13.034-14.978,13.034-24.915V155.483h67.747V300.02c0,4.51,3.019,8.461,7.371,9.648
			c39.937,10.883,83.703,3.631,114.22-18.924c18.003-13.307,39.463-38.218,39.463-81.32c0-38.72-18.262-70.847-54.28-95.487
			C333.428,92.862,291.222,79.77,254.083,79.77c-35.864,0-71.202,8.597-99.506,24.204c-20.219,11.149-46.435,31.36-56.508,64.328
			c-13.682,44.78,6.45,93.796,16.149,113.494l-51.169,31.336c-4.775-9.1-12.132-24.649-18.327-44.317
			c-13.237-42.027-14.557-82.824-3.815-117.98c12.605-41.254,41.932-75.557,84.807-99.201
			c36.993-20.401,82.582-31.635,128.368-31.635c35.961,0,74.894,8.937,109.629,25.162c5.003,2.335,10.954,0.176,13.291-4.828
			c2.337-5.004,0.176-10.954-4.828-13.292C334.845,9.604,292.907,0,254.082,0c-49.107,0-98.126,12.117-138.027,34.121
			c-47.519,26.205-80.12,64.544-94.275,110.87c-11.928,39.038-10.591,83.934,3.866,129.831
			c10.258,32.568,23.728,55.032,25.23,57.487c1.385,2.262,3.612,3.882,6.191,4.502c2.578,0.62,5.299,0.19,7.561-1.194l66.539-40.749
			c0.511-0.201,1.012-0.448,1.498-0.74c4.714-2.836,6.247-8.957,3.438-13.685c-0.34-0.572-33.76-57.689-18.908-106.297
			c8.115-26.558,30.059-43.295,47.04-52.658c25.396-14.005,57.305-21.718,89.848-21.718c33.322,0,71.201,11.753,98.855,30.674
			c30.24,20.687,45.574,47.26,45.574,78.981c0,34.764-17.05,54.665-31.352,65.237c-23.486,17.359-57.973,23.919-89.703,17.463
			V145.483c0-5.522-4.477-9.999-9.999-9.999h-87.746c-5.523,0-9.999,4.478-9.999,9.999V403.2c0,3.384-1.66,6.556-4.439,8.486
			c-3.216,2.23-7.503,2.441-10.92,0.539l-35.457-19.755c-3.096-1.725-6.876-1.682-9.932,0.113c-3.057,1.796-4.934,5.077-4.934,8.622
			v81.433c0,4.204,2.629,7.959,6.58,9.396l38.977,14.185c10.631,3.869,21.686,5.782,32.69,5.782c16.726,0,33.338-4.42,48.175-13.109
			c25.788-15.098,43.208-41.839,46.601-71.527l0.34-2.977c0.044-0.377,0.065-0.756,0.065-1.136v-30.229
			c8.155,0.903,16.381,1.359,24.576,1.359c0.006,0,0.012,0,0.018,0c45.782-0.002,89.965-14.027,124.414-39.491
			c46.312-34.234,71.816-85.896,71.816-145.467C498.278,158.552,478.838,112.151,442.059,75.235z"/>
	</g>
</g>
<g>
	<g>
		<path d="M223.668,199.448c-5.523,0-9.999,4.478-9.999,9.999v81.497c0,5.522,4.477,10,9.999,10s9.999-4.478,9.999-10v-81.497
			C233.668,203.925,229.191,199.448,223.668,199.448z"/>
	</g>
</g>
<g>
	<g>
		<path d="M223.668,326.323c-5.523,0-9.999,4.478-9.999,9.999v0.118c0,5.522,4.477,9.999,9.999,9.999s9.999-4.478,9.999-9.999
			v-0.118C233.668,330.801,229.191,326.323,223.668,326.323z"/>
	</g>
</g>
<g>
</g>
<g>
</g>
<g>
</g>
<g>
</g>
<g>
</g>
<g>
</g>
<g>
</g>
<g>
</g>
<g>
</g>
<g>
</g>
<g>
</g>
<g>
</g>
<g>
</g>
<g>
</g>
<g>
</g>
</svg>
