<?xml version="1.0" encoding="iso-8859-1"?>
<!-- Generator: Adobe Illustrator 19.0.0, SVG Export Plug-In . SVG Version: 6.00 Build 0)  -->
<svg version="1.1" id="Capa_1" xmlns="http://www.w3.org/2000/svg" xmlns:xlink="http://www.w3.org/1999/xlink" x="0px" y="0px"
	 viewBox="0 0 512 512" style="enable-background:new 0 0 512 512;" xml:space="preserve">
<g>
	<g>
		<path d="M59.321,147.474c-3.486-3.444-9.764-4.319-14.238,0.181c-4.473,4.5-3.561,10.773-0.095,14.239
			c1.821,1.822,4.417,2.937,7.125,2.937c2.444,0,4.978-0.909,7.114-3.032c0.028-0.028,0.057-0.058,0.085-0.086
			C63.757,157.187,62.807,150.919,59.321,147.474z"/>
	</g>
</g>
<g>
	<g>
		<path d="M405.745,290.953l-0.309-0.546c-2.712-4.811-8.811-6.512-13.622-3.8c-4.811,2.712-6.512,8.81-3.8,13.622l0.366,0.646
			c1.846,3.23,5.22,5.041,8.692,5.041c1.682,0,3.387-0.425,4.952-1.319C406.819,301.856,408.485,295.748,405.745,290.953z"/>
	</g>
</g>
<g>
	<g>
		<path d="M358,102.75c-37.975,0-73.83,13.589-102,38.444c-28.171-24.854-64.026-38.444-102-38.444
			c-24.685,0-48.269,5.64-70.096,16.762c-4.921,2.508-6.877,8.529-4.37,13.45c2.507,4.921,8.531,6.874,13.45,4.37
			c9.595-4.889,19.584-8.556,29.891-10.992v103.235c0,47.495-28.302,91.822-71.089,112.486C31.972,318.826,20,288.78,20,256
			c0-23.71,6.338-46.987,18.33-67.315c2.806-4.757,1.224-10.889-3.533-13.694c-4.758-2.806-10.888-1.225-13.694,3.532
			C7.297,201.928,0,228.719,0,256c0,84.502,69.084,153.25,154,153.25c37.975,0,73.83-13.589,102-38.444
			c28.171,24.855,64.026,38.444,102,38.444c84.916,0,154-68.748,154-153.25S442.917,102.75,358,102.75z M329.409,125.78v103.795
			c0,31.259-11.994,60.947-32.437,83.559C304.204,295.207,308,275.892,308,256c0-37.375-13.373-72.72-37.85-100.621
			C287.255,140.566,307.547,130.481,329.409,125.78z M182.875,125.84c21.754,4.727,41.944,14.79,58.975,29.539
			C217.373,183.28,204,218.625,204,256c0,19.675,3.714,38.784,10.792,56.546c-20.124-22.538-31.917-51.979-31.917-82.97V125.84z
			 M154,389.25c-17.192,0-33.636-3.24-48.752-9.131c10.277-7.322,19.799-15.69,28.435-25.017
			c7.086-7.652,13.506-15.879,19.192-24.584c5.686,8.705,12.106,16.932,19.192,24.584c8.872,9.582,18.68,18.15,29.286,25.615
			C186.422,386.318,170.441,389.25,154,389.25z M222.44,370.603c-13.183-7.969-25.178-17.728-35.699-29.089
			c-9.863-10.651-18.279-22.55-25.015-35.363c-1.729-3.288-5.137-5.348-8.852-5.348c-3.715,0-7.124,2.06-8.852,5.348
			c-6.736,12.813-15.152,24.712-25.015,35.363c-10.208,11.024-21.8,20.545-34.507,28.376c-6.318-3.827-12.293-8.161-17.871-12.941
			c20.372-11.025,37.857-26.782,51.101-46.199c16.449-24.116,25.144-52.186,25.144-81.174V123.205
			c3.678-0.296,7.386-0.454,11.125-0.454c2.975,0,5.933,0.105,8.875,0.295v106.53c0,53.554,30.288,103.121,77.695,128.132
			C234.853,362.536,228.788,366.838,222.44,370.603z M224,256c0-32.02,11.293-62.335,32-86.426c20.707,24.091,32,54.406,32,86.426
			c0,32.02-11.293,62.335-32,86.426C235.293,318.335,224,288.02,224,256z M358,389.25c-16.373,0-32.29-2.908-47.167-8.464
			c10.644-7.481,20.484-16.073,29.384-25.685c7.086-7.652,13.506-15.88,19.192-24.584c5.685,8.703,12.105,16.932,19.192,24.584
			c8.609,9.297,18.098,17.641,28.338,24.947C391.771,385.986,375.262,389.25,358,389.25z M460.284,341.98
			c-12.904-6.235-24.583-14.608-34.788-24.968c-3.875-3.935-10.207-3.982-14.142-0.106c-3.935,3.875-3.982,10.207-0.107,14.142
			c10.195,10.35,21.667,18.99,34.229,25.813c-5.567,4.781-11.531,9.114-17.838,12.944c-12.651-7.814-24.193-17.307-34.363-28.29
			c-9.864-10.653-18.281-22.552-25.015-35.363c-1.728-3.288-5.137-5.348-8.852-5.348c-3.715,0-7.123,2.06-8.852,5.348
			c-6.735,12.813-15.151,24.711-25.015,35.363c-10.558,11.402-22.603,21.188-35.841,29.173c-6.358-3.761-12.434-8.06-18.16-12.886
			c47.507-24.982,77.868-74.605,77.868-128.225V123.028c2.848-0.178,5.712-0.278,8.591-0.278c3.843,0,7.647,0.171,11.409,0.488
			v106.337c0,8.186,0.706,16.414,2.098,24.457c0.842,4.865,5.067,8.297,9.842,8.297c0.566,0,1.14-0.049,1.717-0.148
			c5.442-0.941,9.09-6.117,8.148-11.559c-1.197-6.92-1.805-14.001-1.805-21.047V126.456C448.193,140.55,492,193.28,492,256
			C492,288.741,480.057,318.756,460.284,341.98z"/>
	</g>
</g>
<g>
</g>
<g>
</g>
<g>
</g>
<g>
</g>
<g>
</g>
<g>
</g>
<g>
</g>
<g>
</g>
<g>
</g>
<g>
</g>
<g>
</g>
<g>
</g>
<g>
</g>
<g>
</g>
<g>
</g>
</svg>
