<?xml version="1.0" encoding="iso-8859-1"?>
<!-- Generator: Adobe Illustrator 19.0.0, SVG Export Plug-In . SVG Version: 6.00 Build 0)  -->
<svg version="1.1" id="Capa_1" xmlns="http://www.w3.org/2000/svg" xmlns:xlink="http://www.w3.org/1999/xlink" x="0px" y="0px"
	 viewBox="0 0 512 512" style="enable-background:new 0 0 512 512;" xml:space="preserve">
<g>
	<g>
		<path d="M410.703,130.64c4.815,2.704,10.911,0.997,13.617-3.818l62.904-111.923c1.741-3.096,1.707-6.884-0.086-9.949
			C485.344,1.884,482.059,0,478.507,0H373.876c-3.614,0-6.947,1.95-8.719,5.101l-165.238,294c-1.708,3.039-1.71,6.748-0.005,9.789
			l111,198c1.769,3.156,5.105,5.11,8.723,5.11h104.632c3.549,0,6.834-1.883,8.628-4.946s1.83-6.847,0.094-9.944L324.737,304.007
			l57.36-102.059c2.706-4.814,0.996-10.911-3.818-13.617c-4.815-2.704-10.911-0.995-13.617,3.818l-60.111,106.952
			c-1.708,3.039-1.71,6.748-0.005,9.789L407.199,492h-81.703L220.105,304.006L379.727,20h81.688l-54.53,97.023
			C404.179,121.837,405.889,127.934,410.703,130.64z"/>
	</g>
</g>
<g>
	<g>
		<path d="M403.23,149.451c-1.86-1.861-4.44-2.931-7.07-2.931c-2.64,0-5.22,1.071-7.08,2.931c-1.86,1.869-2.93,4.439-2.93,7.069
			s1.07,5.21,2.93,7.07c1.87,1.87,4.44,2.93,7.08,2.93c2.63,0,5.2-1.06,7.07-2.93c1.86-1.86,2.92-4.429,2.92-7.07
			C406.15,153.89,405.09,151.31,403.23,149.451z"/>
	</g>
</g>
<g>
	<g>
		<path d="M229.984,202.799L167.368,99.966c-1.814-2.98-5.052-4.799-8.541-4.799H59.681c-3.543,0-6.822,1.875-8.619,4.929
			s-1.844,6.83-0.123,9.928l54.426,97.964L24.763,352.291c-1.73,3.097-1.689,6.878,0.106,9.938c1.795,3.06,5.077,4.938,8.625,4.938
			h99.146c3.525,0,6.79-1.855,8.593-4.885l88.804-149.167C231.931,209.933,231.911,205.963,229.984,202.799z M126.955,347.167
			h-24.096l33.338-59.619c2.695-4.82,0.973-10.913-3.848-13.609c-4.82-2.694-10.914-0.972-13.608,3.848l-38.797,69.381H50.533
			l75.009-134.291c1.689-3.023,1.693-6.705,0.011-9.732l-48.877-87.977h76.532l56.563,92.892L126.955,347.167z"/>
	</g>
</g>
<g>
	<g>
		<path d="M152.57,243.23c-1.86-1.86-4.44-2.93-7.07-2.93c-2.64,0-5.21,1.071-7.07,2.93c-1.86,1.86-2.93,4.44-2.93,7.07
			c0,2.64,1.07,5.21,2.93,7.08c1.86,1.86,4.44,2.92,7.07,2.92s5.21-1.06,7.07-2.92c1.86-1.87,2.93-4.44,2.93-7.08
			C155.5,247.67,154.43,245.09,152.57,243.23z"/>
	</g>
</g>
<g>
</g>
<g>
</g>
<g>
</g>
<g>
</g>
<g>
</g>
<g>
</g>
<g>
</g>
<g>
</g>
<g>
</g>
<g>
</g>
<g>
</g>
<g>
</g>
<g>
</g>
<g>
</g>
<g>
</g>
</svg>
