<?xml version="1.0" encoding="iso-8859-1"?>
<!-- Generator: Adobe Illustrator 19.0.0, SVG Export Plug-In . SVG Version: 6.00 Build 0)  -->
<svg version="1.1" id="Capa_1" xmlns="http://www.w3.org/2000/svg" xmlns:xlink="http://www.w3.org/1999/xlink" x="0px" y="0px"
	 viewBox="0 0 512 512" style="enable-background:new 0 0 512 512;" xml:space="preserve">
<g>
	<g>
		<g>
			<path d="M157.082,337.091c-32.652-13.811-53.75-45.64-53.75-81.088c0-7.807,1.029-15.564,3.056-23.054
				c0.813-3.005,0.181-6.217-1.711-8.69c-1.892-2.473-4.828-3.923-7.941-3.923H83.941c-5.522,0-10,4.478-10,10v90.625h-28v-90.625
				c0-5.522-4.478-10-10-10H20v-28h106.707c2.428,0,4.774-0.883,6.598-2.485c16.047-14.089,36.655-21.848,58.027-21.848
				c37.859,0,71.39,24.094,83.438,59.955c1.562,4.645,6.259,7.476,11.093,6.685c4.836-0.791,8.387-4.969,8.387-9.869v-32.938h22v79
				c0,14.337,11.663,26,26,26c14.337,0,26-11.663,26-26v-79h32c5.522,0,10-4.478,10-10c0-5.522-4.478-10-10-10h-42
				c-5.522,0-10,4.478-10,10v89c0,3.309-2.691,6-6,6c-3.309,0-6-2.691-6-6v-89c0-5.522-4.478-10-10-10h-42c-5.522,0-10,4.478-10,10
				v4.898c-20.099-24.058-50.19-38.731-82.917-38.731c-24.945,0-49.045,8.615-68.288,24.333H10c-5.522,0-10,4.478-10,10v48
				c0,5.522,4.478,10,10,10h15.941v90.625c0,5.522,4.478,10,10,10h48c5.522,0,10-4.478,10-10v-28.187
				c11.158,23.26,30.536,42.24,55.351,52.736c1.272,0.538,2.592,0.793,3.892,0.793c3.896,0,7.6-2.293,9.212-6.107
				C164.548,345.11,162.169,339.242,157.082,337.091z"/>
			<path d="M193.127,343.983l-0.914,0.015c-5.523,0.064-9.946,4.594-9.882,10.116c0.063,5.483,4.528,9.883,9.997,9.883
				c0.039,0,0.079,0,0.119-0.001l1.09-0.017c5.522-0.113,9.906-4.682,9.793-10.203C203.216,348.254,198.63,343.869,193.127,343.983z
				"/>
			<path d="M502,171.835h-26.5c-5.522,0-10,4.478-10,10c0,5.522,4.478,10,10,10H492v28.5h-15.941c-5.522,0-10,4.478-10,10v90.625
				h-28v-90.625c0-5.522-4.478-10-10-10H400.25c-5.522,0-10,4.478-10,10v45.5c0,26.467-21.533,48-48,48
				c-23.752,0-43.686-16.997-47.398-40.416c-0.728-4.593-4.526-8.078-9.164-8.409c-4.671-0.342-8.895,2.579-10.267,7.021
				c-7.05,22.804-23.376,42.024-44.791,52.732c-4.94,2.47-6.942,8.477-4.472,13.417c1.752,3.504,5.283,5.529,8.952,5.529
				c1.503,0,3.03-0.339,4.465-1.057c18.598-9.3,34.068-23.839,44.589-41.469c3.673,6.031,8.29,11.503,13.721,16.183
				c12.323,10.62,28.079,16.469,44.365,16.469c37.495,0,68-30.505,68-68v-35.5h7.809v90.625c0,5.522,4.478,10,10,10h48
				c5.522,0,10-4.478,10-10v-90.625H502c5.522,0,10-4.478,10-10v-48.5C512,176.313,507.522,171.835,502,171.835z"/>
			<path d="M191.333,193.001c-34.738,0-63,28.262-63,63c0,34.738,28.262,63,63,63s63-28.262,63-63
				C254.333,221.263,226.071,193.001,191.333,193.001z M191.333,299.001c-23.71,0-43-19.29-43-43s19.29-43,43-43s43,19.29,43,43
				C234.333,279.711,215.043,299.001,191.333,299.001z"/>
		</g>
	</g>
</g>
<g>
</g>
<g>
</g>
<g>
</g>
<g>
</g>
<g>
</g>
<g>
</g>
<g>
</g>
<g>
</g>
<g>
</g>
<g>
</g>
<g>
</g>
<g>
</g>
<g>
</g>
<g>
</g>
<g>
</g>
</svg>
