<?xml version="1.0" encoding="iso-8859-1"?>
<!-- Generator: Adobe Illustrator 19.0.0, SVG Export Plug-In . SVG Version: 6.00 Build 0)  -->
<svg version="1.1" id="Capa_1" xmlns="http://www.w3.org/2000/svg" xmlns:xlink="http://www.w3.org/1999/xlink" x="0px" y="0px"
	 viewBox="0 0 512.001 512.001" style="enable-background:new 0 0 512.001 512.001;" xml:space="preserve">
<g>
	<g>
		<path d="M502.239,221.215L395.735,45.649c-3.963-6.529-11.168-10.586-18.805-10.586h-79.838c-7.988,0-15.094,4.155-19.012,11.115
			c-3.918,6.958-3.785,15.19,0.358,22.017l78.754,129.822H212.795L120.363,45.649c-3.963-6.529-11.168-10.586-18.805-10.586H22.035
			c-8.052,0-15.216,4.188-19.166,11.205c-3.95,7.014-3.814,15.313,0.361,22.196l31.087,51.246c2.863,4.721,9.01,6.227,13.732,3.362
			c4.72-2.863,6.225-9.011,3.362-13.732L20.325,58.094c-0.402-0.664-0.413-1.343-0.033-2.018c0.381-0.676,0.967-1.019,1.742-1.019
			h79.524c0.694,0,1.35,0.369,1.71,0.963l95.351,157.181c1.813,2.987,5.054,4.812,8.548,4.812h167.783
			c3.61,0,6.941-1.947,8.712-5.093c1.772-3.147,1.708-7.003-0.164-10.09L295.533,57.824c-0.367-0.604-0.377-1.223-0.03-1.839
			c0.347-0.616,0.882-0.929,1.589-0.929h79.838c0.694,0,1.35,0.369,1.709,0.963l106.505,175.568c9.135,15.061,9.135,33.771,0,48.83
			L378.639,455.982c-0.36,0.595-1.016,0.964-1.709,0.964h-79.524c-0.776,0-1.362-0.343-1.743-1.019
			c-0.38-0.676-0.369-1.356,0.033-2.018l87.801-144.735c1.872-3.087,1.934-6.944,0.164-10.09c-1.771-3.146-5.102-5.093-8.712-5.093
			H207.167c-3.494,0-6.735,1.824-8.548,4.812l-95.351,157.179c-0.36,0.595-1.016,0.964-1.71,0.964H22.035
			c-0.776,0-1.362-0.343-1.742-1.019c-0.38-0.676-0.369-1.356,0.033-2.018l98.954-163.122c13.016-21.456,13.016-48.114,0-69.57
			l-29.632-48.844c-2.862-4.72-9.008-6.226-13.732-3.362c-4.72,2.863-6.225,9.011-3.362,13.732l29.632,48.844
			c9.135,15.061,9.135,33.771,0,48.83L3.23,443.538c-4.175,6.883-4.311,15.181-0.361,22.196c3.95,7.017,11.114,11.205,19.166,11.205
			h79.524c7.637,0,14.842-4.057,18.805-10.587l92.432-152.367h144.396l-78.591,129.554c-4.175,6.883-4.311,15.181-0.361,22.196
			c3.95,7.017,11.114,11.205,19.166,11.205h79.524c7.637,0,14.842-4.057,18.805-10.587l106.505-175.566
			C515.255,269.33,515.255,242.671,502.239,221.215z"/>
	</g>
</g>
<g>
	<g>
		<path d="M69.762,140.153c-1.859-1.869-4.428-2.93-7.068-2.93c-2.629,0-5.209,1.061-7.067,2.93c-1.86,1.858-2.93,4.428-2.93,7.067
			c0,2.629,1.071,5.209,2.93,7.068c1.858,1.86,4.438,2.929,7.067,2.929c2.64,0,5.208-1.07,7.068-2.929
			c1.86-1.859,2.929-4.439,2.929-7.068C72.692,144.582,71.622,142.012,69.762,140.153z"/>
	</g>
</g>
<g>
	<g>
		<path d="M310.56,246.003h-83.477c-5.52,0-9.997,4.477-9.997,9.997c0,5.52,4.477,9.997,9.997,9.997h83.477
			c5.521,0,9.997-4.477,9.997-9.997C320.557,250.48,316.08,246.003,310.56,246.003z"/>
	</g>
</g>
<g>
	<g>
		<path d="M354.047,246.003h-0.118c-5.52,0-9.997,4.477-9.997,9.997c0,5.52,4.477,9.997,9.997,9.997h0.118
			c5.521,0,9.997-4.477,9.997-9.997C364.045,250.48,359.568,246.003,354.047,246.003z"/>
	</g>
</g>
<g>
</g>
<g>
</g>
<g>
</g>
<g>
</g>
<g>
</g>
<g>
</g>
<g>
</g>
<g>
</g>
<g>
</g>
<g>
</g>
<g>
</g>
<g>
</g>
<g>
</g>
<g>
</g>
<g>
</g>
</svg>
