<?xml version="1.0" encoding="iso-8859-1"?>
<!-- Generator: Adobe Illustrator 19.0.0, SVG Export Plug-In . SVG Version: 6.00 Build 0)  -->
<svg version="1.1" id="Capa_1" xmlns="http://www.w3.org/2000/svg" xmlns:xlink="http://www.w3.org/1999/xlink" x="0px" y="0px"
	 viewBox="0 0 512 512" style="enable-background:new 0 0 512 512;" xml:space="preserve">
<g>
	<g>
		<path d="M268.67,224.924l-9.598-187.9c-0.606-11.872-6.482-22.672-16.121-29.63c-9.636-6.958-21.739-9.134-33.197-5.978
			l-86.89,23.96c-10.493,2.893-18.728,10.389-22.59,20.567c-3.862,10.176-2.676,21.248,3.254,30.374l31.601,48.636
			c3.009,4.632,9.201,5.946,13.835,2.938c4.631-3.01,5.947-9.203,2.938-13.835L120.301,65.42c-2.417-3.72-2.901-8.232-1.327-12.381
			c1.574-4.148,4.931-7.203,9.207-8.382l86.89-23.96c5.582-1.539,11.479-0.479,16.174,2.911c4.696,3.391,7.558,8.652,7.853,14.436
			l9.598,187.9c0.393,7.695-5.622,10.254-7.476,10.855c-1.855,0.601-8.226,2.059-12.424-4.401l-27.656-42.565
			c-3.009-4.631-9.201-5.947-13.835-2.938c-4.631,3.01-5.947,9.203-2.938,13.835l27.656,42.565
			c5.855,9.012,15.469,14.083,25.652,14.083c3.214,0,6.488-0.506,9.714-1.552C260.84,251.463,269.392,239.044,268.67,224.924z"/>
	</g>
</g>
<g>
	<g>
		<path d="M177.561,153.548l-0.138-0.213c-2.998-4.637-9.191-5.967-13.828-2.966c-4.638,2.999-5.966,9.19-2.966,13.828l0.138,0.213
			c1.913,2.959,5.126,4.57,8.406,4.57c1.861,0,3.743-0.518,5.421-1.604C179.233,164.376,180.561,158.185,177.561,153.548z"/>
	</g>
</g>
<g>
	<g>
		<path d="M446.37,220.544l-41.902-60.664c-6.348-9.191-16.808-14.743-27.978-14.85c-11.158-0.086-21.735,5.243-28.258,14.311
			l-62.777,87.259c0,0,0,0-0.001,0c-8,11.12-8.291,25.693-0.742,37.125c6.177,9.352,16.346,14.704,27.161,14.704
			c2.405,0,4.843-0.265,7.274-0.808l106.366-23.8c11.211-2.509,20.406-10.393,24.594-21.092
			C454.297,242.029,452.898,229.998,446.37,220.544z M431.484,245.436c-1.786,4.563-5.554,7.794-10.336,8.864l-106.366,23.8
			c-7.932,1.775-12.247-3.683-13.379-5.398c-1.133-1.715-4.459-7.823,0.288-14.424l62.777-87.259
			c2.745-3.813,6.997-5.991,11.685-5.991c0.049,0,0.098,0,0.146,0.001c4.747,0.046,9.016,2.312,11.714,6.217l41.901,60.663
			C432.699,235.942,433.272,240.873,431.484,245.436z"/>
	</g>
</g>
<g>
	<g>
		<path d="M452.548,376.009c-3.01-10.552-11.019-18.93-21.426-22.41l-104.726-35.026c-13.067-4.372-27.047-0.223-35.613,10.566
			c-8.569,10.79-9.443,25.346-2.226,37.083l57.831,94.05c5.484,8.918,14.621,14.458,25.064,15.195
			c0.787,0.056,1.57,0.083,2.349,0.083c9.558,0,18.424-4.152,24.604-11.603l47.763-57.595
			C453.173,397.905,455.559,386.561,452.548,376.009z M430.773,393.583l-47.763,57.595c-2.516,3.034-6.201,4.609-10.147,4.338
			c-3.932-0.278-7.372-2.364-9.436-5.721l-57.831-94.05c-4.212-6.848-0.414-12.577,0.851-14.169
			c1.263-1.591,5.979-6.589,13.607-4.037l104.726,35.026c4.208,1.407,7.319,4.661,8.536,8.928
			C434.532,385.761,433.605,390.168,430.773,393.583z"/>
	</g>
</g>
<g>
	<g>
		<path d="M263.264,418.046c-1.86-1.861-4.44-2.931-7.07-2.931c-2.63,0-5.21,1.071-7.069,2.931
			c-1.861,1.859-2.931,4.439-2.931,7.069c0,2.64,1.071,5.21,2.931,7.07c1.859,1.87,4.439,2.93,7.069,2.93
			c2.63,0,5.21-1.059,7.07-2.93c1.861-1.86,2.93-4.44,2.93-7.07S265.124,419.915,263.264,418.046z"/>
	</g>
</g>
<g>
	<g>
		<path d="M256.194,389.014c5.522,0,10-4.478,10-10v-9.811c0-13.109-7.948-24.508-20.251-29.038
			c-12.304-4.528-25.744-1.01-34.244,8.969l-72.709,85.328c-6.326,7.424-8.687,17.506-6.315,26.967
			c2.371,9.461,9.206,17.237,18.286,20.8l70.01,27.478c3.914,1.536,8.019,2.293,12.104,2.293c6.561,0,13.073-1.952,18.655-5.759
			c9.057-6.175,14.465-16.406,14.465-27.367v-13.328c0-5.522-4.478-10-10-10c-5.522,0-10,4.478-10,10v13.328
			c0,4.407-2.088,8.359-5.73,10.841c-3.642,2.481-8.083,2.98-12.187,1.373l-70.01-27.478c-3.12-1.225-5.377-3.792-6.192-7.044
			c-0.814-3.252-0.035-6.581,2.139-9.133l72.709-85.329c4.592-5.39,10.427-3.79,12.109-3.171c1.68,0.619,7.161,3.188,7.161,10.269
			v9.811C246.194,384.535,250.672,389.014,256.194,389.014z"/>
	</g>
</g>
<g>
	<g>
		<path d="M210.227,273.444l-102.382-41.53h0.001c-11.147-4.521-23.759-3.208-33.736,3.509
			c-9.978,6.719-15.936,17.915-15.936,29.944v70.481c0,10.296,4.793,19.649,13.15,25.663c5.494,3.953,11.867,5.987,18.364,5.986
			c3.384,0,6.803-0.552,10.146-1.673l108.656-36.41c11.973-4.012,19.963-14.76,20.355-27.38
			C229.237,289.413,221.929,278.19,210.227,273.444z M208.854,301.414c-0.051,1.608-0.683,7.014-6.718,9.036L93.48,346.861
			c-3.584,1.2-7.403,0.625-10.473-1.585c-3.07-2.209-4.831-5.646-4.831-9.428v-70.481c0-5.445,2.589-10.312,7.106-13.355
			c2.73-1.838,5.814-2.774,8.941-2.774c2.045,0,4.108,0.401,6.103,1.21c0.001,0,0.001,0,0.001,0l102.382,41.53
			C208.608,294.371,208.904,299.806,208.854,301.414z"/>
	</g>
</g>
<g>
</g>
<g>
</g>
<g>
</g>
<g>
</g>
<g>
</g>
<g>
</g>
<g>
</g>
<g>
</g>
<g>
</g>
<g>
</g>
<g>
</g>
<g>
</g>
<g>
</g>
<g>
</g>
<g>
</g>
</svg>
