<?xml version="1.0" encoding="iso-8859-1"?>
<!-- Generator: Adobe Illustrator 19.0.0, SVG Export Plug-In . SVG Version: 6.00 Build 0)  -->
<svg version="1.1" id="Capa_1" xmlns="http://www.w3.org/2000/svg" xmlns:xlink="http://www.w3.org/1999/xlink" x="0px" y="0px"
	 viewBox="0 0 512.002 512.002" style="enable-background:new 0 0 512.002 512.002;" xml:space="preserve">
<g>
	<g>
		<path d="M183.395,432.18c-0.089-0.082-0.181-0.162-0.274-0.24l-16.719-14.118c-3.512-3.03-8.308-4.444-13.201-3.873
			c-4.515,0.524-8.757,2.713-11.654,6.026c-5.726,6.584-13.199,12.676-28.977,12.676c-21.817,0-31.754-18.044-31.754-34.81
			c0-13.983,11.165-33.352,32.127-33.352c12.534,0,17.729,4.055,24.739,10.739c4.327,4.293,8.975,6.414,13.88,6.294
			c3.066-0.072,7.58-1.105,11.635-5.566l18.097-19.652c8.128-8.26,8.88-18.955,1.837-26.143
			c-20.005-21.321-43.996-32.134-71.306-32.134c-56.806,0-101.304,43.843-101.304,99.813c0,27.556,10.515,53.009,29.609,71.671
			c18.815,18.389,44.144,28.516,71.322,28.516c33.052,0,59.534-14.076,76.585-40.701
			C190.143,454.117,195.634,443.303,183.395,432.18z M111.452,478.027c-45.382,0-80.932-35.222-80.932-80.187
			c0-44.754,35.713-79.813,81.304-79.813c21.197,0,39.281,7.935,55.215,24.246c-0.017,0.017-0.033,0.034-0.051,0.051
			c-0.096,0.097-0.191,0.196-0.284,0.297l-16.009,17.386c-8.789-8.275-18.534-15.518-37.753-15.518
			c-15.124,0-28.879,6.358-38.732,17.905c-8.513,9.975-13.395,22.894-13.395,35.446c0,14.126,4.684,27.424,13.191,37.445
			c9.505,11.197,23.201,17.364,38.563,17.364c22.843,0,35.267-9.891,42.719-18.036l14.772,12.474
			c0.182,0.169,0.339,0.323,0.475,0.464C157.319,467.495,136.918,478.027,111.452,478.027z"/>
	</g>
</g>
<g>
	<g>
		<path d="M485.067,327.35c-13.773-19.457-36.542-29.323-67.676-29.323c-29.468,0-48.643,13.428-59.849,23.743
			c-14.365-15.161-29.747-23.743-56.344-23.743c-25.617,0-42.688,9.977-53.337,19.078l-1.124-2.91
			c-2.179-7.389-8.848-12.119-17.198-12.119h-14.575c-10.425,0-18.906,8.481-18.906,18.907v153.373
			c0,10.249,8.658,18.907,18.906,18.907h32.794c10.249,0,18.907-8.658,18.907-18.907v-89.304
			c5.432-14.799,13.06-20.872,26.031-20.872c13.47,0,20.769,4.665,20.769,29.271v80.904c0,10.602,8.304,18.907,18.907,18.907h33.198
			c10.248,0,18.906-8.658,18.906-18.907v-98.607c1.739-3.181,7.859-11.568,24.007-11.568c13.439,0,22.389,4.977,22.389,29.271
			v80.905c0,10.426,8.481,18.907,18.906,18.907h32.389c10.649,0,19.312-8.481,19.313-18.908v-79.69
			C501.48,364.56,496.264,343.17,485.067,327.35z M481.479,473.263h-30.606V393.45c0-42.87-26.558-49.271-42.389-49.271
			c-33.803,0-43.056,25.03-43.433,26.095c-0.38,1.072-0.574,2.201-0.574,3.339v99.649h-31.012V393.45
			c0-12.186,0-49.271-40.769-49.271c-21.998,0-37.302,12.079-45.488,35.9c-0.359,1.046-0.543,2.145-0.543,3.25v89.933h-30.607
			V322.074h12.284l6.444,16.681c1.265,3.275,4.158,5.647,7.618,6.248c3.457,0.603,6.981-0.658,9.278-3.316
			c6.116-7.08,20.437-23.661,49.516-23.661c23.596,0,34.329,7.968,48.159,24.71c1.821,2.204,4.5,3.523,7.357,3.625
			c2.863,0.104,5.623-1.028,7.595-3.099l0.189-0.199c7.738-8.127,23.835-25.037,52.892-25.037c45.522,0,64.089,22.204,64.089,76.639
			V473.263z"/>
	</g>
</g>
<g>
	<g>
		<path d="M157.089,66.768c-2.203-5.065-8.097-7.384-13.159-5.179l-0.339,0.146c-5.065,2.204-7.383,8.096-5.179,13.16
			c1.638,3.765,5.315,6.013,9.174,6.013c1.332,0,2.686-0.268,3.985-0.834l0.339-0.146C156.975,77.724,159.293,71.832,157.089,66.768
			z"/>
	</g>
</g>
<g>
	<g>
		<path d="M150.467,180.88L35.08,130.553l79.386-34.4c5.067-2.196,7.394-8.084,5.199-13.152c-2.195-5.067-8.086-7.392-13.151-5.199
			L6.023,121.348c-3.652,1.583-6.018,5.183-6.023,9.164c-0.005,3.982,2.353,7.586,6.002,9.178l136.47,59.523
			c1.302,0.567,2.658,0.837,3.993,0.837c3.856,0,7.53-2.244,9.17-6.006C157.843,188.982,155.53,183.088,150.467,180.88z"/>
	</g>
</g>
<g>
	<g>
		<path d="M505.996,122.102L259.875,14.809c-2.542-1.108-5.43-1.111-7.972-0.009l-74.122,32.119
			c-5.067,2.196-7.395,8.084-5.199,13.151c2.196,5.068,8.081,7.393,13.152,5.2l70.133-30.392l221.25,96.451l-104.789,46.3
			c-0.416-2.68-0.754-4.86-0.991-6.38l-0.29-1.839c-0.476-2.986-1.721-5.051-3.253-6.444l0.005-0.006
			c-30.754-27.994-67.769-31.018-69.33-31.132c-5.505-0.415-10.302,3.73-10.707,9.238c-0.406,5.508,3.729,10.302,9.238,10.707
			c0.303,0.022,29.584,2.411,54.757,23.713c1.683,10.806,6.983,45.254,11.924,77.41l-17.037-1.988
			c-6.411-1.44-61.735-13.675-90.644-13.675s-84.232,12.234-90.644,13.675l-17.037,1.987c4.939-32.149,10.24-66.599,11.924-77.407
			c24.897-21.043,54.272-23.674,54.781-23.717c5.496-0.418,9.619-5.206,9.214-10.705c-0.405-5.509-5.223-9.652-10.707-9.238
			c-1.562,0.114-38.576,3.138-69.33,31.132l0.005,0.006c-1.531,1.394-2.777,3.459-3.253,6.444l-0.29,1.839
			c-0.246,1.575-0.6,3.854-1.036,6.668c-0.869,5.618-2.066,13.377-3.385,21.938c-2.638,17.119-5.762,37.446-7.733,50.279
			c-0.946,6.156,0.99,12.257,5.313,16.739c3.775,3.915,8.851,6.056,14.197,6.056c0.777,0,1.562-0.045,2.348-0.137l17.834-2.081
			c0.354-0.041,0.706-0.102,1.054-0.181c0.587-0.133,58.923-13.298,86.746-13.298s86.159,13.165,86.746,13.298
			c0.348,0.079,0.699,0.14,1.054,0.181l17.833,2.081c6.194,0.724,12.221-1.435,16.546-5.919c4.322-4.482,6.259-10.583,5.313-16.738
			c-1.972-12.834-5.096-33.161-7.733-50.28c-0.091-0.594-0.181-1.173-0.271-1.758l53.598-23.682
			c1.557,3.499,5.058,5.943,9.135,5.943c5.522,0,10-4.478,10-10v-4.397l57.821-25.547c3.631-1.604,5.969-5.202,5.959-9.171
			C511.99,127.276,509.634,123.688,505.996,122.102z"/>
	</g>
</g>
<g>
	<g>
		<path d="M438.22,225.437c-5.522,0-10,4.478-10,10v34.703c0,5.522,4.478,10,10,10c5.522,0,10-4.478,10-10v-34.703
			C448.22,229.915,443.742,225.437,438.22,225.437z"/>
	</g>
</g>
<g>
	<g>
		<path d="M445.29,195.292c-1.86-1.86-4.44-2.92-7.07-2.92c-2.639,0-5.21,1.06-7.07,2.92c-1.86,1.859-2.93,4.439-2.93,7.069
			c0,2.64,1.071,5.21,2.93,7.07c1.86,1.87,4.44,2.93,7.07,2.93s5.21-1.06,7.07-2.93c1.86-1.86,2.93-4.439,2.93-7.07
			C448.22,199.731,447.149,197.151,445.29,195.292z"/>
	</g>
</g>
<g>
</g>
<g>
</g>
<g>
</g>
<g>
</g>
<g>
</g>
<g>
</g>
<g>
</g>
<g>
</g>
<g>
</g>
<g>
</g>
<g>
</g>
<g>
</g>
<g>
</g>
<g>
</g>
<g>
</g>
</svg>
