<?xml version="1.0" encoding="iso-8859-1"?>
<!-- Generator: Adobe Illustrator 19.0.0, SVG Export Plug-In . SVG Version: 6.00 Build 0)  -->
<svg version="1.1" id="Capa_1" xmlns="http://www.w3.org/2000/svg" xmlns:xlink="http://www.w3.org/1999/xlink" x="0px" y="0px"
	 viewBox="0 0 512 512" style="enable-background:new 0 0 512 512;" xml:space="preserve">
<g>
	<g>
		<g>
			<path d="M435.474,18.047C426.398,6.578,412.806,0,398.181,0H113.802C87.581,0,66.247,21.333,66.247,47.555v430.464
				c0,14.188,8.563,26.632,21.813,31.702c4.01,1.535,8.151,2.279,12.239,2.279c9.419-0.001,18.559-3.956,25.164-11.322
				l133.777-149.21h78.362c22.154,0,41.186-15.058,46.28-36.618l23.848-100.92c1.271-5.38-2.059-10.772-7.44-12.044
				c-5.385-1.271-10.772,2.06-12.044,7.441l-23.848,100.92c-2.95,12.484-13.969,21.202-26.796,21.202h-82.831
				c-2.845,0-5.555,1.21-7.453,3.327L110.557,487.313c-5.933,6.618-13.243,4.513-15.341,3.709
				c-2.099-0.803-8.947-4.114-8.947-13.003V47.555c0-15.182,12.351-27.535,27.534-27.535h284.379
				c8.468,0,16.337,3.809,21.592,10.448c5.255,6.642,7.151,15.177,5.204,23.418l-13.73,58.105c-1.271,5.38,2.059,10.772,7.44,12.044
				c5.379,1.268,10.773-2.06,12.044-7.44l13.73-58.105C447.824,44.258,444.548,29.516,435.474,18.047z"/>
			<path d="M408.541,156.995h-0.01c-5.529,0-10.005,4.482-10.005,10.01s4.487,10.01,10.015,10.01c5.529,0,10.01-4.482,10.01-10.01
				S414.07,156.995,408.541,156.995z"/>
			<path d="M242.369,158.608h111.367c10.417,0,19.365-7.08,21.762-17.218l13.585-57.491c2.062-8.724,0.054-17.759-5.508-24.789
				c-5.562-7.03-13.893-11.061-22.857-11.061H140.781c-14.604,0-26.485,11.881-26.485,26.486V212.96
				c0,5.528,4.482,10.01,10.01,10.01c5.529,0,10.01-4.483,10.01-10.01V74.532c0-3.566,2.9-6.466,6.465-6.466h219.939
				c2.807,0,5.415,1.262,7.157,3.464c1.742,2.201,2.37,5.03,1.725,7.762l-13.585,57.491c-0.251,1.062-1.188,1.803-2.278,1.803
				H242.369c-20.729,0-38.047,16.587-38.607,36.975c-0.283,10.367,3.538,20.164,10.76,27.588
				c7.224,7.424,16.907,11.514,27.264,11.514h92.869c0.937,0,1.516,0.483,1.836,0.889c0.32,0.404,0.658,1.079,0.442,1.99
				l-13.902,58.83c-0.978,4.138-4.631,7.028-8.882,7.028H254.77c-16.474,0-32.23,7.034-43.229,19.3l-77.226,86.135v-69.266
				c0-5.528-4.482-10.01-10.01-10.01c-5.529,0-10.01,4.482-10.01,10.01v95.426c0,4.148,2.558,7.867,6.432,9.349
				c1.164,0.445,2.375,0.661,3.575,0.661c2.791,0,5.52-1.168,7.456-3.326l94.688-105.612c7.205-8.037,17.529-12.646,28.323-12.646
				h59.379c13.578,0,25.241-9.229,28.365-22.444l13.902-58.83c1.582-6.693,0.041-13.625-4.226-19.018
				c-4.267-5.392-10.659-8.486-17.536-8.486h-92.869c-4.906,0-9.493-1.937-12.915-5.455c-3.421-3.516-5.23-8.159-5.096-13.076
				C224.04,166.461,232.381,158.608,242.369,158.608z"/>
		</g>
	</g>
</g>
<g>
</g>
<g>
</g>
<g>
</g>
<g>
</g>
<g>
</g>
<g>
</g>
<g>
</g>
<g>
</g>
<g>
</g>
<g>
</g>
<g>
</g>
<g>
</g>
<g>
</g>
<g>
</g>
<g>
</g>
</svg>
