<?xml version="1.0" encoding="iso-8859-1"?>
<!-- Generator: Adobe Illustrator 19.0.0, SVG Export Plug-In . SVG Version: 6.00 Build 0)  -->
<svg version="1.1" id="Capa_1" xmlns="http://www.w3.org/2000/svg" xmlns:xlink="http://www.w3.org/1999/xlink" x="0px" y="0px"
	 viewBox="0 0 512 512" style="enable-background:new 0 0 512 512;" xml:space="preserve">
<g>
	<g>
		<path d="M445.313,36.757l-0.45-0.452c-3.912-3.898-10.244-3.887-14.142,0.026s-3.887,10.244,0.026,14.142l0.347,0.349
			c1.956,1.978,4.532,2.968,7.11,2.968c2.54,0,5.082-0.963,7.031-2.89C449.162,47.016,449.197,40.684,445.313,36.757z"/>
	</g>
</g>
<g>
	<g>
		<path d="M400.557,256l44.319-44.319c17.9-17.902,29.759-40.482,34.292-65.299c4.426-24.232,1.631-48.955-8.082-71.496
			c-2.185-5.072-8.066-7.412-13.141-5.227c-5.072,2.186-7.412,8.07-5.226,13.141c16.968,39.377,8.338,84.414-21.986,114.738
			l-51.39,51.39c-3.905,3.906-3.905,10.238,0,14.143l51.39,51.39c40.549,40.55,40.549,106.528,0,147.078
			C411.09,481.183,384.974,492,357.194,492c-27.78,0-53.896-10.817-73.539-30.462l-27.4-27.399
			c-2.272-2.273-5.496-3.314-8.668-2.801c-3.172,0.514-5.904,2.52-7.343,5.392C223.161,470.822,188.883,492,150.788,492
			c-55.14,0-100-44.859-100-100V120c0-55.141,44.86-100,100-100c38.095,0,72.373,21.178,89.457,55.269
			c1.439,2.872,4.171,4.878,7.343,5.392c3.169,0.512,6.396-0.53,8.668-2.801l27.4-27.399c31.14-31.139,78.733-39.299,118.435-20.307
			c4.982,2.384,10.953,0.278,13.336-4.705c2.383-4.982,0.276-10.953-4.706-13.336C363.384-10.534,306.637-0.806,269.513,36.318
			l-18.161,18.161C229.333,20.566,191.916,0,150.788,0c-66.168,0-120,53.832-120,120v272c0,66.168,53.832,120,120,120
			c41.128,0,78.545-20.566,100.563-54.48l18.161,18.162c23.421,23.42,54.56,36.318,87.682,36.318s64.261-12.898,87.682-36.319
			c48.347-48.347,48.347-127.015,0-175.363L400.557,256z"/>
	</g>
</g>
<g>
	<g>
		<path d="M88.866,226c-5.523,0-10,4.478-10,10v83.5c0,5.522,4.477,10,10,10c5.523,0,10-4.478,10-10V236
			C98.866,230.478,94.389,226,88.866,226z"/>
	</g>
</g>
<g>
	<g>
		<path d="M88.866,182.5c-5.523,0-10,4.478-10,10v0.118c0,5.522,4.477,10,10,10c5.523,0,10-4.477,10-10V192.5
			C98.866,186.978,94.389,182.5,88.866,182.5z"/>
	</g>
</g>
<g>
</g>
<g>
</g>
<g>
</g>
<g>
</g>
<g>
</g>
<g>
</g>
<g>
</g>
<g>
</g>
<g>
</g>
<g>
</g>
<g>
</g>
<g>
</g>
<g>
</g>
<g>
</g>
<g>
</g>
</svg>
