<?xml version="1.0" encoding="iso-8859-1"?>
<!-- Generator: Adobe Illustrator 19.0.0, SVG Export Plug-In . SVG Version: 6.00 Build 0)  -->
<svg version="1.1" id="Capa_1" xmlns="http://www.w3.org/2000/svg" xmlns:xlink="http://www.w3.org/1999/xlink" x="0px" y="0px"
	 viewBox="0 0 512 512" style="enable-background:new 0 0 512 512;" xml:space="preserve">
<g>
	<g>
		<path d="M437.019,74.98C388.667,26.629,324.38,0,256,0c-46.759,0-92.515,12.727-132.32,36.805
			c-4.725,2.858-6.239,9.006-3.38,13.732c2.858,4.726,9.007,6.238,13.732,3.381C170.714,31.729,212.89,20,256,20
			c130.131,0,236,105.869,236,236S386.131,492,256,492S20,386.131,20,256c0-47.86,14.245-93.94,41.195-133.259
			c3.122-4.554,1.96-10.779-2.595-13.901c-4.555-3.122-10.779-1.961-13.902,2.595C15.456,154.096,0,204.086,0,256
			c0,68.38,26.628,132.667,74.981,181.02C123.333,485.371,187.62,512,256,512s132.667-26.629,181.019-74.98
			C485.372,388.667,512,324.38,512,256S485.372,123.333,437.019,74.98z"/>
	</g>
</g>
<g>
	<g>
		<path d="M90.189,74.04c-3.872-3.939-10.205-3.991-14.142-0.12l-0.266,0.267c-3.838,3.971-3.731,10.302,0.24,14.14
			c1.941,1.877,4.446,2.811,6.949,2.811c2.583,0,5.163-0.995,7.117-2.975C94.007,84.29,94.054,77.973,90.189,74.04z"/>
	</g>
</g>
<g>
	<g>
		<path d="M405.948,391.806c-3.881-3.928-10.212-3.966-14.142-0.083l-0.208,0.208c-3.882,3.928-3.845,10.259,0.083,14.142
			c1.949,1.927,4.489,2.888,7.029,2.888c2.579,0,5.157-0.991,7.113-2.971l0.042-0.042
			C409.793,402.066,409.83,395.735,405.948,391.806z"/>
	</g>
</g>
<g>
	<g>
		<path d="M256,44C139.103,44,44,139.103,44,256s95.103,212,212,212c41.9,0,82.419-12.207,117.177-35.301
			c4.6-3.056,5.852-9.262,2.795-13.863c-3.056-4.6-9.263-5.853-13.863-2.795C330.642,436.949,293.95,448,256,448
			c-105.869,0-192-86.131-192-192S150.131,64,256,64s192,86.131,192,192c0,35.926-9.98,70.953-28.863,101.296
			c-2.918,4.688-1.482,10.855,3.207,13.773c4.689,2.918,10.856,1.483,13.774-3.207C456.975,334.346,468,295.664,468,256
			C468,139.103,372.897,44,256,44z"/>
	</g>
</g>
<g>
	<g>
		<path d="M256.127,218c-20.953,0-38,17.047-38,38s17.047,38,38,38s38-17.047,38-38S277.08,218,256.127,218z M256.127,274
			c-9.925,0-18-8.075-18-18s8.075-18,18-18s18,8.075,18,18S266.052,274,256.127,274z"/>
	</g>
</g>
<g>
	<g>
		<path d="M166.979,218c-20.953,0-38,17.047-38,38s17.047,38,38,38s38-17.047,38-38S187.932,218,166.979,218z M166.979,274
			c-9.925,0-18-8.075-18-18s8.075-18,18-18s18,8.075,18,18S176.904,274,166.979,274z"/>
	</g>
</g>
<g>
	<g>
		<path d="M345.021,218c-20.953,0-38,17.047-38,38s17.047,38,38,38s38-17.047,38-38S365.974,218,345.021,218z M345.021,274
			c-9.925,0-18-8.075-18-18s8.075-18,18-18c9.925,0,18,8.075,18,18S354.946,274,345.021,274z"/>
	</g>
</g>
<g>
	<g>
		<path d="M256,128.979c-20.953,0-38,17.047-38,38s17.047,38,38,38s38-17.047,38-38S276.953,128.979,256,128.979z M256,184.979
			c-9.925,0-18-8.075-18-18s8.075-18,18-18s18,8.075,18,18S265.925,184.979,256,184.979z"/>
	</g>
</g>
<g>
	<g>
		<path d="M256,307.021c-20.953,0-38,17.047-38,38s17.047,38,38,38s38-17.047,38-38S276.953,307.021,256,307.021z M256,363.021
			c-9.925,0-18-8.075-18-18s8.075-18,18-18s18,8.075,18,18S265.925,363.021,256,363.021z"/>
	</g>
</g>
<g>
</g>
<g>
</g>
<g>
</g>
<g>
</g>
<g>
</g>
<g>
</g>
<g>
</g>
<g>
</g>
<g>
</g>
<g>
</g>
<g>
</g>
<g>
</g>
<g>
</g>
<g>
</g>
<g>
</g>
</svg>
