<?xml version="1.0" encoding="iso-8859-1"?>
<!-- Generator: Adobe Illustrator 19.0.0, SVG Export Plug-In . SVG Version: 6.00 Build 0)  -->
<svg version="1.1" id="Capa_1" xmlns="http://www.w3.org/2000/svg" xmlns:xlink="http://www.w3.org/1999/xlink" x="0px" y="0px"
	 viewBox="0 0 511.999 511.999" style="enable-background:new 0 0 511.999 511.999;" xml:space="preserve">
<g>
	<g>
		<path d="M158.474,58.855c-2.761-4.784-8.878-6.423-13.661-3.662l-0.269,0.155c-4.784,2.761-6.425,8.877-3.663,13.661
			c1.852,3.209,5.214,5.003,8.671,5.003c1.696,0,3.415-0.433,4.991-1.341l0.269-0.155C159.595,69.755,161.235,63.639,158.474,58.855
			z"/>
	</g>
</g>
<g>
	<g>
		<path d="M477.983,129.044c-0.607-6.539-4.364-12.402-10.052-15.686L285.011,7.749c-17.896-10.332-40.13-10.332-58.024,0
			l-50.801,29.329c-4.783,2.761-6.423,8.878-3.66,13.661c2.761,4.782,8.877,6.423,13.661,3.66l50.802-29.329
			c11.726-6.771,26.294-6.771,38.021,0L457.931,130.68c0.072,0.042,0.124,0.071,0.137,0.214c0.013,0.14-0.032,0.179-0.095,0.233
			c-0.051,0.044-0.115,0.067-0.18,0.067H147.229c-27.581,0-50.02,22.439-50.02,50.02c0,27.582,22.438,50.021,50.02,50.021h57.074
			c7.056,0,13.44,3.609,17.078,9.655c3.637,6.046,3.836,13.376,0.531,19.61L136.382,421.84c-0.751,1.416-2.013,2.441-3.554,2.883
			c-1.541,0.444-3.155,0.246-4.543-0.556l-62.769-36.24C53.789,381.156,46.504,368.54,46.504,355V156.999
			c0-13.54,7.285-26.158,19.011-32.928l53.779-31.049c4.783-2.761,6.423-8.878,3.66-13.661c-2.761-4.784-8.878-6.423-13.661-3.66
			l-53.779,31.049c-17.895,10.332-29.012,29.587-29.012,50.25V355c0,20.663,11.116,39.918,29.012,50.25l62.77,36.24
			c3.992,2.305,8.404,3.479,12.875,3.479c2.399,0,4.816-0.338,7.195-1.022c6.807-1.956,12.383-6.481,15.701-12.738l85.528-161.338
			c6.623-12.489,6.225-27.178-1.064-39.29c-7.288-12.114-20.079-19.346-34.216-19.346h-57.074
			c-16.552,0-30.018-13.466-30.018-30.019c0-16.552,13.466-30.018,30.018-30.018h310.563c4.839,0,9.527-1.736,13.201-4.886
			C475.978,142.036,478.59,135.581,477.983,129.044z"/>
	</g>
</g>
<g>
	<g>
		<path d="M471.819,211.232h-89.184c-27.152,0-51.918,14.902-64.634,38.891L198.043,476.408c-2.521,4.755-0.826,10.655,3.835,13.345
			l25.109,14.496c8.948,5.167,18.979,7.75,29.012,7.75c10.031,0,20.066-2.584,29.011-7.75l171.475-99
			c17.895-10.332,29.012-29.587,29.012-50.25V224.91C485.497,217.368,479.361,211.232,471.819,211.232z M465.495,355
			c0,13.54-7.285,26.157-19.011,32.928l-171.475,99c-11.726,6.77-26.295,6.77-38.021,0l-16.756-9.674l115.439-217.763
			c9.24-17.43,27.235-28.257,46.963-28.257h82.86V355z"/>
	</g>
</g>
<g>
	<g>
		<path d="M431.493,324.006c-5.524,0-10.001,4.478-10.001,10.001v70.507c0,5.523,4.477,10.001,10.001,10.001
			s10.001-4.478,10.001-10.001v-70.507C441.494,328.484,437.016,324.006,431.493,324.006z"/>
	</g>
</g>
<g>
	<g>
		<path d="M431.493,288.12c-5.524,0-10.001,4.478-10.001,10.001v0.118c0,5.523,4.477,10.001,10.001,10.001
			s10.001-4.477,10.001-10.001v-0.118C441.494,292.599,437.016,288.12,431.493,288.12z"/>
	</g>
</g>
<g>
</g>
<g>
</g>
<g>
</g>
<g>
</g>
<g>
</g>
<g>
</g>
<g>
</g>
<g>
</g>
<g>
</g>
<g>
</g>
<g>
</g>
<g>
</g>
<g>
</g>
<g>
</g>
<g>
</g>
</svg>
