<?xml version="1.0" encoding="iso-8859-1"?>
<!-- Generator: Adobe Illustrator 19.0.0, SVG Export Plug-In . SVG Version: 6.00 Build 0)  -->
<svg version="1.1" id="Capa_1" xmlns="http://www.w3.org/2000/svg" xmlns:xlink="http://www.w3.org/1999/xlink" x="0px" y="0px"
	 viewBox="0 0 512 512" style="enable-background:new 0 0 512 512;" xml:space="preserve">
<g>
	<g>
		<path d="M90.023,423.772l-0.269-0.267c-3.927-3.886-10.259-3.851-14.142,0.077c-3.884,3.927-3.85,10.258,0.077,14.142l0.269,0.267
			c1.949,1.929,4.491,2.891,7.032,2.891c2.577,0,5.154-0.99,7.11-2.968C93.984,433.987,93.95,427.656,90.023,423.772z"/>
	</g>
</g>
<g>
	<g>
		<path d="M437.019,74.98C388.667,26.629,324.38,0,256,0S123.333,26.629,74.981,74.98C26.628,123.333,0,187.62,0,256
			c0,53.168,16.149,104.154,46.701,147.447c3.186,4.512,9.425,5.59,13.937,2.404c4.512-3.185,5.589-9.424,2.404-13.936
			C34.884,352.015,20,305.016,20,256C20,125.869,125.869,20,256,20s236,105.869,236,236S386.131,492,256,492
			c-49.309,0-96.538-15.047-136.581-43.513c-4.5-3.201-10.743-2.145-13.944,2.356c-3.201,4.501-2.145,10.744,2.356,13.944
			C151.279,495.674,202.515,512,256,512c68.38,0,132.667-26.629,181.019-74.98C485.372,388.667,512,324.38,512,256
			S485.372,123.333,437.019,74.98z"/>
	</g>
</g>
<g>
	<g>
		<path d="M256,54c-89.865,0-162.976,73.11-162.975,162.975c0,39.351,23.837,96.535,63.765,152.971
			C185.528,410.565,228.755,458,256,458s70.472-47.435,99.211-88.053c39.928-56.436,63.765-113.62,63.765-152.971
			C418.976,127.11,345.865,54,256,54z M338.884,358.395C300.036,413.303,267.03,438,256,438c-11.03,0-44.036-24.697-82.884-79.605
			c-37.628-53.184-60.092-106.051-60.092-141.419C113.024,138.139,177.163,74,256,74s142.976,64.139,142.976,142.976
			C398.976,252.344,376.511,305.211,338.884,358.395z"/>
	</g>
</g>
<g>
	<g>
		<path d="M256.099,114.878c-9.092,0-18.133,1.186-26.873,3.526c-4.09,1.096-7.047,4.649-7.382,8.871
			c-0.335,4.222,2.027,8.195,5.894,9.921c9.664,4.312,15.909,13.927,15.909,24.495c0,14.785-12.028,26.813-26.813,26.813
			c-14.201,0-25.957-11.094-26.764-25.256c-0.241-4.227-3.119-7.844-7.183-9.031c-4.064-1.187-8.435,0.315-10.912,3.751
			c-12.78,17.721-19.535,38.666-19.535,60.568c0,57.158,46.501,103.659,103.659,103.659c10.631,0,21.118-1.605,31.172-4.771
			c5.267-1.659,8.193-7.274,6.534-12.542c-1.66-5.268-7.273-8.191-12.542-6.534c-8.107,2.553-16.574,3.848-25.164,3.848
			c-46.13,0-83.659-37.529-83.659-83.659c0-10.566,1.946-20.855,5.714-30.475c8.455,12.373,22.678,20.442,38.679,20.442
			c25.813,0,46.813-21,46.813-46.813c0-9.783-3.062-19.096-8.453-26.809c0.302-0.003,0.604-0.005,0.906-0.005
			c46.13,0,83.659,37.529,83.659,83.658c0,8.489-1.265,16.861-3.76,24.883c-1.64,5.274,1.306,10.879,6.579,12.519
			c5.275,1.641,10.879-1.306,12.519-6.579c3.094-9.947,4.662-20.317,4.662-30.822C359.758,161.379,313.257,114.878,256.099,114.878z
			"/>
	</g>
</g>
<g>
	<g>
		<path d="M329.367,277.662c-3.921-3.889-10.252-3.863-14.142,0.057l-0.293,0.292c-3.928,3.882-3.966,10.214-0.085,14.143
			c1.956,1.981,4.534,2.972,7.114,2.972c2.539,0,5.08-0.961,7.027-2.886l0.436-0.435
			C333.313,287.884,333.288,281.551,329.367,277.662z"/>
	</g>
</g>
<g>
</g>
<g>
</g>
<g>
</g>
<g>
</g>
<g>
</g>
<g>
</g>
<g>
</g>
<g>
</g>
<g>
</g>
<g>
</g>
<g>
</g>
<g>
</g>
<g>
</g>
<g>
</g>
<g>
</g>
</svg>
