<?xml version="1.0" encoding="iso-8859-1"?>
<!-- Generator: Adobe Illustrator 19.0.0, SVG Export Plug-In . SVG Version: 6.00 Build 0)  -->
<svg version="1.1" id="Capa_1" xmlns="http://www.w3.org/2000/svg" xmlns:xlink="http://www.w3.org/1999/xlink" x="0px" y="0px"
	 viewBox="0 0 512 512" style="enable-background:new 0 0 512 512;" xml:space="preserve">
<g>
	<g>
		<path d="M52.979,146.4c-3.915-3.891-10.275-3.842-14.169,0.073l-0.162,0.163c-3.875,3.936-3.826,10.267,0.11,14.142
			c1.948,1.918,4.482,2.875,7.016,2.875c2.585,0,5.169-0.997,7.126-2.985l0.089-0.09c0.003-0.003,0.069-0.07,0.072-0.073
			C56.949,156.587,56.895,150.291,52.979,146.4z"/>
	</g>
</g>
<g>
	<g>
		<path d="M496.041,259.452c-12.421-16.093-32.196-26.902-62.236-34.017c-3.334-0.789-6.526-1.54-9.582-2.258
			C373.129,211.167,369,208.923,369,193.166c0-16.53,16.586-20,30.5-20c11.635,0,31.6,3.292,34.591,25.344
			c0.321,2.367,1.483,4.56,3.295,6.159c3.334,2.945,6.775,2.617,10.108,2.303c1.605-0.152,3.871-0.393,6.576-0.696
			c4.694-0.525,11.192-1.288,19.313-2.267c13.959-1.683,27.857-3.42,27.857-3.42c4.915-0.614,8.641-4.735,8.757-9.687
			c0.028-1.195,0.432-29.541-22.054-52.563C469.577,119.535,441.896,110,405.667,110c-44.859,0-76.859,11.456-95.112,34.049
			C294.819,163.526,293,186.261,293,201.667c0,19.785,5.533,36.584,16.448,49.93c14.302,17.488,37.962,29.237,70.324,34.919
			c25.668,4.505,42.445,10.192,49.866,16.9c4.27,3.861,4.433,7.093,4.374,13.458c-0.006,0.604-0.011,1.201-0.011,1.792
			c0,10.958-17.383,17.5-46.5,17.5c-25.508,0-41.01-3.791-53.506-13.086c-15.047-11.192-26.786-31.649-36.943-64.378
			c-0.93-2.994-1.849-5.983-2.765-8.962c-11.016-35.811-21.421-69.638-43.02-95.702C226.712,124.405,190.861,110,141.667,110
			c-22.734,0-43.134,3.28-60.632,9.748c-5.18,1.915-7.827,7.667-5.912,12.847c1.914,5.18,7.664,7.828,12.848,5.912
			c15.269-5.645,33.336-8.507,53.696-8.507c43.464,0,73.396,11.694,94.2,36.8c19.054,22.994,28.89,54.969,39.303,88.821
			c0.921,2.994,1.844,5.999,2.779,9.01c11.475,36.977,25.492,60.649,44.108,74.497c20.185,15.015,44.409,17.039,65.442,17.039
			c23.517,0,40.445-3.708,51.753-11.335c9.51-6.413,14.747-15.706,14.747-26.165c0-0.531,0.005-1.067,0.01-1.609
			c0.067-7.333,0.169-18.416-10.962-28.477c-10.547-9.535-29.554-16.451-59.818-21.764C320.28,255.766,313,224.342,313,201.667
			c0-30.765,9.606-71.667,92.667-71.667c30.472,0,53.261,7.427,67.735,22.076c10.1,10.221,14.055,22.085,15.604,29.88
			c-14.394,1.778-28.64,3.491-37.204,4.452c-7.826-24.305-31.313-33.241-52.302-33.241c-7.964,0-19.591,1.059-29.758,6.105
			C356.366,165.91,349,177.948,349,193.167c0,16.221,5.592,26.589,18.13,33.617c10.815,6.061,26.511,9.75,52.516,15.863
			c3.045,0.715,6.227,1.463,9.549,2.25C481.991,257.401,492,280.002,492,317.333c0,8.949-1.956,17.265-5.814,24.721
			c-2.538,4.906-0.619,10.94,4.286,13.478c1.47,0.76,3.04,1.12,4.588,1.12c3.618,0,7.111-1.971,8.889-5.407
			c5.342-10.324,8.051-21.734,8.051-33.912C512,291.602,507.078,273.752,496.041,259.452z"/>
	</g>
</g>
<g>
	<g>
		<path d="M478.845,367.396c-2.997-4.638-9.185-5.972-13.826-2.973l-0.225,0.143c-4.675,2.938-6.085,9.111-3.147,13.788
			c1.901,3.024,5.153,4.681,8.478,4.681c1.817,0,3.657-0.495,5.309-1.534l0.438-0.279
			C480.511,378.225,481.842,372.036,478.845,367.396z"/>
	</g>
</g>
<g>
	<g>
		<path d="M444.851,384.839c-1.269-5.375-6.652-8.706-12.03-7.435C419.903,380.454,405.159,382,389,382
			c-83.162,0-128.565-31.03-147.216-100.61c-12.458-46.478-22.883-73.215-35.984-92.284c-15.921-23.174-36.681-34.439-63.467-34.439
			c-28.394,0-50.975,11.66-65.303,33.72C65.234,206.546,59,232.002,59,262c0,54.954,32.897,93.334,80,93.334
			c28.334,0,52.198-14.271,65.592-24.426l10.492,28.369C204.384,366.64,176.269,382,128,382c-79.628,0-108-62.677-108-121.333
			c0-28.697,4.754-53.23,14.128-72.918c2.375-4.986,0.258-10.953-4.729-13.328c-4.984-2.374-10.953-0.257-13.327,4.729
			C5.407,201.546,0,228.972,0,260.667c0,37.852,10.465,72.223,29.466,96.781C52.019,386.594,86.091,402,128,402
			c71.885,0,104.595-30.832,105.95-32.145c2.852-2.757,3.804-6.937,2.428-10.657l-18-48.667c-1.186-3.208-3.936-5.579-7.28-6.3
			c-3.339-0.721-6.829,0.325-9.231,2.76c-0.279,0.283-28.364,28.343-62.867,28.343c-35.888,0-60-29.471-60-73.334
			c0-26.122,5.119-47.81,14.803-62.719c10.758-16.563,26.632-24.614,48.53-24.614c37.955,0,57.427,27.191,80.133,111.9
			C243.575,365.32,296.492,402,389,402c17.704,0,33.994-1.727,48.416-5.131C442.791,395.601,446.12,390.215,444.851,384.839z"/>
	</g>
</g>
<g>
</g>
<g>
</g>
<g>
</g>
<g>
</g>
<g>
</g>
<g>
</g>
<g>
</g>
<g>
</g>
<g>
</g>
<g>
</g>
<g>
</g>
<g>
</g>
<g>
</g>
<g>
</g>
<g>
</g>
</svg>
