<?xml version="1.0" encoding="iso-8859-1"?>
<!-- Generator: Adobe Illustrator 19.0.0, SVG Export Plug-In . SVG Version: 6.00 Build 0)  -->
<svg version="1.1" id="Capa_1" xmlns="http://www.w3.org/2000/svg" xmlns:xlink="http://www.w3.org/1999/xlink" x="0px" y="0px"
	 viewBox="0 0 512 512" style="enable-background:new 0 0 512 512;" xml:space="preserve">
<g>
	<g>
		<path d="M477.036,82.987c-24.133-29.544-58.439-45.815-96.597-45.815c-45.63,0-92.278,21.399-124.439,56.5
			c-32.162-35.102-78.809-56.5-124.44-56.5c-38.158,0-72.463,16.271-96.596,45.815C12.417,110.59,0,147.742,0,187.598
			c0,139.297,143.469,229.994,251.385,286.097c1.453,0.756,3.041,1.133,4.627,1.133c1.699,0,3.394-0.432,4.916-1.294
			c49.827-25.918,122.09-66.648,175.58-121.375c3.86-3.951,3.788-10.282-0.161-14.142c-3.954-3.862-10.283-3.788-14.142,0.161
			C372.218,389.32,304.392,428.186,256,453.544C153.285,399.689,20,314.106,20,187.598c0-64.814,38.32-130.426,111.558-130.426
			c42.864,0,88.633,22.81,116.603,58.112c1.897,2.394,4.783,3.79,7.838,3.79s5.942-1.396,7.838-3.79
			c27.969-35.301,73.738-58.112,116.602-58.112C453.68,57.172,492,122.785,492,187.598c0,28.77-7.014,57.122-20.846,84.269
			c-2.507,4.921-0.551,10.942,4.37,13.45c4.918,2.509,10.942,0.553,13.45-4.37C504.253,250.962,512,219.555,512,187.598
			C512,147.741,499.583,110.59,477.036,82.987z"/>
	</g>
</g>
<g>
	<g>
		<path d="M464.844,300.881c-4.379-2.626-9.963-1.512-13.026,2.419c-3.084,3.924-2.817,9.623,0.8,13.241
			c1.953,1.952,4.511,2.929,7.071,2.929s5.119-0.977,7.071-2.929c0.578-0.578,1.094-1.239,1.515-1.94
			C471.115,309.865,469.58,303.723,464.844,300.881z"/>
	</g>
</g>
<g>
	<g>
		<path d="M148.937,242.05c-1.859-1.87-4.439-2.94-7.08-2.94c-2.63,0-5.21,1.07-7.069,2.94c-1.861,1.85-2.931,4.43-2.931,7.06
			c0,2.64,1.071,5.21,2.931,7.07c1.859,1.87,4.439,2.93,7.069,2.93c2.641,0,5.221-1.06,7.08-2.93c1.86-1.86,2.92-4.429,2.92-7.07
			C151.857,246.48,150.797,243.91,148.937,242.05z"/>
	</g>
</g>
<g>
	<g>
		<path d="M410.907,130.113c-1.889-2.511-4.849-3.988-7.991-3.988h-53.588c-4.469,0-8.395,2.965-9.618,7.263l-30.36,106.671
			l-15.148-52.592c-1.233-4.283-5.152-7.232-9.609-7.232h-57.007c-4.457,0-8.376,2.949-9.609,7.232l-15.148,52.592l-30.36-106.671
			c-1.224-4.298-5.149-7.263-9.618-7.263h-53.587c-3.143,0-6.103,1.477-7.991,3.988c-1.89,2.511-2.488,5.765-1.617,8.784
			l21.481,74.453c1.532,5.308,7.071,8.367,12.381,6.836c5.306-1.531,8.366-7.074,6.836-12.38l-17.797-61.681H155.3l37.854,132.999
			c1.222,4.292,5.14,7.256,9.603,7.263c0.005,0,0.011,0,0.016,0c4.456,0,8.376-2.949,9.609-7.232l22.732-78.92h41.954
			l41.997,145.274h-32.376l-21.002-71.624c-1.249-4.26-5.156-7.187-9.596-7.187s-8.347,2.927-9.596,7.187l-21.002,71.624h-45.409
			l-17.672-61.25c-1.532-5.306-7.074-8.363-12.381-6.836c-5.306,1.531-8.366,7.074-6.836,12.381l19.758,68.478
			c1.235,4.28,5.153,7.228,9.608,7.228h60.421c4.439,0,8.347-2.927,9.596-7.187l13.513-46.083l13.513,46.083
			c1.249,4.26,5.156,7.187,9.596,7.187h60.421c4.455,0,8.373-2.947,9.608-7.228l63.298-219.384
			C413.396,135.877,412.797,132.624,410.907,130.113z M335.989,332.015l-16.104-55.909l23.119-81.229h32.553L335.989,332.015z
			 M381.327,174.876h-32.632l8.184-28.752h32.744L381.327,174.876z"/>
	</g>
</g>
<g>
</g>
<g>
</g>
<g>
</g>
<g>
</g>
<g>
</g>
<g>
</g>
<g>
</g>
<g>
</g>
<g>
</g>
<g>
</g>
<g>
</g>
<g>
</g>
<g>
</g>
<g>
</g>
<g>
</g>
</svg>
