<?xml version="1.0" encoding="iso-8859-1"?>
<!-- Generator: Adobe Illustrator 19.0.0, SVG Export Plug-In . SVG Version: 6.00 Build 0)  -->
<svg version="1.1" id="Capa_1" xmlns="http://www.w3.org/2000/svg" xmlns:xlink="http://www.w3.org/1999/xlink" x="0px" y="0px"
	 viewBox="0 0 512 512" style="enable-background:new 0 0 512 512;" xml:space="preserve">
<g>
	<g>
		<path d="M437.02,74.981C388.667,26.629,324.38,0,256,0S123.333,26.629,74.98,74.981C26.629,123.333,0,187.62,0,256
			c0,101.896,60.379,194.05,153.822,234.773c1.279,0.558,2.64,0.833,3.994,0.833c1.904,0,3.796-0.543,5.444-1.606
			c2.816-1.825,4.529-4.941,4.561-8.296c0.22-22.951,2.932-45.91,8.04-68.163l25.534-107.439c1.686-7.095,1.911-14.339,0.671-21.53
			l-3.396-19.655c-0.294-1.698-0.442-3.434-0.442-5.162v-5.125c0-16.313,4.745-32.133,13.723-45.75
			c4.667-7.079,12.514-11.307,20.991-11.308h0.688c0.002,0,0.002,0,0.005,0c11.152,0,20.849,7.624,23.579,18.544l0.277,1.107
			c1.972,7.889,1.944,16.221-0.079,24.096l-18.572,72.282c-3.454,13.444-0.589,27.481,7.862,38.511
			c8.322,10.863,20.89,17.185,34.494,17.345l0.649,0.004c52.949,0,91.381-54.064,91.381-128.552
			c0-32.694-11.807-62.195-33.245-83.068c-21.361-20.797-51.51-32.251-84.894-32.251c-37.376,0-69.64,13.09-93.301,37.853
			c-21.352,22.345-33.597,53.142-33.597,84.495c0,19.52,6.115,41.574,15.959,57.554c1.317,2.139,1.615,4.678,0.817,6.965
			l-5.661,16.22c-0.413,1.183-1.352,1.592-1.875,1.73c-0.62,0.166-1.54,0.202-2.403-0.551
			c-19.801-17.28-34.172-52.138-34.172-82.887c0-72.607,47.415-128.719,120.795-142.95c5.422-1.052,8.964-6.299,7.913-11.721
			c-1.052-5.422-6.302-8.97-11.722-7.913c-42.315,8.207-77.598,28.821-102.033,59.614c-22.54,28.405-34.953,64.973-34.953,102.97
			c0,36.598,16.869,76.878,41.022,97.956c5.665,4.942,13.394,6.743,20.671,4.815c7.305-1.934,13.152-7.345,15.64-14.475
			l5.661-16.221c2.789-7.994,1.815-16.757-2.671-24.042c-7.89-12.81-12.988-31.283-12.988-47.066
			c0-49.616,37.464-102.348,106.897-102.348c57.783,0,98.139,39.196,98.139,95.319c0,31.505-7.683,59.849-21.632,79.812
			c-12.952,18.533-30.619,28.74-49.749,28.74l-0.423-0.002c-7.413-0.088-14.281-3.554-18.844-9.51
			c-4.692-6.124-6.284-13.913-4.368-21.37l18.572-72.282c2.848-11.087,2.887-22.818,0.109-33.928l-0.277-1.107
			c-4.959-19.837-22.632-33.69-42.979-33.69c-0.003,0-0.006,0-0.009,0h-0.688c-15.22,0.003-29.309,7.591-37.687,20.299
			c-11.137,16.894-17.025,36.521-17.025,56.758v5.125c0,2.864,0.247,5.747,0.733,8.566l3.396,19.654
			c0.778,4.51,0.637,9.053-0.421,13.503l-25.55,107.513c-4.298,18.716-6.999,37.845-8.063,57.06C69.897,425.826,20,344.938,20,256
			C20,125.869,125.869,20,256,20s236,105.869,236,236c0,64.727-25.684,125.105-72.32,170.014c-3.979,3.831-4.098,10.161-0.267,14.14
			c3.832,3.978,10.161,4.098,14.14,0.267c24.54-23.631,43.836-51.39,57.354-82.505C504.903,325.698,512,291.409,512,256
			C512,187.62,485.371,123.333,437.02,74.981z"/>
	</g>
</g>
<g>
	<g>
		<path d="M400.125,455.66c-3.041-4.609-9.242-5.881-13.854-2.839l-0.723,0.478c-4.61,3.041-5.881,9.245-2.839,13.854
			c1.922,2.914,5.108,4.493,8.355,4.493c1.891,0,3.803-0.536,5.499-1.654l0.723-0.478
			C401.896,466.473,403.167,460.269,400.125,455.66z"/>
	</g>
</g>
<g>
	<g>
		<path d="M396.704,141.124c-22.219-27.139-52.882-46.23-88.675-55.209c-5.357-1.345-10.79,1.909-12.133,7.266
			s1.91,10.789,7.266,12.133c64.807,16.257,108.348,70.314,108.348,134.515c0,86.098-53.456,151.025-124.344,151.025
			c-17.625,0-37.617-10.367-47.479-20.121c-2.545-2.517-6.244-3.482-9.696-2.529c-3.452,0.954-6.129,3.681-7.021,7.15l-7.197,28.012
			c-7.201,28.024-17.774,55.172-31.424,80.688l-2.392,4.47c-1.434,2.682-1.571,5.871-0.37,8.666c1.201,2.795,3.608,4.89,6.542,5.695
			C210.176,508.934,233.011,512,256,512c31.512,0,62.284-5.661,91.462-16.825c5.159-1.974,7.741-7.755,5.767-12.913
			c-1.975-5.16-7.758-7.738-12.913-5.767C313.428,486.783,285.06,492,256,492c-17,0-33.905-1.817-50.415-5.412
			c12.674-24.9,22.606-51.185,29.559-78.246l3.382-13.164c13.259,8.628,31.04,15.676,48.641,15.676
			c40.412,0,77.414-18.013,104.19-50.721c25.893-31.63,40.153-74.355,40.153-120.305
			C431.51,203.069,419.474,168.937,396.704,141.124z"/>
	</g>
</g>
<g>
	<g>
		<path d="M263.597,80.315c-0.562-0.005-1.127-0.007-1.69-0.007c-5.522,0-10,4.477-10,10s4.478,10,10,10
			c0.503,0,1.005,0.002,1.507,0.006c0.031,0,0.063,0,0.094,0c5.479,0,9.947-4.417,9.997-9.908
			C273.555,84.884,269.119,80.366,263.597,80.315z"/>
	</g>
</g>
<g>
</g>
<g>
</g>
<g>
</g>
<g>
</g>
<g>
</g>
<g>
</g>
<g>
</g>
<g>
</g>
<g>
</g>
<g>
</g>
<g>
</g>
<g>
</g>
<g>
</g>
<g>
</g>
<g>
</g>
</svg>
