<?xml version="1.0" encoding="iso-8859-1"?>
<!-- Generator: Adobe Illustrator 19.0.0, SVG Export Plug-In . SVG Version: 6.00 Build 0)  -->
<svg version="1.1" id="Capa_1" xmlns="http://www.w3.org/2000/svg" xmlns:xlink="http://www.w3.org/1999/xlink" x="0px" y="0px"
	 viewBox="0 0 512.001 512.001" style="enable-background:new 0 0 512.001 512.001;" xml:space="preserve">
<g>
	<g>
		<path d="M87.74,198.437c-4.131-3.664-10.451-3.287-14.117,0.843l-0.189,0.217c-3.604,4.185-3.136,10.502,1.049,14.106
			c1.89,1.627,4.211,2.424,6.523,2.424c2.808,0,5.6-1.178,7.577-3.473C92.248,208.423,91.871,202.103,87.74,198.437z"/>
	</g>
</g>
<g>
	<g>
		<path d="M310.376,139.434C295.234,59.118,248.229,5.59,246.236,3.351c-3.673-4.126-9.994-4.491-14.119-0.82
			c-4.125,3.673-4.492,9.994-0.82,14.119c0.451,0.507,45.299,51.567,59.424,126.489c0.904,4.801,5.101,8.149,9.815,8.149
			c0.614,0,1.238-0.057,1.865-0.175C307.829,150.09,311.399,144.861,310.376,139.434z"/>
	</g>
</g>
<g>
	<g>
		<path d="M388.612,248.29c-2.161-4.97-7.887-7.313-12.913-5.287l-45.249,18.256c-2.518,1.016-4.515,3.012-5.531,5.53
			c-1.017,2.518-0.965,5.341,0.142,7.82c6.874,15.395,10.36,31.814,10.36,48.804c0,57.88-41.252,106.304-95.898,117.422
			c38.438-33.46,63.814-77.83,75.561-132.322c11.465-53.183,7.339-104.317,1.86-137.849c-0.891-5.451-6.03-9.151-11.482-8.256
			c-5.451,0.891-9.147,6.031-8.256,11.482c9.164,56.077,18.377,194.3-93.003,268.802c-60.745-5.758-108.428-57.051-108.428-119.278
			c0-66.071,53.752-119.824,119.823-119.824c13.446,0,26.656,2.216,39.262,6.586c2.628,0.911,5.512,0.688,7.966-0.616
			c2.454-1.303,4.255-3.569,4.972-6.253l12.601-47.214c1.371-5.138-1.519-10.45-6.577-12.091
			c-18.774-6.089-38.363-9.176-58.223-9.176c-37,0-72.823,10.712-103.598,30.979c-4.612,3.038-5.889,9.239-2.852,13.852
			c3.038,4.614,9.239,5.889,13.852,2.852c27.5-18.11,59.52-27.683,92.598-27.683c14.577,0,28.987,1.858,42.961,5.533l-7.418,27.797
			c-11.559-3.033-23.471-4.566-35.542-4.566c-77.099,0-139.823,62.725-139.823,139.824s62.725,139.823,139.823,139.823
			s139.823-62.725,139.823-139.823c0-16.324-2.762-32.206-8.223-47.345l26.695-10.771c6.833,18.567,10.292,38.072,10.292,58.115
			c0,92.959-75.628,168.587-168.587,168.587S47.01,416.373,47.01,323.414c0-23.034,4.559-45.354,13.55-66.337
			c2.175-5.077-0.177-10.955-5.253-13.13s-10.955,0.177-13.13,5.253c-10.063,23.487-15.167,48.456-15.167,74.214
			c0,103.987,84.6,188.587,188.588,188.587s188.587-84.6,188.587-188.587C404.185,297.333,398.945,272.057,388.612,248.29z"/>
	</g>
</g>
<g>
	<g>
		<path d="M458.445,12.42c-2.021-3.518-5.969-5.469-9.986-4.932c-4.021,0.533-7.321,3.443-8.355,7.365
			c-0.044,0.166-4.866,16.935-22.074,27.685c-9.308,5.815-19.071,8.24-29.406,10.808c-18.285,4.543-39.009,9.691-55.693,35.233
			c-27.571,42.212,0.105,88.816,1.297,90.779c0.196,0.323,0.411,0.635,0.642,0.934c6.565,8.477,32.376,32.675,63.798,32.675
			c21.09,0,39.201-6.995,53.829-20.792c11.551-10.895,20.761-26.198,26.635-44.256C499.56,85.114,460.133,15.358,458.445,12.42z
			 M460.112,141.733c-7.602,23.373-24.433,51.234-61.444,51.234c-19.904,0-40.496-15.648-47.606-24.441
			c-2.466-4.366-20.903-39.13-1.387-69.009c12.387-18.964,26.237-22.405,43.771-26.761c10.865-2.699,23.179-5.758,35.181-13.256
			c9.39-5.867,16.099-13.005,20.807-19.596C459.073,62.901,472.162,104.685,460.112,141.733z"/>
	</g>
</g>
<g>
	<g>
		<path d="M441.096,88.167c-4.981-2.385-10.952-0.283-13.339,4.698l-0.087,0.179c-2.422,4.964-0.361,10.951,4.602,13.373
			c1.412,0.688,2.906,1.015,4.378,1.015c3.703,0,7.261-2.065,8.995-5.617l0.149-0.309C448.181,96.525,446.077,90.553,441.096,88.167
			z"/>
	</g>
</g>
<g>
	<g>
		<path d="M423.434,118.649c-4.021-3.787-10.351-3.594-14.135,0.428c-28.299,30.067-69.432,45.506-69.974,45.707
			c-5.181,1.906-7.838,7.649-5.935,12.832c1.486,4.047,5.314,6.556,9.388,6.556c1.145,0,2.309-0.198,3.445-0.616
			c1.863-0.684,45.98-17.135,77.639-50.772C427.647,128.763,427.455,122.434,423.434,118.649z"/>
	</g>
</g>
<g>
</g>
<g>
</g>
<g>
</g>
<g>
</g>
<g>
</g>
<g>
</g>
<g>
</g>
<g>
</g>
<g>
</g>
<g>
</g>
<g>
</g>
<g>
</g>
<g>
</g>
<g>
</g>
<g>
</g>
</svg>
