<?xml version="1.0" encoding="iso-8859-1"?>
<!-- Generator: Adobe Illustrator 19.0.0, SVG Export Plug-In . SVG Version: 6.00 Build 0)  -->
<svg version="1.1" id="Capa_1" xmlns="http://www.w3.org/2000/svg" xmlns:xlink="http://www.w3.org/1999/xlink" x="0px" y="0px"
	 viewBox="0 0 512 512" style="enable-background:new 0 0 512 512;" xml:space="preserve">
<g>
	<g>
		<path d="M294.167,114.542H242c-5.523,0-10,4.477-10,10s4.477,10,10,10h42.167v52h-57.5c-5.523,0-10,4.477-10,10v196.917h-52
			V196.542c0-5.523-4.477-10-10-10h-57.5v-52H154.5c5.523,0,10-4.477,10-10s-4.477-10-10-10H87.167c-5.523,0-10,4.477-10,10v72
			c0,5.523,4.477,10,10,10h57.5v196.916c0,5.522,4.477,10,10,10h72c5.522,0,10-4.478,10-9.999V206.542h57.5c5.523,0,10-4.477,10-10
			v-72C304.167,119.019,299.69,114.542,294.167,114.542z"/>
	</g>
</g>
<g>
	<g>
		<path d="M204.07,117.47c-1.86-1.86-4.44-2.93-7.07-2.93s-5.21,1.07-7.07,2.93c-1.86,1.86-2.93,4.44-2.93,7.07
			c0,2.64,1.07,5.21,2.93,7.07s4.44,2.93,7.07,2.93s5.21-1.07,7.07-2.93s2.93-4.44,2.93-7.07S205.93,119.33,204.07,117.47z"/>
	</g>
</g>
<g>
	<g>
		<path d="M405.542,114.542h-72c-5.523,0-10,4.477-10,10v169.25c0,5.522,4.477,10,10,10h72c5.522,0,10-4.478,10-10v-169.25
			C415.542,119.019,411.065,114.542,405.542,114.542z M395.542,283.792h-52v-149.25h52V283.792z"/>
	</g>
</g>
<g>
	<g>
		<path d="M405.542,321.458h-72c-5.523,0-10,4.478-10,10v72c0,5.522,4.477,10,10,10h72c5.522,0,10-4.478,10-10v-72
			C415.542,325.936,411.065,321.458,405.542,321.458z M395.542,393.458h-52v-52h52V393.458z"/>
	</g>
</g>
<g>
	<g>
		<path d="M58,321.5c-5.523,0-10,4.478-10,10V413c0,5.522,4.477,10,10,10s10-4.478,10-10v-81.5C68,325.978,63.523,321.5,58,321.5z"
			/>
	</g>
</g>
<g>
	<g>
		<path d="M58,276c-5.523,0-10,4.478-10,10v0.118c0,5.522,4.477,10,10,10s10-4.477,10-10V286C68,280.478,63.523,276,58,276z"/>
	</g>
</g>
<g>
	<g>
		<path d="M446,0H66C29.607,0,0,29.607,0,66v380c0,36.393,29.607,66,66,66h380c36.393,0,66-29.607,66-66V66
			C512,29.607,482.393,0,446,0z M492,446c0,25.364-20.636,46-46,46H66c-25.364,0-46-20.636-46-46V66c0-25.364,20.636-46,46-46h380
			c25.364,0,46,20.636,46,46V446z"/>
	</g>
</g>
<g>
</g>
<g>
</g>
<g>
</g>
<g>
</g>
<g>
</g>
<g>
</g>
<g>
</g>
<g>
</g>
<g>
</g>
<g>
</g>
<g>
</g>
<g>
</g>
<g>
</g>
<g>
</g>
<g>
</g>
</svg>
