<?xml version="1.0" encoding="iso-8859-1"?>
<!-- Generator: Adobe Illustrator 19.0.0, SVG Export Plug-In . SVG Version: 6.00 Build 0)  -->
<svg version="1.1" id="Capa_1" xmlns="http://www.w3.org/2000/svg" xmlns:xlink="http://www.w3.org/1999/xlink" x="0px" y="0px"
	 viewBox="0 0 512 512" style="enable-background:new 0 0 512 512;" xml:space="preserve">
<g>
	<g>
		<path d="M493.25,223.298h-28.548V194.75c0-10.339-8.412-18.75-18.751-18.75h-27.904c-10.339,0-18.75,8.411-18.75,18.75v28.547
			h-28.548c-10.339,0-18.75,8.412-18.75,18.751v27.904c0,10.339,8.411,18.751,18.75,18.751h28.547v28.548
			c0,10.339,8.412,18.75,18.751,18.75h27.904c10.34,0,18.751-8.411,18.751-18.749v-28.548h28.548c10.339,0,18.75-8.412,18.75-18.751
			v-27.904C512,231.71,503.589,223.298,493.25,223.298z M492,268.703h-37.298c-5.523,0-10,4.478-10,10v37.298h-25.406v-37.297
			c0-5.522-4.477-10-10-10h-37.297v-25.406h37.298c5.523,0,10-4.477,10-10V196h25.405v37.297c0,5.523,4.477,10,10,10H492V268.703z"
			/>
	</g>
</g>
<g>
	<g>
		<path d="M165.997,169.173c17.371,0,34.161,5.169,48.553,14.95c0.037,0.025,0.075,0.05,0.113,0.075l0.458,0.303
			c0.06,0.039,0.121,0.078,0.183,0.117c10.557,6.644,23.991,5.285,31.93-3.215l23.601-25.179c4.415-4.727,6.498-10.937,5.714-17.037
			c-0.745-5.801-4.023-11.042-9.043-14.516c-0.114-0.096-0.231-0.191-0.35-0.282C237.933,101.892,202.954,90,165.999,90
			c-61.549,0-117.746,33.809-146.66,88.234C6.688,202.051,0,228.942,0,256.001c0,27.195,6.744,54.197,19.503,78.089
			c2.148,4.023,4.497,8.012,6.979,11.857c2.996,4.64,9.185,5.972,13.826,2.976c4.64-2.995,5.972-9.185,2.976-13.825
			c-2.185-3.384-4.25-6.893-6.139-10.43C25.929,303.665,20,279.921,20,256.001c0-23.798,5.878-47.446,17-68.384
			C62.436,139.741,111.866,110,165.999,110c32.365,0,63.001,10.366,88.629,29.985c0.434,0.395,0.9,0.751,1.395,1.064
			c0.543,0.343,0.681,0.628,0.689,0.685c0.008,0.058-0.055,0.368-0.481,0.825l-23.6,25.178c-1.568,1.679-4.553,1.255-6.603-0.002
			l-0.294-0.194c-17.708-12.017-38.361-18.368-59.735-18.368c-21.965,0-43.06,6.632-61.005,19.177
			c-17.505,12.237-30.832,29.212-38.538,49.087c-4.833,12.458-7.283,25.432-7.283,38.563c0,12.965,2.402,25.811,7.14,38.18
			c7.656,19.975,20.975,37.043,38.518,49.357c17.98,12.622,39.133,19.293,61.171,19.293c21.202,0,41.742-6.261,59.398-18.106
			c16.806-11.276,30.019-26.939,38.211-45.294c0.074-0.165,0.144-0.332,0.208-0.501c2.123-5.55,1.504-11.403-1.699-16.058
			c-3.524-5.122-9.84-8.181-16.896-8.181h-59.675c-1.775,0-3.275-1.5-3.275-3.276v-28.583c0-1.776,1.5-3.277,3.275-3.277h23.256
			c5.523,0,10-4.477,10-10c0-5.523-4.477-10-10-10h-23.256c-12.834,0-23.275,10.442-23.275,23.277v28.583
			c0,12.835,10.441,23.276,23.275,23.276h58.187c-6.721,13.451-16.851,24.953-29.477,33.425
			c-14.352,9.628-31.039,14.717-48.259,14.717c-35.663,0-68.22-22.428-81.012-55.807c-3.86-10.075-5.817-20.513-5.817-31.024
			c0-10.646,1.995-21.188,5.929-31.333C98.172,190.956,129.926,169.173,165.997,169.173z"/>
	</g>
</g>
<g>
	<g>
		<path d="M251.57,222.48c-1.86-1.86-4.44-2.93-7.07-2.93s-5.21,1.07-7.07,2.93s-2.93,4.44-2.93,7.07s1.07,5.21,2.93,7.07
			s4.44,2.93,7.07,2.93s5.21-1.07,7.07-2.93s2.93-4.44,2.93-7.07S253.43,224.34,251.57,222.48z"/>
	</g>
</g>
<g>
	<g>
		<path d="M331.347,241.392c-1.63-12.247-12.584-21.84-24.938-21.84H286.5c-5.523,0-10,4.477-10,10s4.477,10,10,10h19.909
			c2.28,0,4.813,2.219,5.108,4.439C311.521,244.029,312,247.943,312,256c0,42.666-18.63,83.093-51.114,110.912
			C234.462,389.539,200.764,402,165.999,402c-23.183,0-45.343-5.272-65.865-15.67c-4.926-2.496-10.943-0.527-13.44,4.4
			c-2.496,4.925-0.526,10.943,4.4,13.439C114.444,416.001,139.645,422,165.999,422c39.532,0,77.85-14.169,107.897-39.897
			C310.822,350.478,332,304.515,332,256C332,246.585,331.415,241.9,331.347,241.392z"/>
	</g>
</g>
<g>
	<g>
		<path d="M67.588,363.829c-0.393-0.36-0.784-0.722-1.174-1.085c-4.039-3.767-10.366-3.547-14.134,0.492
			c-3.767,4.038-3.547,10.366,0.492,14.133c0.438,0.408,0.877,0.815,1.318,1.218c1.919,1.755,4.336,2.621,6.746,2.621
			c2.709,0,5.41-1.094,7.382-3.251C71.945,373.882,71.663,367.557,67.588,363.829z"/>
	</g>
</g>
<g>
</g>
<g>
</g>
<g>
</g>
<g>
</g>
<g>
</g>
<g>
</g>
<g>
</g>
<g>
</g>
<g>
</g>
<g>
</g>
<g>
</g>
<g>
</g>
<g>
</g>
<g>
</g>
<g>
</g>
</svg>
