<?xml version="1.0" encoding="iso-8859-1"?>
<!-- Generator: Adobe Illustrator 19.0.0, SVG Export Plug-In . SVG Version: 6.00 Build 0)  -->
<svg version="1.1" id="Capa_1" xmlns="http://www.w3.org/2000/svg" xmlns:xlink="http://www.w3.org/1999/xlink" x="0px" y="0px"
	 viewBox="0 0 512 512" style="enable-background:new 0 0 512 512;" xml:space="preserve">
<g>
	<g>
		<path d="M436.437,74.981C388.084,26.628,323.797,0,255.417,0C191.394,0,130.116,23.755,82.87,66.891
			C35.937,109.741,6.73,168.035,0.629,231.036c-0.271,2.807,0.654,5.598,2.55,7.686C5.074,240.81,7.763,242,10.583,242h166.834
			c5.523,0,10-4.477,10-10v-44h136v136h-136v-44c0-5.522-4.477-10-10-10h-45c-5.523,0-10,4.478-10,10c0,5.522,4.477,10,10,10h35v34
			c0,11.028,8.972,20,20,20h136c11.028,0,20-8.972,20-20V188c0-11.028-8.972-20-20-20h-136c-11.028,0-20,8.972-20,20v34H21.851
			C38.438,106.085,136.974,20,255.417,20c130.131,0,236,105.869,236,236s-105.869,236-236,236
			c-118.442,0-216.979-86.085-233.566-202h31.065c5.523,0,10-4.478,10-10c0-5.522-4.477-10-10-10H10.583
			c-2.82,0-5.508,1.19-7.403,3.278c-1.896,2.088-2.821,4.879-2.55,7.686c6.1,63.001,35.307,121.295,82.241,164.145
			C130.116,488.244,191.395,512,255.417,512c68.38,0,132.667-26.629,181.02-74.98c48.352-48.353,74.98-112.64,74.98-181.02
			S484.789,123.333,436.437,74.981z"/>
	</g>
</g>
<g>
	<g>
		<path d="M100.987,272.93c-1.86-1.861-4.44-2.93-7.07-2.93s-5.21,1.07-7.07,2.93c-1.86,1.86-2.93,4.44-2.93,7.07
			s1.07,5.21,2.93,7.069c1.86,1.861,4.44,2.931,7.07,2.931s5.21-1.07,7.07-2.931c1.86-1.859,2.93-4.439,2.93-7.069
			S102.847,274.791,100.987,272.93z"/>
	</g>
</g>
<g>
	<g>
		<path d="M256.025,44.845l-0.608-0.001c-5.523,0-10,4.477-10,10s4.477,10,10,10l0.559,0.001c0.008,0,0.016,0,0.025,0
			c5.511,0,9.986-4.461,9.999-9.975C266.014,49.347,261.548,44.859,256.025,44.845z"/>
	</g>
</g>
<g>
	<g>
		<path d="M390.162,93.417c-27.536-22.845-60.599-38.389-95.614-44.952c-5.429-1.016-10.654,2.557-11.671,7.986
			c-1.018,5.428,2.558,10.654,7.986,11.671c31.682,5.939,61.603,20.008,86.528,40.688c1.867,1.549,4.13,2.304,6.38,2.304
			c2.872,0,5.724-1.232,7.702-3.615C394.999,103.248,394.412,96.943,390.162,93.417z"/>
	</g>
</g>
<g>
</g>
<g>
</g>
<g>
</g>
<g>
</g>
<g>
</g>
<g>
</g>
<g>
</g>
<g>
</g>
<g>
</g>
<g>
</g>
<g>
</g>
<g>
</g>
<g>
</g>
<g>
</g>
<g>
</g>
</svg>
