<?xml version="1.0" encoding="iso-8859-1"?>
<!-- Generator: Adobe Illustrator 19.0.0, SVG Export Plug-In . SVG Version: 6.00 Build 0)  -->
<svg version="1.1" id="Capa_1" xmlns="http://www.w3.org/2000/svg" xmlns:xlink="http://www.w3.org/1999/xlink" x="0px" y="0px"
	 viewBox="0 0 511.998 511.998" style="enable-background:new 0 0 511.998 511.998;" xml:space="preserve">
<g>
	<g>
		<path d="M283.205,304.554c-5.637-19.016-20.078-34.401-40.661-43.32c-19.841-8.6-43.191-10.165-65.746-4.414
			c-26.004,6.632-47.604,22.21-59.26,42.738c-8.951,15.764-11.224,33.405-6.4,49.675c5.637,19.016,20.078,34.4,40.661,43.32
			c11.984,5.193,25.247,7.822,38.843,7.822c8.914,0,17.973-1.13,26.904-3.408c26.004-6.632,47.604-22.21,59.26-42.738
			C285.755,338.465,288.029,320.824,283.205,304.554z M259.41,344.351c-8.985,15.824-26.045,27.936-46.808,33.232
			c-37.011,9.437-73.924-5.83-82.287-34.036c-3.311-11.166-1.714-22.962,4.617-34.111c8.986-15.824,26.046-27.936,46.808-33.232
			c7.425-1.893,14.844-2.793,22.031-2.793c28.638,0,53.568,14.28,60.254,36.828C267.338,321.406,265.741,333.202,259.41,344.351z"/>
	</g>
</g>
<g>
	<g>
		<path d="M367.003,307.46c-2.881-29.612-22.589-55.498-55.493-72.89c-31.547-16.673-71.822-23.628-113.392-19.584
			c-41.575,4.044-79.749,18.63-107.491,41.071c-28.936,23.406-43.285,52.606-40.404,82.219
			c2.881,29.611,22.589,55.497,55.493,72.889c25.684,13.574,57.149,20.706,90.393,20.706c7.59,0,15.272-0.372,22.998-1.122
			c28.146-2.738,55.276-10.465,78.457-22.345c4.916-2.519,6.859-8.547,4.34-13.463c-2.519-4.915-8.547-6.86-13.463-4.34
			c-20.962,10.742-45.607,17.74-71.271,20.236c-37.72,3.67-73.984-2.495-102.108-17.359c-26.765-14.147-42.722-34.439-44.93-57.14
			c-2.208-22.702,9.538-45.69,33.075-64.73c24.731-20.005,59.126-33.045,96.848-36.714c37.723-3.671,73.984,2.496,102.108,17.36
			c26.765,14.147,42.722,34.439,44.93,57.14c0.972,9.984-0.746,20.059-5.105,29.947c-2.227,5.055,0.063,10.959,5.118,13.188
			c5.054,2.228,10.958-0.062,13.187-5.117C366.053,334.345,368.31,320.902,367.003,307.46z"/>
	</g>
</g>
<g>
	<g>
		<path d="M337.149,366.104c-3.893-3.897-10.21-3.903-14.122-0.033c-3.932,3.831-4.044,10.123-0.235,14.091
			c1.964,2.045,4.588,3.075,7.216,3.075c2.491,0,4.987-0.924,6.926-2.787l0.219-0.215
			C341.057,376.332,341.051,370.01,337.149,366.104z"/>
	</g>
</g>
<g>
	<g>
		<path d="M87.017,180.441c-3.996-3.815-10.327-3.667-14.141,0.329l-0.308,0.322c-3.814,3.996-3.667,10.327,0.329,14.141
			c1.937,1.85,4.423,2.768,6.904,2.768c2.638,0,5.271-1.037,7.236-3.097l0.308-0.322C91.16,190.586,91.013,184.255,87.017,180.441z"
			/>
	</g>
</g>
<g>
	<g>
		<path d="M444.516,307.768c-1.548-31.574-27.743-58.497-67.009-69.162c11.949-26.393,8.51-50.144-9.603-65.47
			c-24.83-21.011-66.651-11.716-109.273,2.952c5.571-27.115,2.532-47.037-9.067-59.295c-11.055-11.683-28.881-15.489-51.552-11.006
			c-32.508,6.428-66.31,23.539-97.753,49.482c-4.261,3.516-4.865,9.82-1.349,14.081c3.516,4.261,9.82,4.863,14.081,1.349
			c28.894-23.841,59.636-39.501,88.903-45.288c8.898-1.76,25.037-3.434,33.141,5.131c7.626,8.06,8.411,25.006,2.27,49.008
			c-1.409,5.509,0.323,11.308,4.521,15.134c4.183,3.812,10.095,4.995,15.427,3.09c22.888-8.182,76.487-27.341,97.731-9.366
			c14.493,12.263,9.822,30.679,3.352,43.969c-2.35,4.827-2.399,10.379-0.133,15.234c2.273,4.869,6.577,8.41,11.808,9.714
			c31.982,7.972,53.385,28.156,54.526,51.424c1.128,23.001-8.775,46.691-28.637,68.509c-37.721,41.434-104.405,69.113-174.03,72.232
			c-69.113,3.108-130.335-15.574-167.972-51.224c-21.926-20.767-33.646-45.432-33.891-71.328
			c-0.275-29.068,16.382-68.564,44.558-105.653c3.341-4.399,2.484-10.673-1.914-14.015c-4.4-3.342-10.673-2.484-14.015,1.914
			C17.409,250.286-0.316,293.275,0.004,327.126c0.297,31.452,14.177,61.073,40.138,85.663c38.645,36.604,98.91,57.036,167.08,57.035
			c5.136,0,10.323-0.117,15.541-0.352c74.746-3.349,146.756-33.524,187.927-78.749C434.214,364.884,445.91,336.199,444.516,307.768z
			"/>
	</g>
</g>
<g>
	<g>
		<path d="M203.176,322.452c-8.193-13.11-26.82-16.814-42.405-8.436c-8.302,4.464-14.321,11.762-16.512,20.022
			c-1.853,6.984-0.832,14.098,2.876,20.029c5.234,8.376,14.726,12.913,24.963,12.912c5.787,0,11.813-1.45,17.442-4.476
			c8.302-4.463,14.32-11.76,16.512-20.022C207.906,335.496,206.884,328.384,203.176,322.452z M186.717,337.35
			c-0.767,2.891-3.254,5.707-6.65,7.534c-6.653,3.578-13.755,2.123-15.969-1.419c-0.765-1.224-0.935-2.67-0.503-4.296
			c0.767-2.89,3.254-5.707,6.65-7.534c2.682-1.441,5.434-2.065,7.913-2.065c3.67,0,6.735,1.371,8.058,3.486
			C186.98,334.279,187.149,335.724,186.717,337.35z"/>
	</g>
</g>
<g>
	<g>
		<path d="M379.08,105.345c-5.578,0-11.141,0.648-16.536,1.927c-13.954,3.309-22.615,17.354-19.307,31.308
			c1.603,6.76,5.742,12.492,11.656,16.138c5.913,3.648,12.892,4.772,19.653,3.169c1.464-0.347,2.99-0.523,4.533-0.523
			c10.757,0,19.509,8.751,19.509,19.508c0,2.179-0.35,4.308-1.041,6.326c-2.25,6.573-1.807,13.629,1.249,19.868
			c3.056,6.238,8.359,10.913,14.929,13.164c2.727,0.934,5.563,1.408,8.43,1.408c11.115,0,21.004-7.067,24.606-17.588
			c2.553-7.453,3.847-15.252,3.847-23.179C450.608,137.432,418.521,105.345,379.08,105.345z M427.836,193.571
			c-0.832,2.43-3.115,4.064-5.68,4.064c-0.655,0-1.309-0.111-1.946-0.329c-1.517-0.52-2.743-1.599-3.448-3.04
			c-0.706-1.44-0.809-3.07-0.289-4.587c1.407-4.109,2.12-8.418,2.12-12.808c0-21.786-17.726-39.512-39.513-39.512
			c-3.097,0-6.176,0.358-9.15,1.065c-1.557,0.371-3.171,0.11-4.536-0.732c-1.365-0.842-2.322-2.166-2.692-3.727
			c-0.764-3.223,1.236-6.465,4.458-7.229c3.883-0.92,7.894-1.387,11.92-1.387c28.41,0,51.523,23.114,51.523,51.523
			C430.605,182.59,429.673,188.208,427.836,193.571z"/>
	</g>
</g>
<g>
	<g>
		<path d="M381.263,42.175c-8.721,0-17.443,0.866-25.923,2.575c-6.809,1.372-12.679,5.314-16.524,11.099
			c-3.846,5.786-5.209,12.723-3.837,19.532c2.829,14.055,16.571,23.188,30.632,20.363c5.109-1.029,10.376-1.55,15.652-1.55
			c43.405,0,78.717,35.312,78.717,78.717c0,8.368-1.299,16.593-3.863,24.448c-2.155,6.605-1.609,13.654,1.537,19.848
			c3.147,6.194,8.517,10.792,15.12,12.947c2.618,0.855,5.334,1.288,8.073,1.288c11.286,0,21.221-7.212,24.722-17.946
			c4.266-13.071,6.429-26.726,6.429-40.585C511.998,100.823,453.35,42.175,381.263,42.175z M486.553,207.29
			c-0.809,2.48-3.103,4.147-5.706,4.147c-0.627,0-1.255-0.101-1.866-0.301c-1.525-0.497-2.765-1.559-3.492-2.99
			c-0.726-1.43-0.852-3.058-0.354-4.583c3.218-9.861,4.849-20.174,4.849-30.653c0-54.435-44.286-98.721-98.721-98.721
			c-6.599,0-13.194,0.654-19.597,1.944c-3.249,0.651-6.424-1.455-7.076-4.702c-0.317-1.571-0.002-3.174,0.886-4.509
			c0.888-1.336,2.243-2.247,3.816-2.564c7.182-1.447,14.575-2.18,21.972-2.18c61.057,0,110.731,49.674,110.731,110.732
			C491.995,184.659,490.164,196.225,486.553,207.29z"/>
	</g>
</g>
<g>
	<g>
		<path d="M217.329,309.423c-3.303-4.427-9.57-5.34-13.998-2.035l-0.685,0.511c-4.427,3.303-5.339,9.57-2.035,13.997
			c1.963,2.632,4.975,4.022,8.025,4.022c2.08,0,4.178-0.647,5.973-1.986l0.685-0.511
			C219.721,320.117,220.633,313.85,217.329,309.423z"/>
	</g>
</g>
<g>
</g>
<g>
</g>
<g>
</g>
<g>
</g>
<g>
</g>
<g>
</g>
<g>
</g>
<g>
</g>
<g>
</g>
<g>
</g>
<g>
</g>
<g>
</g>
<g>
</g>
<g>
</g>
<g>
</g>
</svg>
