<?xml version="1.0" encoding="iso-8859-1"?>
<!-- Generator: Adobe Illustrator 19.0.0, SVG Export Plug-In . SVG Version: 6.00 Build 0)  -->
<svg version="1.1" id="Capa_1" xmlns="http://www.w3.org/2000/svg" xmlns:xlink="http://www.w3.org/1999/xlink" x="0px" y="0px"
	 viewBox="0 0 512 512" style="enable-background:new 0 0 512 512;" xml:space="preserve">
<g>
	<g>
		<path d="M322.252,132c-25.036,0-48.613,9.717-66.252,26.996c-17.639-17.278-41.216-26.995-66.252-26.995
			c-52.292,0-94.834,42.541-94.834,94.833c0,35.059,21.563,79.775,57.681,119.612C180.012,376.687,221.467,409,255.593,409
			c0.136,0,0.271-0.002,0.406-0.007c0.135,0.005,0.27,0.007,0.408,0.007c16.586,0,36.729-7.869,58.25-22.757
			c4.542-3.142,5.678-9.371,2.536-13.913c-3.142-4.541-9.373-5.677-13.913-2.535c-17.807,12.317-34.369,19.13-46.672,19.204
			c-0.154-0.008-0.309-0.014-0.467-0.016c-0.094-0.001-0.189-0.001-0.283,0c-0.155,0.003-0.308,0.008-0.466,0.016
			c-22.393-0.134-57.71-22.599-87.98-55.987c-32.382-35.717-52.498-76.402-52.498-106.179c0-41.263,33.57-74.833,74.834-74.833
			c22.837,0,44.139,10.251,58.443,28.126c1.899,2.371,4.771,3.751,7.808,3.751c3.037,0,5.91-1.38,7.808-3.751
			C278.112,162.251,299.414,152,322.251,152c41.264,0,74.834,33.57,74.834,74.833c0,25.781-14.589,59.104-40.027,91.425
			c-3.415,4.339-2.666,10.626,1.674,14.042c4.34,3.417,10.627,2.666,14.043-1.673c16.549-21.026,44.311-62.47,44.311-103.794
			C417.086,174.542,374.544,132,322.252,132z"/>
	</g>
</g>
<g>
	<g>
		<path d="M345.794,346.626c-3.828-3.982-10.158-4.107-14.14-0.28l-0.282,0.272c-3.992,3.817-4.132,10.147-0.316,14.139
			c1.965,2.054,4.595,3.088,7.229,3.088c2.485,0,4.974-0.92,6.91-2.773l0.319-0.307
			C349.495,356.938,349.621,350.608,345.794,346.626z"/>
	</g>
</g>
<g>
	<g>
		<path d="M58,113.364c-5.522,0-10,4.477-10,10v81.5c0,5.523,4.478,10,10,10s10-4.477,10-10v-81.5
			C68,117.841,63.522,113.364,58,113.364z"/>
	</g>
</g>
<g>
	<g>
		<path d="M58,240.246c-5.522,0-10,4.477-10,10v0.118c0,5.523,4.478,10,10,10s10-4.477,10-10v-0.118
			C68,244.723,63.522,240.246,58,240.246z"/>
	</g>
</g>
<g>
	<g>
		<path d="M446,0H66C29.607,0,0,29.607,0,66v380c0,36.393,29.607,66,66,66h380c36.393,0,66-29.607,66-66V66
			C512,29.607,482.393,0,446,0z M492,446c0,25.364-20.636,46-46,46H66c-25.364,0-46-20.636-46-46V66c0-25.364,20.636-46,46-46h380
			c25.364,0,46,20.636,46,46V446z"/>
	</g>
</g>
<g>
</g>
<g>
</g>
<g>
</g>
<g>
</g>
<g>
</g>
<g>
</g>
<g>
</g>
<g>
</g>
<g>
</g>
<g>
</g>
<g>
</g>
<g>
</g>
<g>
</g>
<g>
</g>
<g>
</g>
</svg>
