<?xml version="1.0" encoding="iso-8859-1"?>
<!-- Generator: Adobe Illustrator 19.0.0, SVG Export Plug-In . SVG Version: 6.00 Build 0)  -->
<svg version="1.1" id="Capa_1" xmlns="http://www.w3.org/2000/svg" xmlns:xlink="http://www.w3.org/1999/xlink" x="0px" y="0px"
	 viewBox="0 0 512 512" style="enable-background:new 0 0 512 512;" xml:space="preserve">
<g>
	<g>
		<path d="M437.02,74.98C388.667,26.628,324.38,0,256,0S123.333,26.628,74.98,74.98C26.629,123.333,0,187.62,0,256
			s26.629,132.667,74.98,181.02C123.333,485.372,187.62,512,256,512c52.397,0,102.773-15.722,145.681-45.465
			c4.539-3.147,5.667-9.377,2.521-13.916c-3.146-4.538-9.376-5.668-13.916-2.521C350.742,477.51,304.307,492,256,492
			C125.869,492,20,386.131,20,256S125.869,20,256,20s236,105.869,236,236c0,47.675-14.144,93.607-40.9,132.829
			c-3.112,4.562-1.938,10.784,2.625,13.896c4.561,3.113,10.784,1.937,13.896-2.625C496.654,357.542,512,307.713,512,256
			C512,187.62,485.371,123.333,437.02,74.98z"/>
	</g>
</g>
<g>
	<g>
		<path d="M437.021,422.876c-3.907-3.905-10.237-3.905-14.143,0l-0.188,0.188c-3.905,3.906-3.905,10.238,0,14.143
			c1.953,1.953,4.511,2.929,7.071,2.929c2.559,0,5.118-0.976,7.072-2.929l0.188-0.188
			C440.926,433.113,440.926,426.781,437.021,422.876z"/>
	</g>
</g>
<g>
	<g>
		<path d="M398.137,93.364C358.791,58.952,308.313,40,256,40c-14.833,0-29.675,1.52-44.115,4.518
			c-3.359,0.696-6.126,3.067-7.331,6.278c-1.204,3.212-0.678,6.817,1.393,9.551c19.065,25.167,37.436,52.836,54.603,82.237
			c5.668,9.705,11.345,19.883,16.873,30.251c1.786,3.348,5.231,5.296,8.828,5.296c1.251,0,2.521-0.236,3.747-0.731
			c43.933-17.77,80.487-41.139,108.646-69.457c1.948-1.96,2.999-4.638,2.903-7.399C401.45,97.782,400.216,95.183,398.137,93.364z
			 M290.751,155.413c-4.269-7.824-8.601-15.502-12.929-22.914c-14.615-25.03-30.093-48.846-46.136-71
			C239.737,60.502,247.87,60,256,60c43.81,0,86.198,14.646,120.537,41.449C353.314,122.746,324.534,140.851,290.751,155.413z"/>
	</g>
</g>
<g>
	<g>
		<path d="M256.849,176.809c-4.214-7.786-8.556-15.525-12.908-23.003c-24.445-42.012-47.638-73.619-62.789-92.736
			c-2.822-3.561-7.691-4.773-11.854-2.946c-61.38,26.932-107.436,81.803-123.201,146.781c-0.721,2.968-0.045,6.103,1.834,8.51
			c1.879,2.408,4.755,3.826,7.809,3.848c1.698,0.013,3.452,0.02,5.261,0.02c28.366,0,70.014-1.694,115.874-9.146
			c25.873-4.204,50.799-9.923,74.086-17c2.873-0.872,5.201-2.99,6.343-5.767C258.445,182.592,258.278,179.45,256.849,176.809z
			 M173.669,188.397c-40.449,6.572-77.547,8.535-104.688,8.841c16.077-51.052,53.016-94,101.341-117.553
			c14.609,18.919,34.962,47.45,56.334,84.182c2.211,3.801,4.421,7.671,6.612,11.582
			C214.297,180.699,194.304,185.044,173.669,188.397z"/>
	</g>
</g>
<g>
	<g>
		<path d="M292.485,250.68c-5.328-12.489-11.018-25.018-16.911-37.24c-2.162-4.482-7.291-6.694-12.033-5.188
			c-26.247,8.331-54.636,14.984-84.377,19.775c-47.783,7.695-90.482,9.31-117.889,9.31c-3.655,0-7.329-0.029-10.919-0.086
			c-0.055-0.001-0.108-0.001-0.162-0.001c-5.348,0-9.764,4.22-9.988,9.583C40.067,250.156,40,253.154,40,256
			c0,51.738,18.581,101.791,52.321,140.939c1.904,2.21,4.673,3.472,7.574,3.472c0.147,0,0.294-0.003,0.441-0.011
			c3.062-0.135,5.893-1.667,7.68-4.156c8.348-11.621,17.542-22.998,27.323-33.814c7.956-8.798,16.421-17.313,25.158-25.309
			c4.074-3.728,4.355-10.054,0.626-14.128c-3.73-4.075-10.054-4.355-14.128-0.626c-9.2,8.419-18.113,17.385-26.49,26.648
			c-7.324,8.098-14.334,16.498-20.937,25.079C74.237,340.559,60.293,299.6,60.004,257.336c0.424,0.001,0.847,0.001,1.271,0.001
			c28.136,0,71.98-1.659,121.068-9.565c27.596-4.445,54.096-10.453,78.909-17.886c2.888,6.146,5.717,12.352,8.464,18.571
			c-1.24,0.419-2.469,0.843-3.693,1.273c-18.296,6.424-36.376,14.725-53.734,24.676c-4.792,2.747-6.449,8.857-3.703,13.649
			c2.745,4.791,8.854,6.449,13.648,3.703c16.304-9.345,33.265-17.136,50.414-23.157c4.349-1.526,8.783-2.976,13.556-4.431
			c2.715-0.827,4.951-2.77,6.149-5.344C293.551,256.252,293.599,253.291,292.485,250.68z"/>
	</g>
</g>
<g>
	<g>
		<path d="M195.142,296.731c-3.242-4.472-9.495-5.467-13.967-2.225l-0.363,0.263c-4.479,3.231-5.49,9.481-2.26,13.96
			c1.955,2.709,5.015,4.15,8.119,4.15c2.026,0,4.072-0.614,5.842-1.89l0.404-0.292C197.388,307.455,198.384,301.202,195.142,296.731
			z"/>
	</g>
</g>
<g>
	<g>
		<path d="M349.388,442.656c-8.898-51.888-22.968-103.788-41.82-154.257c-1.834-4.907-7.146-7.566-12.169-6.101
			c-5.441,1.587-10.867,3.329-16.126,5.175c-82.255,28.876-134.503,90.809-158.325,125.156c-3.02,4.355-2.119,10.309,2.055,13.575
			C161.291,456.164,207.281,472,256,472c30.463,0,59.934-6.229,87.591-18.515C347.774,451.627,350.161,447.167,349.388,442.656z
			 M256,452c-40.997,0-79.864-12.357-112.997-35.83c24.505-33.241,71.85-84.885,142.895-109.825
			c2.039-0.716,4.104-1.414,6.186-2.093c15.87,43.962,28.03,88.95,36.213,133.976C305.312,447.37,281.027,452,256,452z"/>
	</g>
</g>
<g>
	<g>
		<path d="M426.912,123.927c-1.757-2.27-4.406-3.676-7.271-3.859c-2.847-0.185-5.671,0.874-7.703,2.903
			c-26.375,26.331-59.327,48.558-97.941,66.06h-0.001c-4.19,1.9-8.576,3.791-13.408,5.784c-2.539,1.047-4.536,3.093-5.521,5.657
			c-0.985,2.564-0.873,5.42,0.312,7.899c6.348,13.287,12.457,26.921,18.154,40.523c1.814,4.33,6.392,6.813,11.012,5.976
			c56.18-10.209,104.48-4.247,135.105,2.551c0.719,0.16,1.444,0.238,2.167,0.238c2.322,0,4.596-0.809,6.411-2.327
			c2.381-1.99,3.703-4.972,3.58-8.072C470.015,202.212,454.489,159.564,426.912,123.927z M385.572,229.397
			c-17.593,0-36.632,1.268-56.696,4.449c-3.543-8.255-7.222-16.498-11.003-24.647c1.487-0.652,2.943-1.302,4.381-1.953h-0.001
			c36.835-16.695,68.882-37.545,95.424-62.063c18.488,26.886,29.828,57.638,33.225,90.075
			C432.868,231.979,410.69,229.397,385.572,229.397z"/>
	</g>
</g>
<g>
	<g>
		<path d="M461.861,278.544c-11.316-2.774-23.08-4.949-34.968-6.463c-30.079-3.833-60.596-3.431-90.7,1.192
			c-2.964,0.455-5.568,2.216-7.092,4.798c-1.525,2.582-1.811,5.712-0.78,8.527c16.523,45.091,29.378,91.672,38.209,138.445
			c0.635,3.362,2.942,6.165,6.12,7.433c1.196,0.478,2.454,0.712,3.705,0.712c2.07,0,4.122-0.642,5.851-1.89
			c23.023-16.604,42.297-37.229,57.284-61.302c15.321-24.611,25.371-51.59,29.868-80.186
			C470.165,284.677,466.907,279.782,461.861,278.544z M382.994,405.268c-7.995-38.395-18.623-76.572-31.69-113.828
			c24.198-2.708,49.22-2.557,73.062,0.481c7.956,1.013,15.844,2.34,23.56,3.961C439.113,338.252,416.02,377.067,382.994,405.268z"/>
	</g>
</g>
<g>
</g>
<g>
</g>
<g>
</g>
<g>
</g>
<g>
</g>
<g>
</g>
<g>
</g>
<g>
</g>
<g>
</g>
<g>
</g>
<g>
</g>
<g>
</g>
<g>
</g>
<g>
</g>
<g>
</g>
</svg>
