<?xml version="1.0" encoding="iso-8859-1"?>
<!-- Generator: Adobe Illustrator 19.0.0, SVG Export Plug-In . SVG Version: 6.00 Build 0)  -->
<svg version="1.1" id="Capa_1" xmlns="http://www.w3.org/2000/svg" xmlns:xlink="http://www.w3.org/1999/xlink" x="0px" y="0px"
	 viewBox="0 0 512 512" style="enable-background:new 0 0 512 512;" xml:space="preserve">
<g>
	<g>
		<path d="M141.569,248.93c-1.859-1.86-4.439-2.93-7.069-2.93s-5.21,1.07-7.07,2.93s-2.93,4.44-2.93,7.07s1.069,5.21,2.93,7.07
			c1.861,1.86,4.44,2.93,7.07,2.93s5.21-1.07,7.069-2.93c1.86-1.86,2.931-4.44,2.931-7.07S143.43,250.79,141.569,248.93z"/>
	</g>
</g>
<g>
	<g>
		<path d="M502,0H10C4.478,0,0,4.477,0,10v492c0,5.523,4.478,10,10,10h492c5.522,0,10-4.477,10-10V10C512,4.477,507.522,0,502,0z
			 M246,246h-74c-5.522,0-10,4.477-10,10s4.478,10,10,10h74v226H20V266h75.5c5.522,0,10-4.477,10-10s-4.478-10-10-10H20V20h226V246z
			 M492,492H266V266h226V492z M492,48h-77.5c-5.522,0-10,4.477-10,10s4.478,10,10,10H492v178H266V20h226V48z"/>
	</g>
</g>
<g>
	<g>
		<path d="M372.118,48H372c-5.522,0-10,4.477-10,10s4.478,10,10,10h0.118c5.522,0,10-4.477,10-10S377.64,48,372.118,48z"/>
	</g>
</g>
<g>
</g>
<g>
</g>
<g>
</g>
<g>
</g>
<g>
</g>
<g>
</g>
<g>
</g>
<g>
</g>
<g>
</g>
<g>
</g>
<g>
</g>
<g>
</g>
<g>
</g>
<g>
</g>
<g>
</g>
</svg>
