<?xml version="1.0" encoding="iso-8859-1"?>
<!-- Generator: Adobe Illustrator 19.0.0, SVG Export Plug-In . SVG Version: 6.00 Build 0)  -->
<svg version="1.1" id="Capa_1" xmlns="http://www.w3.org/2000/svg" xmlns:xlink="http://www.w3.org/1999/xlink" x="0px" y="0px"
	 viewBox="0 0 512 512" style="enable-background:new 0 0 512 512;" xml:space="preserve">
<g>
	<g>
		<g>
			<path d="M204.625,464.397c-3.939,3.871-3.994,10.203-0.123,14.142l0.146,0.147c1.95,1.95,4.501,2.923,7.054,2.923
				c2.561,0,5.122-0.979,7.077-2.935c3.905-3.905,3.893-10.249-0.012-14.154C214.895,460.581,208.564,460.526,204.625,464.397z"/>
			<path d="M401.042,474.387l-23.541-91.023c-0.94-3.631-3.798-6.469-7.458-7.291c-3.66-0.823-7.438,0.435-9.839,3.316
				c-1.98,2.001-11.888,5.894-22.989,5.894c-16.945,0-22.957-15.326-22.957-28.45v-128.89h66.899c5.523,0,10-4.477,10-10V113.579
				c0-5.523-4.477-10-10-10h-66.899V10c0-5.523-4.477-10-10-10h-81.51c-5.523,0-10,4.477-10,10v1.471
				c0,50.788-41.319,92.108-92.108,92.108c-5.523,0-10,4.477-10,10v104.364c0,5.523,4.477,10,10,10h52.775v162.632
				c0,19.709,2.925,37.429,8.694,52.667c1.955,5.165,7.728,7.768,12.893,5.812c5.166-1.955,7.768-7.728,5.812-12.893
				c-4.909-12.968-7.398-28.305-7.398-45.586V217.943c0-5.523-4.477-10-10-10H130.64v-84.806
				C184.983,118.312,228.302,74.539,232.427,20h61.831v93.578c0,5.523,4.477,10,10,10h66.899v84.364h-66.899
				c-5.523,0-10,4.477-10,10v138.89c0,28.527,17.665,48.45,42.957,48.45c7.687,0,16.612-1.42,24.212-4.191l18.665,72.172
				C369.831,480.784,346.967,492,301.904,492c-20.825,0-38.994-2.974-54.002-8.841c-5.143-2.01-10.944,0.53-12.954,5.673
				c-2.011,5.144,0.529,10.944,5.673,12.954C257.959,508.563,278.578,512,301.904,512c43.163,0,77.374-9.891,96.334-27.849
				C400.879,481.649,401.953,477.909,401.042,474.387z"/>
		</g>
	</g>
</g>
<g>
	<g>
		<path d="M257.25,263.058c-5.523,0-10,4.477-10,10v81.5c0,5.523,4.477,10,10,10s10-4.477,10-10v-81.5
			C267.25,267.535,262.773,263.058,257.25,263.058z"/>
	</g>
</g>
<g>
	<g>
		<path d="M257.25,217.558c-5.523,0-10,4.477-10,10v0.118c0,5.523,4.477,10,10,10s10-4.477,10-10v-0.118
			C267.25,222.035,262.773,217.558,257.25,217.558z"/>
	</g>
</g>
<g>
</g>
<g>
</g>
<g>
</g>
<g>
</g>
<g>
</g>
<g>
</g>
<g>
</g>
<g>
</g>
<g>
</g>
<g>
</g>
<g>
</g>
<g>
</g>
<g>
</g>
<g>
</g>
<g>
</g>
</svg>
