<?xml version="1.0" encoding="iso-8859-1"?>
<!-- Generator: Adobe Illustrator 19.0.0, SVG Export Plug-In . SVG Version: 6.00 Build 0)  -->
<svg version="1.1" id="Capa_1" xmlns="http://www.w3.org/2000/svg" xmlns:xlink="http://www.w3.org/1999/xlink" x="0px" y="0px"
	 viewBox="0 0 512 512" style="enable-background:new 0 0 512 512;" xml:space="preserve">
<g>
	<g>
		<path d="M414,260.061c-39.597,0-73.783,23.608-89.226,57.487c-15.895-29.439-47.036-49.487-82.774-49.487
			c-38.123,0-71.016,22.813-85.75,55.504c-14.654-24.654-41.548-41.219-72.25-41.219c-46.318,0-84,37.682-84,84V430
			c0,5.523,4.477,10,10,10h492c5.523,0,10-4.477,10-10v-71.94C512,304.023,468.038,260.061,414,260.061z M148,420H20v-53.654
			c0-35.29,28.71-64,64-64s64,28.71,64,64V420z M316,420H168v-53.654v-4.286c0-40.804,33.196-74,74-74s74,33.196,74,74V420z
			 M492,420H336v-57.94v-4c0-43.009,34.99-78,78-78s78,34.99,78,78V420z"/>
	</g>
</g>
<g>
	<g>
		<path d="M476.597,98.148c-16.367-16.563-38.195-25.847-61.459-26.141C414.759,72.002,414.38,72,414,72c-48.523,0-88,39.477-88,88
			s39.477,88,88,88s88-39.477,88-88C502,136.692,492.978,114.726,476.597,98.148z M414,228c-37.495,0-68-30.505-68-68
			s30.505-68,68-68c0.292,0,0.584,0.001,0.88,0.005C451.89,92.473,482,122.976,482,160C482,197.495,451.495,228,414,228z"/>
	</g>
</g>
<g>
	<g>
		<path d="M202.708,126.272c-3.883-3.927-10.215-3.962-14.142-0.078l-0.287,0.284c-3.916,3.894-3.933,10.226-0.039,14.142
			c1.955,1.965,4.523,2.949,7.091,2.949c2.55,0,5.101-0.969,7.052-2.91l0.247-0.245
			C206.557,136.531,206.592,130.199,202.708,126.272z"/>
	</g>
</g>
<g>
	<g>
		<path d="M295.741,126.498c-16.036-16.035-38.194-24.03-60.794-21.934c-5.5,0.51-9.544,5.382-9.034,10.881
			c0.509,5.5,5.377,9.538,10.88,9.034c16.66-1.547,32.99,4.345,44.806,16.161c21.834,21.834,21.834,57.362,0,79.196
			c-21.835,21.833-57.363,21.834-79.196,0c-10.257-10.258-16.078-23.891-16.389-38.388c-0.118-5.521-4.692-9.909-10.212-9.783
			c-5.521,0.119-9.901,4.691-9.783,10.212c0.422,19.676,8.321,38.179,22.242,52.1c14.815,14.817,34.277,22.225,53.739,22.225
			c19.462,0,38.924-7.408,53.741-22.224C325.373,204.346,325.373,156.13,295.741,126.498z"/>
	</g>
</g>
<g>
	<g>
		<path d="M80.5,138.429c-36.393,0-66,29.607-66,66s29.607,66,66,66s66-29.607,66-66S116.893,138.429,80.5,138.429z M80.5,250.429
			c-25.364,0-46-20.636-46-46c0-25.364,20.635-46,46-46c25.364,0,46,20.636,46,46C126.5,229.793,105.864,250.429,80.5,250.429z"/>
	</g>
</g>
<g>
	<g>
		<path d="M454.453,321.411c-3.711-4.093-10.035-4.404-14.126-0.694c-4.092,3.709-4.402,10.033-0.693,14.125
			c5.772,6.369,8.952,14.614,8.952,23.218v16.606c0,5.523,4.477,10,10,10s10-4.477,10-10V358.06
			C468.586,344.481,463.566,331.465,454.453,321.411z"/>
	</g>
</g>
<g>
	<g>
		<path d="M414.618,303.479L414,303.476c-5.523,0-10,4.477-10,10s4.477,10,10,10l0.384,0.002c0.04,0,0.08,0,0.12,0
			c5.468,0,9.933-4.4,9.997-9.883C424.565,308.073,420.141,303.544,414.618,303.479z"/>
	</g>
</g>
<g>
</g>
<g>
</g>
<g>
</g>
<g>
</g>
<g>
</g>
<g>
</g>
<g>
</g>
<g>
</g>
<g>
</g>
<g>
</g>
<g>
</g>
<g>
</g>
<g>
</g>
<g>
</g>
<g>
</g>
</svg>
