<?xml version="1.0" encoding="iso-8859-1"?>
<!-- Generator: Adobe Illustrator 19.0.0, SVG Export Plug-In . SVG Version: 6.00 Build 0)  -->
<svg version="1.1" id="Capa_1" xmlns="http://www.w3.org/2000/svg" xmlns:xlink="http://www.w3.org/1999/xlink" x="0px" y="0px"
	 viewBox="0 0 512 512" style="enable-background:new 0 0 512 512;" xml:space="preserve">
<g>
	<g>
		<path d="M208.241,169.726c-36.04-36.039-91.319-45.874-137.554-24.47c-5.012,2.32-7.195,8.265-4.874,13.277
			c2.32,5.012,8.265,7.196,13.277,4.874c38.655-17.895,84.873-9.671,115.007,20.463c39.773,39.772,39.773,104.488,0,144.261
			c-39.773,39.772-104.489,39.773-144.262,0c-27.932-27.932-37.243-69.975-23.721-107.11c1.89-5.19-0.786-10.929-5.975-12.819
			c-5.188-1.888-10.929,0.786-12.819,5.976c-16.171,44.409-5.034,94.691,28.371,128.097c23.786,23.786,55.031,35.679,86.274,35.679
			c31.245,0,62.489-11.893,86.276-35.679C255.812,294.702,255.812,217.298,208.241,169.726z"/>
	</g>
</g>
<g>
	<g>
		<path d="M50.414,169.246c-3.879-3.934-10.212-3.977-14.143-0.098l-0.591,0.587c-3.899,3.911-3.891,10.244,0.02,14.144
			c1.953,1.946,4.507,2.919,7.063,2.919c2.563,0,5.127-0.98,7.081-2.938l0.473-0.471C54.249,179.509,54.293,173.178,50.414,169.246z
			"/>
	</g>
</g>
<g>
	<g>
		<path d="M389.99,133.99c-67.277,0-122.01,54.734-122.01,122.01s54.734,122.01,122.01,122.01S512,323.277,512,256
			S457.266,133.99,389.99,133.99z M389.99,358.009c-56.248,0-102.009-45.761-102.009-102.009
			c0-56.248,45.761-102.009,102.009-102.009S491.998,199.752,491.998,256S446.237,358.009,389.99,358.009z"/>
	</g>
</g>
<g>
	<g>
		<path d="M432.465,190.166c-4.638-2.997-10.829-1.668-13.828,2.97c-2.998,4.638-1.668,10.829,2.97,13.828
			c16.731,10.814,26.719,29.146,26.719,49.035c0,5.523,4.477,10.001,10.001,10.001s10.001-4.477,10-10.001
			C468.327,229.293,454.921,204.682,432.465,190.166z"/>
	</g>
</g>
<g>
	<g>
		<path d="M390.494,177.662l-0.504-0.001c-5.523,0-10.001,4.477-10.001,10.001c0,5.523,4.477,10.001,10.001,10.001l0.37,0.001
			c0.022,0,0.045,0,0.068,0c5.492,0,9.963-4.433,10-9.934C400.465,182.207,396.017,177.699,390.494,177.662z"/>
	</g>
</g>
<g>
</g>
<g>
</g>
<g>
</g>
<g>
</g>
<g>
</g>
<g>
</g>
<g>
</g>
<g>
</g>
<g>
</g>
<g>
</g>
<g>
</g>
<g>
</g>
<g>
</g>
<g>
</g>
<g>
</g>
</svg>
