<?xml version="1.0" encoding="iso-8859-1"?>
<!-- Generator: Adobe Illustrator 19.0.0, SVG Export Plug-In . SVG Version: 6.00 Build 0)  -->
<svg version="1.1" id="Capa_1" xmlns="http://www.w3.org/2000/svg" xmlns:xlink="http://www.w3.org/1999/xlink" x="0px" y="0px"
	 viewBox="0 0 512 512" style="enable-background:new 0 0 512 512;" xml:space="preserve">
<g>
	<g>
		<g>
			<path d="M74.721,234.779h63.717c27.246,0,45.551-16.84,45.552-41.904c0-24.673-18.732-41.904-45.551-41.904H74.721
				c-5.522,0-10,4.477-10,10v63.808C64.721,230.302,69.199,234.779,74.721,234.779z M84.721,170.971h53.718
				c15.761,0,25.551,8.393,25.551,21.904c0,19.77-17.868,21.904-25.551,21.904H84.721V170.971z"/>
			<path d="M141.173,271.751H74.721c-5.522,0-10,4.477-10,10v69.278c0,5.523,4.478,10,10,10h66.452
				c14.377,0,26.504-4.025,35.072-11.641c8.941-7.949,13.668-19.359,13.668-32.998C189.913,290.107,169.87,271.751,141.173,271.751z
				 M141.173,341.029H84.721v-49.278h56.452c17.727,0,28.74,9.441,28.74,24.639C169.913,336.754,154.284,341.029,141.173,341.029z"
				/>
			<path d="M214.918,250.549c6.598-4.323,12.539-9.718,17.545-16.013c11.522-14.489,17.613-32.835,17.613-53.055
				c0-23.621-8.901-45.322-25.062-61.106C207.347,103.12,182.296,94,152.567,94H10c-5.522,0-10,4.477-10,10v304
				c0,5.523,4.478,10,10,10h147.58c30.32,0,55.623-9.311,73.172-26.927C247.27,374.492,256,351.819,256,325.506
				C256,293.545,239.496,265.02,214.918,250.549z M157.58,398H20V114h132.568c53.542,0,77.509,33.892,77.509,67.481
				c0,35.071-22.318,55.375-44.436,59.939c-4.743,0.978-8.102,5.213-7.977,10.053c0.126,4.84,3.701,8.895,8.486,9.626
				c28.419,4.342,49.85,32.03,49.85,64.406C236,370.222,205.951,398,157.58,398z"/>
		</g>
	</g>
</g>
<g>
	<g>
		<path d="M453.854,102h-122c-5.522,0-10,4.477-10,10v32c0,5.523,4.478,10,10,10h122c5.522,0,10-4.477,10-10v-32
			C463.854,106.477,459.376,102,453.854,102z M443.854,134h-102v-12h102V134z"/>
	</g>
</g>
<g>
	<g>
		<g>
			<path d="M293.707,293.469v-0.17c0-5.523-4.478-10-10-10c-5.522,0-10,4.477-10,10v0.17c0,5.523,4.478,10,10,10
				C289.229,303.469,293.707,298.992,293.707,293.469z"/>
			<path d="M480.491,201.294c-21.975-23.923-52.135-36.053-89.644-36.053c-33.609,0-61.859,11.572-83.963,34.393
				c-14.039,14.498-23.741,32.681-28.837,54.045c-1.282,5.372,2.034,10.765,7.406,12.047c5.376,1.281,10.767-2.034,12.048-7.407
				c4.252-17.825,12.243-32.889,23.749-44.772c18.45-19.047,41.214-28.306,69.597-28.306c32.125,0,56.63,9.676,74.914,29.581
				c16.764,18.256,25.562,46.413,26.202,83.783H347.067c-2.695,0-5.277,1.089-7.159,3.019s-2.905,4.538-2.838,7.233
				c0.503,20.01,6.499,36.005,17.818,47.537c11.436,11.659,25.829,17.571,42.778,17.571c11.875,0,22.131-3.229,30.484-9.597
				c3.45-2.631,6.558-5.902,9.284-9.762h44.375c-6.675,11.646-15.481,21.121-26.175,28.163
				c-15.345,10.107-35.071,15.232-58.629,15.232c-37.699,0-64.613-11.141-82.236-34.004c-7.464-9.824-13.009-21.229-16.48-33.896
				c-1.46-5.327-6.964-8.461-12.287-7.002c-5.327,1.459-8.462,6.961-7.002,12.287c4.151,15.144,10.826,28.841,19.887,40.765
				C320.292,403.92,353.304,418,397.006,418c27.536,0,50.963-6.234,69.63-18.531c13.37-8.805,24.336-20.592,32.591-35.034
				c2.89-5.054,5.448-10.553,7.603-16.343c1.143-3.069,0.709-6.504-1.16-9.194c-1.868-2.69-4.937-4.294-8.212-4.294h-65.551
				c-3.643,0-6.998,1.981-8.757,5.171c-2.054,3.725-4.452,6.648-7.127,8.688c-4.854,3.702-10.859,5.501-18.356,5.501
				c-11.537,0-20.86-3.786-28.503-11.578c-5.878-5.989-9.576-13.824-11.188-23.781h143.97c5.447,0,9.892-4.359,9.998-9.805
				C512.873,261.202,502.291,225.032,480.491,201.294z"/>
			<path d="M348.166,282.539h92.399c2.698,0,5.28-1.089,7.163-3.021c1.882-1.931,2.904-4.541,2.835-7.237
				c-0.507-19.602-6.144-34.971-16.755-45.68c-10.707-10.799-23.903-16.275-39.222-16.275c-16.299,0-30.001,5.787-40.728,17.202
				v0.001c-10.584,11.266-15.863,26.44-15.692,45.102C338.217,278.118,342.679,282.539,348.166,282.539z M368.433,241.223
				c6.89-7.333,15.445-10.897,26.152-10.897c9.926,0,18.111,3.388,25.017,10.354c5.148,5.195,8.51,12.524,10.04,21.859h-70.861
				C360.042,253.786,363.233,246.76,368.433,241.223z"/>
		</g>
	</g>
</g>
<g>
	<g>
		<path d="M42,239c-5.522,0-10,4.477-10,10v81.5c0,5.523,4.478,10,10,10s10-4.477,10-10V249C52,243.477,47.522,239,42,239z"/>
	</g>
</g>
<g>
	<g>
		<path d="M42,193.5c-5.522,0-10,4.477-10,10v0.118c0,5.523,4.478,10,10,10s10-4.477,10-10V203.5C52,197.977,47.522,193.5,42,193.5z
			"/>
	</g>
</g>
<g>
</g>
<g>
</g>
<g>
</g>
<g>
</g>
<g>
</g>
<g>
</g>
<g>
</g>
<g>
</g>
<g>
</g>
<g>
</g>
<g>
</g>
<g>
</g>
<g>
</g>
<g>
</g>
<g>
</g>
</svg>
